<!-- CAJAL SVG Figure
     Book: Quantum Mechanics — Foundations: The Quantum World
     Book-slug: quantum-mechanics-vol1
     Chapter: 01-why-classical-physics-failed
     Figure: 05 — Planck spectra at three temperatures (Wien's law)
     Type: line-chart
     Priority: Important
     Author: Humanitarians AI Incorporated
     Date-generated: 2026-06-19
     Source: pantry/01-why-classical-physics-failed-cajal.md
-->
<svg viewBox="0 0 700 420" xmlns="http://www.w3.org/2000/svg" role="img" aria-labelledby="fig-title-05">
  <title id="fig-title-05">Planck spectra at three temperatures (Wien's law)</title>
  <desc>A family of Planck blackbody curves at 4000, 5000, and 6000 K. As temperature rises the peak grows and shifts to higher frequency; a dashed locus traces the peak, illustrating Wien's law that the peak frequency is proportional to temperature.</desc>
  <metadata>
    <cajal:figure xmlns:cajal="https://bearbrown.ai/cajal/1.0"
      book="Quantum Mechanics — Foundations: The Quantum World"
      book-slug="quantum-mechanics-vol1" chapter="01-why-classical-physics-failed"
      figure-number="05" figure-title="Planck spectra at three temperatures (Wien's law)" figure-slug="planck-family-wien"
      figure-type="line-chart" priority="Important" author="Humanitarians AI Incorporated"
      date-generated="2026-06-19" source-file="pantry/01-why-classical-physics-failed-cajal.md"/>
  </metadata>
  <defs>
    <marker id="arrow-05" markerWidth="8" markerHeight="6" refX="7" refY="3" orient="auto">
      <polygon points="0 0, 8 3, 0 6" fill="#2a1a0e"/>
    </marker>
    <marker id="arrowR-05" markerWidth="8" markerHeight="6" refX="7" refY="3" orient="auto">
      <polygon points="0 0, 8 3, 0 6" fill="#0072B2"/>
    </marker>
  </defs>

<rect x="72" y="60" width="578" height="288" fill="#F5F5F5" stroke="#D4D4D4" stroke-width="0.75"/>
<text x="350" y="30" font-family="'EB Garamond','Garamond',Georgia,serif" font-size="14" fill="#2a1a0e" text-anchor="middle">Blackbody spectra: the peak shifts with temperature</text>
<rect x="642.4" y="337" width="2.3" height="11" fill="#610061"/>
<rect x="639.4" y="337" width="2.3" height="11" fill="#67006a"/>
<rect x="636.5" y="337" width="2.3" height="11" fill="#6d0073"/>
<rect x="633.5" y="337" width="2.3" height="11" fill="#72007c"/>
<rect x="630.6" y="337" width="2.3" height="11" fill="#760084"/>
<rect x="627.8" y="337" width="2.3" height="11" fill="#79008d"/>
<rect x="624.9" y="337" width="2.3" height="11" fill="#7c0095"/>
<rect x="622.1" y="337" width="2.3" height="11" fill="#7f009d"/>
<rect x="619.3" y="337" width="2.3" height="11" fill="#8100a5"/>
<rect x="616.6" y="337" width="2.3" height="11" fill="#8200ad"/>
<rect x="613.9" y="337" width="2.3" height="11" fill="#8300b5"/>
<rect x="611.2" y="337" width="2.3" height="11" fill="#8300bc"/>
<rect x="608.5" y="337" width="2.3" height="11" fill="#8200c4"/>
<rect x="605.9" y="337" width="2.3" height="11" fill="#8100cc"/>
<rect x="603.2" y="337" width="2.3" height="11" fill="#8000d3"/>
<rect x="600.7" y="337" width="2.3" height="11" fill="#7e00db"/>
<rect x="598.1" y="337" width="2.3" height="11" fill="#7b00e2"/>
<rect x="595.6" y="337" width="2.3" height="11" fill="#7800e9"/>
<rect x="593.0" y="337" width="2.3" height="11" fill="#7400f1"/>
<rect x="590.5" y="337" width="2.3" height="11" fill="#6f00f8"/>
<rect x="588.1" y="337" width="2.3" height="11" fill="#6a00ff"/>
<rect x="585.6" y="337" width="2.3" height="11" fill="#6100ff"/>
<rect x="583.2" y="337" width="2.3" height="11" fill="#5900ff"/>
<rect x="580.8" y="337" width="2.3" height="11" fill="#5000ff"/>
<rect x="578.4" y="337" width="2.3" height="11" fill="#4600ff"/>
<rect x="576.1" y="337" width="2.3" height="11" fill="#3d00ff"/>
<rect x="573.7" y="337" width="2.3" height="11" fill="#3300ff"/>
<rect x="571.4" y="337" width="2.3" height="11" fill="#2800ff"/>
<rect x="569.1" y="337" width="2.3" height="11" fill="#1d00ff"/>
<rect x="566.9" y="337" width="2.3" height="11" fill="#1100ff"/>
<rect x="564.6" y="337" width="2.3" height="11" fill="#0000ff"/>
<rect x="562.4" y="337" width="2.3" height="11" fill="#0013ff"/>
<rect x="560.2" y="337" width="2.3" height="11" fill="#0022ff"/>
<rect x="558.0" y="337" width="2.3" height="11" fill="#002fff"/>
<rect x="555.8" y="337" width="2.3" height="11" fill="#003bff"/>
<rect x="553.7" y="337" width="2.3" height="11" fill="#0046ff"/>
<rect x="551.5" y="337" width="2.3" height="11" fill="#0051ff"/>
<rect x="549.4" y="337" width="2.3" height="11" fill="#005cff"/>
<rect x="547.3" y="337" width="2.3" height="11" fill="#0066ff"/>
<rect x="545.3" y="337" width="2.3" height="11" fill="#0071ff"/>
<rect x="543.2" y="337" width="2.3" height="11" fill="#007bff"/>
<rect x="541.2" y="337" width="2.3" height="11" fill="#0084ff"/>
<rect x="539.1" y="337" width="2.3" height="11" fill="#008eff"/>
<rect x="537.1" y="337" width="2.3" height="11" fill="#0097ff"/>
<rect x="535.1" y="337" width="2.3" height="11" fill="#00a0ff"/>
<rect x="533.2" y="337" width="2.3" height="11" fill="#00a9ff"/>
<rect x="531.2" y="337" width="2.3" height="11" fill="#00b2ff"/>
<rect x="529.3" y="337" width="2.3" height="11" fill="#00bbff"/>
<rect x="527.4" y="337" width="2.3" height="11" fill="#00c4ff"/>
<rect x="525.5" y="337" width="2.3" height="11" fill="#00cdff"/>
<rect x="523.6" y="337" width="2.3" height="11" fill="#00d5ff"/>
<rect x="521.7" y="337" width="2.3" height="11" fill="#00deff"/>
<rect x="519.8" y="337" width="2.3" height="11" fill="#00e6ff"/>
<rect x="518.0" y="337" width="2.3" height="11" fill="#00efff"/>
<rect x="516.2" y="337" width="2.3" height="11" fill="#00f7ff"/>
<rect x="514.3" y="337" width="2.3" height="11" fill="#00ffff"/>
<rect x="512.5" y="337" width="2.3" height="11" fill="#00ffea"/>
<rect x="510.8" y="337" width="2.3" height="11" fill="#00ffd5"/>
<rect x="509.0" y="337" width="2.3" height="11" fill="#00ffc0"/>
<rect x="507.2" y="337" width="2.3" height="11" fill="#00ffa9"/>
<rect x="505.5" y="337" width="2.3" height="11" fill="#00ff92"/>
<rect x="503.8" y="337" width="2.3" height="11" fill="#00ff7b"/>
<rect x="502.1" y="337" width="2.3" height="11" fill="#00ff61"/>
<rect x="500.4" y="337" width="2.3" height="11" fill="#00ff46"/>
<rect x="498.7" y="337" width="2.3" height="11" fill="#00ff28"/>
<rect x="497.0" y="337" width="2.3" height="11" fill="#00ff00"/>
<rect x="495.3" y="337" width="2.3" height="11" fill="#0fff00"/>
<rect x="493.7" y="337" width="2.3" height="11" fill="#1aff00"/>
<rect x="492.1" y="337" width="2.3" height="11" fill="#24ff00"/>
<rect x="490.4" y="337" width="2.3" height="11" fill="#2dff00"/>
<rect x="488.8" y="337" width="2.3" height="11" fill="#36ff00"/>
<rect x="487.2" y="337" width="2.3" height="11" fill="#3eff00"/>
<rect x="485.6" y="337" width="2.3" height="11" fill="#46ff00"/>
<rect x="484.1" y="337" width="2.3" height="11" fill="#4eff00"/>
<rect x="482.5" y="337" width="2.3" height="11" fill="#56ff00"/>
<rect x="481.0" y="337" width="2.3" height="11" fill="#5eff00"/>
<rect x="479.4" y="337" width="2.3" height="11" fill="#65ff00"/>
<rect x="477.9" y="337" width="2.3" height="11" fill="#6cff00"/>
<rect x="476.4" y="337" width="2.3" height="11" fill="#73ff00"/>
<rect x="474.9" y="337" width="2.3" height="11" fill="#7bff00"/>
<rect x="473.4" y="337" width="2.3" height="11" fill="#81ff00"/>
<rect x="471.9" y="337" width="2.3" height="11" fill="#88ff00"/>
<rect x="470.4" y="337" width="2.3" height="11" fill="#8fff00"/>
<rect x="469.0" y="337" width="2.3" height="11" fill="#96ff00"/>
<rect x="467.5" y="337" width="2.3" height="11" fill="#9cff00"/>
<rect x="466.1" y="337" width="2.3" height="11" fill="#a3ff00"/>
<rect x="464.7" y="337" width="2.3" height="11" fill="#a9ff00"/>
<rect x="463.2" y="337" width="2.3" height="11" fill="#b0ff00"/>
<rect x="461.8" y="337" width="2.3" height="11" fill="#b6ff00"/>
<rect x="460.4" y="337" width="2.3" height="11" fill="#bdff00"/>
<rect x="459.1" y="337" width="2.3" height="11" fill="#c3ff00"/>
<rect x="457.7" y="337" width="2.3" height="11" fill="#c9ff00"/>
<rect x="456.3" y="337" width="2.3" height="11" fill="#cfff00"/>
<rect x="455.0" y="337" width="2.3" height="11" fill="#d5ff00"/>
<rect x="453.6" y="337" width="2.3" height="11" fill="#dbff00"/>
<rect x="452.3" y="337" width="2.3" height="11" fill="#e1ff00"/>
<rect x="450.9" y="337" width="2.3" height="11" fill="#e7ff00"/>
<rect x="449.6" y="337" width="2.3" height="11" fill="#edff00"/>
<rect x="448.3" y="337" width="2.3" height="11" fill="#f3ff00"/>
<rect x="447.0" y="337" width="2.3" height="11" fill="#f9ff00"/>
<rect x="445.7" y="337" width="2.3" height="11" fill="#ffff00"/>
<rect x="444.4" y="337" width="2.3" height="11" fill="#fff900"/>
<rect x="443.1" y="337" width="2.3" height="11" fill="#fff200"/>
<rect x="441.9" y="337" width="2.3" height="11" fill="#ffec00"/>
<rect x="440.6" y="337" width="2.3" height="11" fill="#ffe600"/>
<rect x="439.4" y="337" width="2.3" height="11" fill="#ffdf00"/>
<rect x="438.1" y="337" width="2.3" height="11" fill="#ffd900"/>
<rect x="436.9" y="337" width="2.3" height="11" fill="#ffd200"/>
<rect x="435.7" y="337" width="2.3" height="11" fill="#ffcb00"/>
<rect x="434.5" y="337" width="2.3" height="11" fill="#ffc500"/>
<rect x="433.2" y="337" width="2.3" height="11" fill="#ffbe00"/>
<rect x="432.0" y="337" width="2.3" height="11" fill="#ffb700"/>
<rect x="430.9" y="337" width="2.3" height="11" fill="#ffb000"/>
<rect x="429.7" y="337" width="2.3" height="11" fill="#ffa900"/>
<rect x="428.5" y="337" width="2.3" height="11" fill="#ffa200"/>
<rect x="427.3" y="337" width="2.3" height="11" fill="#ff9b00"/>
<rect x="426.2" y="337" width="2.3" height="11" fill="#ff9400"/>
<rect x="425.0" y="337" width="2.3" height="11" fill="#ff8d00"/>
<rect x="423.9" y="337" width="2.3" height="11" fill="#ff8600"/>
<rect x="422.7" y="337" width="2.3" height="11" fill="#ff7e00"/>
<rect x="421.6" y="337" width="2.3" height="11" fill="#ff7700"/>
<rect x="420.5" y="337" width="2.3" height="11" fill="#ff6f00"/>
<rect x="419.4" y="337" width="2.3" height="11" fill="#ff6700"/>
<rect x="418.2" y="337" width="2.3" height="11" fill="#ff5f00"/>
<rect x="417.1" y="337" width="2.3" height="11" fill="#ff5700"/>
<rect x="416.0" y="337" width="2.3" height="11" fill="#ff4f00"/>
<rect x="415.0" y="337" width="2.3" height="11" fill="#ff4600"/>
<rect x="413.9" y="337" width="2.3" height="11" fill="#ff3e00"/>
<rect x="412.8" y="337" width="2.3" height="11" fill="#ff3400"/>
<rect x="411.7" y="337" width="2.3" height="11" fill="#ff2b00"/>
<rect x="410.7" y="337" width="2.3" height="11" fill="#ff2100"/>
<rect x="409.6" y="337" width="2.3" height="11" fill="#ff1600"/>
<rect x="408.6" y="337" width="2.3" height="11" fill="#ff0900"/>
<rect x="407.5" y="337" width="2.3" height="11" fill="#ff0000"/>
<rect x="406.5" y="337" width="2.3" height="11" fill="#ff0000"/>
<rect x="405.5" y="337" width="2.3" height="11" fill="#ff0000"/>
<rect x="404.4" y="337" width="2.3" height="11" fill="#ff0000"/>
<rect x="403.4" y="337" width="2.3" height="11" fill="#ff0000"/>
<rect x="402.4" y="337" width="2.3" height="11" fill="#ff0000"/>
<rect x="401.4" y="337" width="2.3" height="11" fill="#ff0000"/>
<rect x="400.4" y="337" width="2.3" height="11" fill="#ff0000"/>
<rect x="399.4" y="337" width="2.3" height="11" fill="#ff0000"/>
<rect x="398.4" y="337" width="2.3" height="11" fill="#ff0000"/>
<rect x="397.5" y="337" width="2.3" height="11" fill="#ff0000"/>
<rect x="396.5" y="337" width="2.3" height="11" fill="#ff0000"/>
<rect x="395.5" y="337" width="2.3" height="11" fill="#ff0000"/>
<rect x="394.5" y="337" width="2.3" height="11" fill="#ff0000"/>
<rect x="393.6" y="337" width="2.3" height="11" fill="#ff0000"/>
<rect x="392.6" y="337" width="2.3" height="11" fill="#ff0000"/>
<rect x="391.7" y="337" width="2.3" height="11" fill="#ff0000"/>
<rect x="390.7" y="337" width="2.3" height="11" fill="#ff0000"/>
<rect x="389.8" y="337" width="2.3" height="11" fill="#ff0000"/>
<rect x="388.9" y="337" width="2.3" height="11" fill="#ff0000"/>
<rect x="388.0" y="337" width="2.3" height="11" fill="#ff0000"/>
<rect x="387.0" y="337" width="2.3" height="11" fill="#ff0000"/>
<rect x="386.1" y="337" width="2.3" height="11" fill="#ff0000"/>
<rect x="385.2" y="337" width="2.3" height="11" fill="#ff0000"/>
<rect x="384.3" y="337" width="2.3" height="11" fill="#ff0000"/>
<rect x="383.4" y="337" width="2.3" height="11" fill="#ff0000"/>
<rect x="382.5" y="337" width="2.3" height="11" fill="#ff0000"/>
<rect x="381.6" y="337" width="2.3" height="11" fill="#ff0000"/>
<rect x="380.8" y="337" width="2.3" height="11" fill="#f80000"/>
<rect x="379.9" y="337" width="2.3" height="11" fill="#f10000"/>
<rect x="379.0" y="337" width="2.3" height="11" fill="#e90000"/>
<rect x="378.1" y="337" width="2.3" height="11" fill="#e20000"/>
<rect x="377.3" y="337" width="2.3" height="11" fill="#db0000"/>
<rect x="376.4" y="337" width="2.3" height="11" fill="#d30000"/>
<rect x="375.6" y="337" width="2.3" height="11" fill="#cc0000"/>
<rect x="374.7" y="337" width="2.3" height="11" fill="#c40000"/>
<rect x="373.9" y="337" width="2.3" height="11" fill="#bc0000"/>
<rect x="373.0" y="337" width="2.3" height="11" fill="#b50000"/>
<rect x="372.2" y="337" width="2.3" height="11" fill="#ad0000"/>
<rect x="371.4" y="337" width="2.3" height="11" fill="#a50000"/>
<rect x="370.6" y="337" width="2.3" height="11" fill="#9d0000"/>
<rect x="369.7" y="337" width="2.3" height="11" fill="#950000"/>
<rect x="368.9" y="337" width="2.3" height="11" fill="#8d0000"/>
<rect x="368.1" y="337" width="2.3" height="11" fill="#840000"/>
<rect x="367.3" y="337" width="2.3" height="11" fill="#7c0000"/>
<rect x="366.5" y="337" width="2.3" height="11" fill="#730000"/>
<rect x="365.7" y="337" width="2.3" height="11" fill="#6a0000"/>
<rect x="364.9" y="337" width="2.3" height="11" fill="#610000"/>
<text x="459" y="333" font-family="'Inter',-apple-system,'Helvetica Neue',sans-serif" font-size="9" fill="#545454" text-anchor="middle">visible</text>
<line x1="72.0" y1="348" x2="72.0" y2="353" stroke="#2a1a0e" stroke-width="1"/>
<text x="72.0" y="366" font-family="'JetBrains Mono','Fira Code','Courier New',monospace" font-size="11" fill="#545454" text-anchor="middle">0</text>
<line x1="216.5" y1="348" x2="216.5" y2="353" stroke="#2a1a0e" stroke-width="1"/>
<text x="216.5" y="366" font-family="'JetBrains Mono','Fira Code','Courier New',monospace" font-size="11" fill="#545454" text-anchor="middle">2</text>
<line x1="361.0" y1="348" x2="361.0" y2="353" stroke="#2a1a0e" stroke-width="1"/>
<text x="361.0" y="366" font-family="'JetBrains Mono','Fira Code','Courier New',monospace" font-size="11" fill="#545454" text-anchor="middle">4</text>
<line x1="505.5" y1="348" x2="505.5" y2="353" stroke="#2a1a0e" stroke-width="1"/>
<text x="505.5" y="366" font-family="'JetBrains Mono','Fira Code','Courier New',monospace" font-size="11" fill="#545454" text-anchor="middle">6</text>
<line x1="650.0" y1="348" x2="650.0" y2="353" stroke="#2a1a0e" stroke-width="1"/>
<text x="650.0" y="366" font-family="'JetBrains Mono','Fira Code','Courier New',monospace" font-size="11" fill="#545454" text-anchor="middle">8</text>
<text x="361" y="386" font-family="'EB Garamond','Garamond',Georgia,serif" font-size="12" fill="#545454" text-anchor="middle">Frequency  ν  (×10¹⁴ Hz)</text>
<text x="20" y="204" font-family="'EB Garamond','Garamond',Georgia,serif" font-size="12" fill="#545454" text-anchor="middle" transform="rotate(-90,20,204)">Spectral energy density</text>
<line x1="72" y1="348" x2="650" y2="348" stroke="#2a1a0e" stroke-width="1.5"/>
<line x1="72" y1="60" x2="72" y2="348" stroke="#2a1a0e" stroke-width="1.5"/>
<polyline points="241.9,262.7 284.4,181.3 326.9,60.0" fill="none" stroke="#BF7400" stroke-width="1" stroke-dasharray="5 4"/>
<polyline points="75.6,347.8 78.5,347.3 81.4,346.7 84.3,345.7 87.2,344.7 90.1,343.4 93.0,341.9 95.8,340.3 98.7,338.6 101.6,336.8 104.5,334.8 107.4,332.8 110.3,330.6 113.2,328.4 116.1,326.2 119.0,323.9 121.9,321.6 124.7,319.2 127.6,316.8 130.5,314.5 133.4,312.1 136.3,309.7 139.2,307.4 142.1,305.0 145.0,302.7 147.9,300.5 150.8,298.2 153.6,296.1 156.5,293.9 159.4,291.9 162.3,289.8 165.2,287.9 168.1,286.0 171.0,284.1 173.9,282.4 176.8,280.7 179.7,279.1 182.5,277.5 185.4,276.1 188.3,274.7 191.2,273.4 194.1,272.1 197.0,271.0 199.9,269.9 202.8,268.9 205.7,268.0 208.6,267.1 211.4,266.4 214.3,265.7 217.2,265.1 220.1,264.5 223.0,264.1 225.9,263.7 228.8,263.3 231.7,263.1 234.6,262.9 237.5,262.7 240.3,262.7 243.2,262.7 246.1,262.7 249.0,262.8 251.9,263.0 254.8,263.2 257.7,263.5 260.6,263.8 263.5,264.2 266.4,264.6 269.2,265.1 272.1,265.6 275.0,266.2 277.9,266.8 280.8,267.4 283.7,268.1 286.6,268.8 289.5,269.5 292.4,270.2 295.3,271.0 298.1,271.8 301.0,272.7 303.9,273.5 306.8,274.4 309.7,275.3 312.6,276.2 315.5,277.1 318.4,278.1 321.3,279.0 324.2,280.0 327.0,281.0 329.9,282.0 332.8,283.0 335.7,284.0 338.6,285.0 341.5,286.0 344.4,287.0 347.3,288.0 350.2,289.0 353.1,290.1 355.9,291.1 358.8,292.1 361.7,293.1 364.6,294.1 367.5,295.1 370.4,296.1 373.3,297.1 376.2,298.1 379.1,299.1 382.0,300.1 384.8,301.1 387.7,302.0 390.6,303.0 393.5,303.9 396.4,304.8 399.3,305.8 402.2,306.7 405.1,307.6 408.0,308.5 410.9,309.3 413.7,310.2 416.6,311.1 419.5,311.9 422.4,312.7 425.3,313.6 428.2,314.4 431.1,315.1 434.0,315.9 436.9,316.7 439.8,317.5 442.6,318.2 445.5,318.9 448.4,319.6 451.3,320.3 454.2,321.0 457.1,321.7 460.0,322.4 462.9,323.0 465.8,323.7 468.7,324.3 471.5,324.9 474.4,325.5 477.3,326.1 480.2,326.7 483.1,327.2 486.0,327.8 488.9,328.3 491.8,328.9 494.7,329.4 497.6,329.9 500.4,330.4 503.3,330.9 506.2,331.3 509.1,331.8 512.0,332.3 514.9,332.7 517.8,333.1 520.7,333.5 523.6,334.0 526.5,334.4 529.3,334.7 532.2,335.1 535.1,335.5 538.0,335.9 540.9,336.2 543.8,336.6 546.7,336.9 549.6,337.2 552.5,337.5 555.4,337.8 558.2,338.1 561.1,338.4 564.0,338.7 566.9,339.0 569.8,339.3 572.7,339.5 575.6,339.8 578.5,340.0 581.4,340.3 584.3,340.5 587.1,340.7 590.0,341.0 592.9,341.2 595.8,341.4 598.7,341.6 601.6,341.8 604.5,342.0 607.4,342.2 610.3,342.4 613.2,342.5 616.0,342.7 618.9,342.9 621.8,343.0 624.7,343.2 627.6,343.4 630.5,343.5 633.4,343.6 636.3,343.8 639.2,343.9 642.1,344.1 644.9,344.2 647.8,344.3" fill="none" stroke="#787878" stroke-width="1.3"/>
<circle cx="241.9" cy="262.7" r="2.6" fill="#787878"/>
<text x="247.9" y="258.7" font-family="'Inter',-apple-system,'Helvetica Neue',sans-serif" font-size="11" fill="#787878">4000 K</text>
<polyline points="75.6,347.7 78.5,347.2 81.4,346.3 84.3,345.1 87.2,343.7 90.1,342.0 93.0,340.1 95.8,338.0 98.7,335.7 101.6,333.2 104.5,330.5 107.4,327.7 110.3,324.7 113.2,321.6 116.1,318.4 119.0,315.1 121.9,311.7 124.7,308.3 127.6,304.7 130.5,301.2 133.4,297.5 136.3,293.9 139.2,290.2 142.1,286.5 145.0,282.7 147.9,279.0 150.8,275.3 153.6,271.6 156.5,268.0 159.4,264.3 162.3,260.7 165.2,257.2 168.1,253.6 171.0,250.2 173.9,246.8 176.8,243.4 179.7,240.2 182.5,236.9 185.4,233.8 188.3,230.8 191.2,227.8 194.1,224.9 197.0,222.1 199.9,219.3 202.8,216.7 205.7,214.2 208.6,211.7 211.4,209.4 214.3,207.1 217.2,204.9 220.1,202.9 223.0,200.9 225.9,199.0 228.8,197.3 231.7,195.6 234.6,194.0 237.5,192.5 240.3,191.1 243.2,189.8 246.1,188.6 249.0,187.6 251.9,186.5 254.8,185.6 257.7,184.8 260.6,184.1 263.5,183.4 266.4,182.9 269.2,182.4 272.1,182.0 275.0,181.7 277.9,181.5 280.8,181.4 283.7,181.3 286.6,181.4 289.5,181.4 292.4,181.6 295.3,181.8 298.1,182.2 301.0,182.5 303.9,183.0 306.8,183.5 309.7,184.0 312.6,184.7 315.5,185.3 318.4,186.1 321.3,186.9 324.2,187.7 327.0,188.6 329.9,189.5 332.8,190.5 335.7,191.5 338.6,192.6 341.5,193.7 344.4,194.9 347.3,196.0 350.2,197.3 353.1,198.5 355.9,199.8 358.8,201.1 361.7,202.4 364.6,203.8 367.5,205.2 370.4,206.6 373.3,208.0 376.2,209.5 379.1,211.0 382.0,212.5 384.8,214.0 387.7,215.5 390.6,217.0 393.5,218.6 396.4,220.1 399.3,221.7 402.2,223.2 405.1,224.8 408.0,226.4 410.9,228.0 413.7,229.6 416.6,231.2 419.5,232.8 422.4,234.4 425.3,235.9 428.2,237.5 431.1,239.1 434.0,240.7 436.9,242.3 439.8,243.9 442.6,245.4 445.5,247.0 448.4,248.6 451.3,250.1 454.2,251.6 457.1,253.2 460.0,254.7 462.9,256.2 465.8,257.7 468.7,259.2 471.5,260.7 474.4,262.1 477.3,263.6 480.2,265.0 483.1,266.5 486.0,267.9 488.9,269.3 491.8,270.7 494.7,272.1 497.6,273.4 500.4,274.8 503.3,276.1 506.2,277.4 509.1,278.7 512.0,280.0 514.9,281.3 517.8,282.5 520.7,283.8 523.6,285.0 526.5,286.2 529.3,287.4 532.2,288.6 535.1,289.7 538.0,290.9 540.9,292.0 543.8,293.1 546.7,294.2 549.6,295.3 552.5,296.3 555.4,297.4 558.2,298.4 561.1,299.4 564.0,300.4 566.9,301.4 569.8,302.4 572.7,303.3 575.6,304.3 578.5,305.2 581.4,306.1 584.3,307.0 587.1,307.8 590.0,308.7 592.9,309.6 595.8,310.4 598.7,311.2 601.6,312.0 604.5,312.8 607.4,313.6 610.3,314.3 613.2,315.1 616.0,315.8 618.9,316.5 621.8,317.2 624.7,317.9 627.6,318.6 630.5,319.2 633.4,319.9 636.3,320.5 639.2,321.2 642.1,321.8 644.9,322.4 647.8,323.0" fill="none" stroke="#2a1a0e" stroke-width="1.3"/>
<circle cx="284.4" cy="181.3" r="2.6" fill="#2a1a0e"/>
<text x="290.4" y="177.3" font-family="'Inter',-apple-system,'Helvetica Neue',sans-serif" font-size="11" fill="#2a1a0e">5000 K</text>
<polyline points="75.6,347.7 78.5,347.0 81.4,345.9 84.3,344.5 87.2,342.8 90.1,340.7 93.0,338.3 95.8,335.7 98.7,332.8 101.6,329.6 104.5,326.2 107.4,322.6 110.3,318.8 113.2,314.8 116.1,310.6 119.0,306.3 121.9,301.8 124.7,297.2 127.6,292.4 130.5,287.6 133.4,282.6 136.3,277.6 139.2,272.5 142.1,267.3 145.0,262.1 147.9,256.8 150.8,251.5 153.6,246.2 156.5,240.9 159.4,235.5 162.3,230.2 165.2,224.8 168.1,219.5 171.0,214.2 173.9,208.9 176.8,203.7 179.7,198.5 182.5,193.3 185.4,188.2 188.3,183.2 191.2,178.2 194.1,173.3 197.0,168.5 199.9,163.7 202.8,159.1 205.7,154.5 208.6,150.0 211.4,145.6 214.3,141.3 217.2,137.1 220.1,133.0 223.0,129.0 225.9,125.1 228.8,121.3 231.7,117.6 234.6,114.1 237.5,110.6 240.3,107.3 243.2,104.1 246.1,100.9 249.0,98.0 251.9,95.1 254.8,92.3 257.7,89.7 260.6,87.1 263.5,84.7 266.4,82.4 269.2,80.3 272.1,78.2 275.0,76.3 277.9,74.4 280.8,72.7 283.7,71.1 286.6,69.6 289.5,68.3 292.4,67.0 295.3,65.8 298.1,64.8 301.0,63.9 303.9,63.0 306.8,62.3 309.7,61.7 312.6,61.2 315.5,60.7 318.4,60.4 321.3,60.2 324.2,60.0 327.0,60.0 329.9,60.0 332.8,60.2 335.7,60.4 338.6,60.7 341.5,61.1 344.4,61.6 347.3,62.2 350.2,62.8 353.1,63.5 355.9,64.3 358.8,65.1 361.7,66.1 364.6,67.1 367.5,68.1 370.4,69.3 373.3,70.4 376.2,71.7 379.1,73.0 382.0,74.4 384.8,75.8 387.7,77.2 390.6,78.8 393.5,80.3 396.4,82.0 399.3,83.6 402.2,85.3 405.1,87.1 408.0,88.9 410.9,90.7 413.7,92.6 416.6,94.5 419.5,96.4 422.4,98.3 425.3,100.3 428.2,102.4 431.1,104.4 434.0,106.5 436.9,108.6 439.8,110.7 442.6,112.8 445.5,115.0 448.4,117.2 451.3,119.3 454.2,121.6 457.1,123.8 460.0,126.0 462.9,128.3 465.8,130.5 468.7,132.8 471.5,135.0 474.4,137.3 477.3,139.6 480.2,141.9 483.1,144.2 486.0,146.5 488.9,148.8 491.8,151.0 494.7,153.3 497.6,155.6 500.4,157.9 503.3,160.2 506.2,162.5 509.1,164.8 512.0,167.0 514.9,169.3 517.8,171.6 520.7,173.8 523.6,176.0 526.5,178.3 529.3,180.5 532.2,182.7 535.1,184.9 538.0,187.1 540.9,189.3 543.8,191.4 546.7,193.6 549.6,195.7 552.5,197.9 555.4,200.0 558.2,202.1 561.1,204.1 564.0,206.2 566.9,208.3 569.8,210.3 572.7,212.3 575.6,214.3 578.5,216.3 581.4,218.2 584.3,220.2 587.1,222.1 590.0,224.0 592.9,225.9 595.8,227.8 598.7,229.7 601.6,231.5 604.5,233.3 607.4,235.1 610.3,236.9 613.2,238.7 616.0,240.4 618.9,242.1 621.8,243.8 624.7,245.5 627.6,247.2 630.5,248.9 633.4,250.5 636.3,252.1 639.2,253.7 642.1,255.3 644.9,256.8 647.8,258.3" fill="none" stroke="#0072B2" stroke-width="1.8"/>
<circle cx="326.9" cy="60.0" r="2.6" fill="#0072B2"/>
<text x="332.9" y="56.0" font-family="'Inter',-apple-system,'Helvetica Neue',sans-serif" font-size="11" fill="#0072B2">6000 K</text>
<text x="474" y="86" font-family="'Inter',-apple-system,'Helvetica Neue',sans-serif" font-size="10" fill="#BF7400">peak locus: ν<tspan font-size="7.5" dy="3">max</tspan><tspan font-size="10" dy="-3"> ∝ T</tspan></text>
</svg>