<!-- CAJAL SVG Figure
     Book-slug: quantum-mechanics-vol1
     Chapter: 05-the-infinite-square-well
     Figure: 02 — Energy grows as n-squared
     Type: schematic  Author: Humanitarians AI Incorporated  Date-generated: 2026-06-22
-->
<svg viewBox="0 0 700 480" xmlns="http://www.w3.org/2000/svg" role="img" aria-labelledby="ttl-0502">
<title id="ttl-0502">The infinite square well: energy grows as n squared</title>
<desc>An infinite square well between x=0 and x=L with infinitely high walls. The first five allowed energy levels sit at relative heights 1, 4, 9, 16 and 25, and each eigenstate is drawn as a standing sine wave on its own level, with n half-waves; the gaps between levels widen as n increases.</desc>
<metadata><cajal:figure xmlns:cajal="https://bearbrown.ai/cajal/1.0" book-slug="quantum-mechanics-vol1" chapter="05-the-infinite-square-well" figure-number="02" figure-title="Energy grows as n-squared" figure-slug="infinite-well-energy-ladder" figure-type="schematic" priority="Important" author="Humanitarians AI Incorporated" date-generated="2026-06-22" source-file="pantry/05-the-infinite-square-well-cajal.md"/></metadata>
<text x="350" y="34" font-family="'EB Garamond','Garamond',Georgia,serif" font-size="18" fill="#2a1a0e" text-anchor="middle"><tspan>The infinite square well: energy grows as n</tspan><tspan dy="-7.56" font-size="12.96">2</tspan></text>
<line x1="120.00" y1="420.00" x2="548.00" y2="420.00" stroke="#2a1a0e" stroke-width="1.5"/>
<line x1="120.00" y1="420.00" x2="120.00" y2="88.00" stroke="#2a1a0e" stroke-width="4"/>
<line x1="548.00" y1="420.00" x2="548.00" y2="88.00" stroke="#2a1a0e" stroke-width="4"/>
<text x="120" y="82" font-family="'Inter',-apple-system,'Helvetica Neue',sans-serif" font-size="14" fill="#545454" text-anchor="middle"><tspan>V = ∞</tspan></text>
<text x="548" y="82" font-family="'Inter',-apple-system,'Helvetica Neue',sans-serif" font-size="14" fill="#545454" text-anchor="middle"><tspan>V = ∞</tspan></text>
<line x1="120.00" y1="420.00" x2="120.00" y2="425.00" stroke="#2a1a0e" stroke-width="1"/>
<text x="120" y="442" font-family="'JetBrains Mono','Fira Code','Courier New',monospace" font-size="13" fill="#545454" text-anchor="middle"><tspan>0</tspan></text>
<line x1="334.00" y1="420.00" x2="334.00" y2="425.00" stroke="#2a1a0e" stroke-width="1"/>
<text x="334.0" y="442" font-family="'JetBrains Mono','Fira Code','Courier New',monospace" font-size="13" fill="#545454" text-anchor="middle"><tspan>L/2</tspan></text>
<line x1="548.00" y1="420.00" x2="548.00" y2="425.00" stroke="#2a1a0e" stroke-width="1"/>
<text x="548" y="442" font-family="'JetBrains Mono','Fira Code','Courier New',monospace" font-size="13" fill="#545454" text-anchor="middle"><tspan>L</tspan></text>
<text x="340" y="466" font-family="'Inter',-apple-system,'Helvetica Neue',sans-serif" font-size="15" fill="#2a1a0e" text-anchor="middle"><tspan>position  x</tspan></text>
<text x="30" y="255" font-family="'Inter',-apple-system,'Helvetica Neue',sans-serif" font-size="15" fill="#2a1a0e" text-anchor="middle" transform="rotate(-90, 30, 255)"><tspan>energy  E</tspan><tspan dy="2.40" font-size="10.80">n</tspan><tspan dy="-2.40">  /  E</tspan><tspan dy="2.40" font-size="10.80">1</tspan></text>
<text x="108" y="412.0" font-family="'JetBrains Mono','Fira Code','Courier New',monospace" font-size="12" fill="#545454" text-anchor="end"><tspan>1</tspan></text>
<text x="108" y="376.0" font-family="'JetBrains Mono','Fira Code','Courier New',monospace" font-size="12" fill="#545454" text-anchor="end"><tspan>4</tspan></text>
<text x="108" y="316.0" font-family="'JetBrains Mono','Fira Code','Courier New',monospace" font-size="12" fill="#545454" text-anchor="end"><tspan>9</tspan></text>
<text x="108" y="232.0" font-family="'JetBrains Mono','Fira Code','Courier New',monospace" font-size="12" fill="#545454" text-anchor="end"><tspan>16</tspan></text>
<text x="108" y="124.0" font-family="'JetBrains Mono','Fira Code','Courier New',monospace" font-size="12" fill="#545454" text-anchor="end"><tspan>25</tspan></text>
<line x1="120.00" y1="408.00" x2="548.00" y2="408.00" stroke="#D4D4D4" stroke-width="0.75" stroke-dasharray="5 4"/>
<path d="M 120.00 408.00 L 121.78 407.82 L 123.57 407.63 L 125.35 407.45 L 127.13 407.27 L 128.92 407.08 L 130.70 406.90 L 132.48 406.72 L 134.27 406.54 L 136.05 406.35 L 137.83 406.17 L 139.62 405.99 L 141.40 405.81 L 143.18 405.63 L 144.97 405.45 L 146.75 405.27 L 148.53 405.09 L 150.32 404.91 L 152.10 404.73 L 153.88 404.55 L 155.67 404.38 L 157.45 404.20 L 159.23 404.02 L 161.02 403.85 L 162.80 403.67 L 164.58 403.50 L 166.37 403.33 L 168.15 403.15 L 169.93 402.98 L 171.72 402.81 L 173.50 402.64 L 175.28 402.47 L 177.07 402.31 L 178.85 402.14 L 180.63 401.97 L 182.42 401.81 L 184.20 401.64 L 185.98 401.48 L 187.77 401.32 L 189.55 401.16 L 191.33 401.00 L 193.12 400.84 L 194.90 400.69 L 196.68 400.53 L 198.47 400.38 L 200.25 400.22 L 202.03 400.07 L 203.82 399.92 L 205.60 399.77 L 207.38 399.62 L 209.17 399.48 L 210.95 399.33 L 212.73 399.19 L 214.52 399.05 L 216.30 398.91 L 218.08 398.77 L 219.87 398.63 L 221.65 398.50 L 223.43 398.36 L 225.22 398.23 L 227.00 398.10 L 228.78 397.97 L 230.57 397.84 L 232.35 397.72 L 234.13 397.60 L 235.92 397.47 L 237.70 397.35 L 239.48 397.24 L 241.27 397.12 L 243.05 397.01 L 244.83 396.89 L 246.62 396.78 L 248.40 396.67 L 250.18 396.57 L 251.97 396.46 L 253.75 396.36 L 255.53 396.26 L 257.32 396.16 L 259.10 396.06 L 260.88 395.97 L 262.67 395.88 L 264.45 395.79 L 266.23 395.70 L 268.02 395.61 L 269.80 395.53 L 271.58 395.44 L 273.37 395.36 L 275.15 395.29 L 276.93 395.21 L 278.72 395.14 L 280.50 395.07 L 282.28 395.00 L 284.07 394.93 L 285.85 394.87 L 287.63 394.80 L 289.42 394.74 L 291.20 394.69 L 292.98 394.63 L 294.77 394.58 L 296.55 394.53 L 298.33 394.48 L 300.12 394.43 L 301.90 394.39 L 303.68 394.35 L 305.47 394.31 L 307.25 394.27 L 309.03 394.23 L 310.82 394.20 L 312.60 394.17 L 314.38 394.14 L 316.17 394.12 L 317.95 394.10 L 319.73 394.08 L 321.52 394.06 L 323.30 394.04 L 325.08 394.03 L 326.87 394.02 L 328.65 394.01 L 330.43 394.00 L 332.22 394.00 L 334.00 394.00 L 335.78 394.00 L 337.57 394.00 L 339.35 394.01 L 341.13 394.02 L 342.92 394.03 L 344.70 394.04 L 346.48 394.06 L 348.27 394.08 L 350.05 394.10 L 351.83 394.12 L 353.62 394.14 L 355.40 394.17 L 357.18 394.20 L 358.97 394.23 L 360.75 394.27 L 362.53 394.31 L 364.32 394.35 L 366.10 394.39 L 367.88 394.43 L 369.67 394.48 L 371.45 394.53 L 373.23 394.58 L 375.02 394.63 L 376.80 394.69 L 378.58 394.74 L 380.37 394.80 L 382.15 394.87 L 383.93 394.93 L 385.72 395.00 L 387.50 395.07 L 389.28 395.14 L 391.07 395.21 L 392.85 395.29 L 394.63 395.36 L 396.42 395.44 L 398.20 395.53 L 399.98 395.61 L 401.77 395.70 L 403.55 395.79 L 405.33 395.88 L 407.12 395.97 L 408.90 396.06 L 410.68 396.16 L 412.47 396.26 L 414.25 396.36 L 416.03 396.46 L 417.82 396.57 L 419.60 396.67 L 421.38 396.78 L 423.17 396.89 L 424.95 397.01 L 426.73 397.12 L 428.52 397.24 L 430.30 397.35 L 432.08 397.47 L 433.87 397.60 L 435.65 397.72 L 437.43 397.84 L 439.22 397.97 L 441.00 398.10 L 442.78 398.23 L 444.57 398.36 L 446.35 398.50 L 448.13 398.63 L 449.92 398.77 L 451.70 398.91 L 453.48 399.05 L 455.27 399.19 L 457.05 399.33 L 458.83 399.48 L 460.62 399.62 L 462.40 399.77 L 464.18 399.92 L 465.97 400.07 L 467.75 400.22 L 469.53 400.38 L 471.32 400.53 L 473.10 400.69 L 474.88 400.84 L 476.67 401.00 L 478.45 401.16 L 480.23 401.32 L 482.02 401.48 L 483.80 401.64 L 485.58 401.81 L 487.37 401.97 L 489.15 402.14 L 490.93 402.31 L 492.72 402.47 L 494.50 402.64 L 496.28 402.81 L 498.07 402.98 L 499.85 403.15 L 501.63 403.33 L 503.42 403.50 L 505.20 403.67 L 506.98 403.85 L 508.77 404.02 L 510.55 404.20 L 512.33 404.38 L 514.12 404.55 L 515.90 404.73 L 517.68 404.91 L 519.47 405.09 L 521.25 405.27 L 523.03 405.45 L 524.82 405.63 L 526.60 405.81 L 528.38 405.99 L 530.17 406.17 L 531.95 406.35 L 533.73 406.54 L 535.52 406.72 L 537.30 406.90 L 539.08 407.08 L 540.87 407.27 L 542.65 407.45 L 544.43 407.63 L 546.22 407.82 L 548.00 408.00" fill="none" stroke="#0072B2" stroke-width="2.2"/>
<text x="558" y="412.0" font-family="'JetBrains Mono','Fira Code','Courier New',monospace" font-size="13" fill="#0072B2" text-anchor="start"><tspan>E</tspan><tspan dy="2.08" font-size="9.36">1</tspan></text>
<line x1="120.00" y1="372.00" x2="548.00" y2="372.00" stroke="#D4D4D4" stroke-width="0.75" stroke-dasharray="5 4"/>
<path d="M 120.00 372.00 L 121.78 371.63 L 123.57 371.27 L 125.35 370.90 L 127.13 370.54 L 128.92 370.17 L 130.70 369.81 L 132.48 369.45 L 134.27 369.09 L 136.05 368.73 L 137.83 368.38 L 139.62 368.02 L 141.40 367.67 L 143.18 367.33 L 144.97 366.98 L 146.75 366.64 L 148.53 366.31 L 150.32 365.97 L 152.10 365.64 L 153.88 365.32 L 155.67 365.00 L 157.45 364.69 L 159.23 364.38 L 161.02 364.07 L 162.80 363.77 L 164.58 363.48 L 166.37 363.19 L 168.15 362.91 L 169.93 362.63 L 171.72 362.36 L 173.50 362.10 L 175.28 361.84 L 177.07 361.60 L 178.85 361.35 L 180.63 361.12 L 182.42 360.89 L 184.20 360.67 L 185.98 360.46 L 187.77 360.26 L 189.55 360.06 L 191.33 359.88 L 193.12 359.70 L 194.90 359.53 L 196.68 359.36 L 198.47 359.21 L 200.25 359.07 L 202.03 358.93 L 203.82 358.80 L 205.60 358.69 L 207.38 358.58 L 209.17 358.48 L 210.95 358.39 L 212.73 358.31 L 214.52 358.23 L 216.30 358.17 L 218.08 358.12 L 219.87 358.08 L 221.65 358.04 L 223.43 358.02 L 225.22 358.00 L 227.00 358.00 L 228.78 358.00 L 230.57 358.02 L 232.35 358.04 L 234.13 358.08 L 235.92 358.12 L 237.70 358.17 L 239.48 358.23 L 241.27 358.31 L 243.05 358.39 L 244.83 358.48 L 246.62 358.58 L 248.40 358.69 L 250.18 358.80 L 251.97 358.93 L 253.75 359.07 L 255.53 359.21 L 257.32 359.36 L 259.10 359.53 L 260.88 359.70 L 262.67 359.88 L 264.45 360.06 L 266.23 360.26 L 268.02 360.46 L 269.80 360.67 L 271.58 360.89 L 273.37 361.12 L 275.15 361.35 L 276.93 361.60 L 278.72 361.84 L 280.50 362.10 L 282.28 362.36 L 284.07 362.63 L 285.85 362.91 L 287.63 363.19 L 289.42 363.48 L 291.20 363.77 L 292.98 364.07 L 294.77 364.38 L 296.55 364.69 L 298.33 365.00 L 300.12 365.32 L 301.90 365.64 L 303.68 365.97 L 305.47 366.31 L 307.25 366.64 L 309.03 366.98 L 310.82 367.33 L 312.60 367.67 L 314.38 368.02 L 316.17 368.38 L 317.95 368.73 L 319.73 369.09 L 321.52 369.45 L 323.30 369.81 L 325.08 370.17 L 326.87 370.54 L 328.65 370.90 L 330.43 371.27 L 332.22 371.63 L 334.00 372.00 L 335.78 372.37 L 337.57 372.73 L 339.35 373.10 L 341.13 373.46 L 342.92 373.83 L 344.70 374.19 L 346.48 374.55 L 348.27 374.91 L 350.05 375.27 L 351.83 375.62 L 353.62 375.98 L 355.40 376.33 L 357.18 376.67 L 358.97 377.02 L 360.75 377.36 L 362.53 377.69 L 364.32 378.03 L 366.10 378.36 L 367.88 378.68 L 369.67 379.00 L 371.45 379.31 L 373.23 379.62 L 375.02 379.93 L 376.80 380.23 L 378.58 380.52 L 380.37 380.81 L 382.15 381.09 L 383.93 381.37 L 385.72 381.64 L 387.50 381.90 L 389.28 382.16 L 391.07 382.40 L 392.85 382.65 L 394.63 382.88 L 396.42 383.11 L 398.20 383.33 L 399.98 383.54 L 401.77 383.74 L 403.55 383.94 L 405.33 384.12 L 407.12 384.30 L 408.90 384.47 L 410.68 384.64 L 412.47 384.79 L 414.25 384.93 L 416.03 385.07 L 417.82 385.20 L 419.60 385.31 L 421.38 385.42 L 423.17 385.52 L 424.95 385.61 L 426.73 385.69 L 428.52 385.77 L 430.30 385.83 L 432.08 385.88 L 433.87 385.92 L 435.65 385.96 L 437.43 385.98 L 439.22 386.00 L 441.00 386.00 L 442.78 386.00 L 444.57 385.98 L 446.35 385.96 L 448.13 385.92 L 449.92 385.88 L 451.70 385.83 L 453.48 385.77 L 455.27 385.69 L 457.05 385.61 L 458.83 385.52 L 460.62 385.42 L 462.40 385.31 L 464.18 385.20 L 465.97 385.07 L 467.75 384.93 L 469.53 384.79 L 471.32 384.64 L 473.10 384.47 L 474.88 384.30 L 476.67 384.12 L 478.45 383.94 L 480.23 383.74 L 482.02 383.54 L 483.80 383.33 L 485.58 383.11 L 487.37 382.88 L 489.15 382.65 L 490.93 382.40 L 492.72 382.16 L 494.50 381.90 L 496.28 381.64 L 498.07 381.37 L 499.85 381.09 L 501.63 380.81 L 503.42 380.52 L 505.20 380.23 L 506.98 379.93 L 508.77 379.62 L 510.55 379.31 L 512.33 379.00 L 514.12 378.68 L 515.90 378.36 L 517.68 378.03 L 519.47 377.69 L 521.25 377.36 L 523.03 377.02 L 524.82 376.67 L 526.60 376.33 L 528.38 375.98 L 530.17 375.62 L 531.95 375.27 L 533.73 374.91 L 535.52 374.55 L 537.30 374.19 L 539.08 373.83 L 540.87 373.46 L 542.65 373.10 L 544.43 372.73 L 546.22 372.37 L 548.00 372.00" fill="none" stroke="#D55E00" stroke-width="2.2"/>
<text x="558" y="376.0" font-family="'JetBrains Mono','Fira Code','Courier New',monospace" font-size="13" fill="#D55E00" text-anchor="start"><tspan>E</tspan><tspan dy="2.08" font-size="9.36">2</tspan><tspan dy="-2.08"> = 4E</tspan><tspan dy="2.08" font-size="9.36">1</tspan></text>
<line x1="120.00" y1="312.00" x2="548.00" y2="312.00" stroke="#D4D4D4" stroke-width="0.75" stroke-dasharray="5 4"/>
<path d="M 120.00 312.00 L 121.78 311.45 L 123.57 310.90 L 125.35 310.35 L 127.13 309.81 L 128.92 309.27 L 130.70 308.73 L 132.48 308.20 L 134.27 307.67 L 136.05 307.15 L 137.83 306.64 L 139.62 306.14 L 141.40 305.64 L 143.18 305.16 L 144.97 304.69 L 146.75 304.22 L 148.53 303.77 L 150.32 303.33 L 152.10 302.91 L 153.88 302.50 L 155.67 302.10 L 157.45 301.72 L 159.23 301.35 L 161.02 301.01 L 162.80 300.67 L 164.58 300.36 L 166.37 300.06 L 168.15 299.79 L 169.93 299.53 L 171.72 299.29 L 173.50 299.07 L 175.28 298.87 L 177.07 298.69 L 178.85 298.53 L 180.63 298.39 L 182.42 298.27 L 184.20 298.17 L 185.98 298.10 L 187.77 298.04 L 189.55 298.01 L 191.33 298.00 L 193.12 298.01 L 194.90 298.04 L 196.68 298.10 L 198.47 298.17 L 200.25 298.27 L 202.03 298.39 L 203.82 298.53 L 205.60 298.69 L 207.38 298.87 L 209.17 299.07 L 210.95 299.29 L 212.73 299.53 L 214.52 299.79 L 216.30 300.06 L 218.08 300.36 L 219.87 300.67 L 221.65 301.01 L 223.43 301.35 L 225.22 301.72 L 227.00 302.10 L 228.78 302.50 L 230.57 302.91 L 232.35 303.33 L 234.13 303.77 L 235.92 304.22 L 237.70 304.69 L 239.48 305.16 L 241.27 305.64 L 243.05 306.14 L 244.83 306.64 L 246.62 307.15 L 248.40 307.67 L 250.18 308.20 L 251.97 308.73 L 253.75 309.27 L 255.53 309.81 L 257.32 310.35 L 259.10 310.90 L 260.88 311.45 L 262.67 312.00 L 264.45 312.55 L 266.23 313.10 L 268.02 313.65 L 269.80 314.19 L 271.58 314.73 L 273.37 315.27 L 275.15 315.80 L 276.93 316.33 L 278.72 316.85 L 280.50 317.36 L 282.28 317.86 L 284.07 318.36 L 285.85 318.84 L 287.63 319.31 L 289.42 319.78 L 291.20 320.23 L 292.98 320.67 L 294.77 321.09 L 296.55 321.50 L 298.33 321.90 L 300.12 322.28 L 301.90 322.65 L 303.68 322.99 L 305.47 323.33 L 307.25 323.64 L 309.03 323.94 L 310.82 324.21 L 312.60 324.47 L 314.38 324.71 L 316.17 324.93 L 317.95 325.13 L 319.73 325.31 L 321.52 325.47 L 323.30 325.61 L 325.08 325.73 L 326.87 325.83 L 328.65 325.90 L 330.43 325.96 L 332.22 325.99 L 334.00 326.00 L 335.78 325.99 L 337.57 325.96 L 339.35 325.90 L 341.13 325.83 L 342.92 325.73 L 344.70 325.61 L 346.48 325.47 L 348.27 325.31 L 350.05 325.13 L 351.83 324.93 L 353.62 324.71 L 355.40 324.47 L 357.18 324.21 L 358.97 323.94 L 360.75 323.64 L 362.53 323.33 L 364.32 322.99 L 366.10 322.65 L 367.88 322.28 L 369.67 321.90 L 371.45 321.50 L 373.23 321.09 L 375.02 320.67 L 376.80 320.23 L 378.58 319.78 L 380.37 319.31 L 382.15 318.84 L 383.93 318.36 L 385.72 317.86 L 387.50 317.36 L 389.28 316.85 L 391.07 316.33 L 392.85 315.80 L 394.63 315.27 L 396.42 314.73 L 398.20 314.19 L 399.98 313.65 L 401.77 313.10 L 403.55 312.55 L 405.33 312.00 L 407.12 311.45 L 408.90 310.90 L 410.68 310.35 L 412.47 309.81 L 414.25 309.27 L 416.03 308.73 L 417.82 308.20 L 419.60 307.67 L 421.38 307.15 L 423.17 306.64 L 424.95 306.14 L 426.73 305.64 L 428.52 305.16 L 430.30 304.69 L 432.08 304.22 L 433.87 303.77 L 435.65 303.33 L 437.43 302.91 L 439.22 302.50 L 441.00 302.10 L 442.78 301.72 L 444.57 301.35 L 446.35 301.01 L 448.13 300.67 L 449.92 300.36 L 451.70 300.06 L 453.48 299.79 L 455.27 299.53 L 457.05 299.29 L 458.83 299.07 L 460.62 298.87 L 462.40 298.69 L 464.18 298.53 L 465.97 298.39 L 467.75 298.27 L 469.53 298.17 L 471.32 298.10 L 473.10 298.04 L 474.88 298.01 L 476.67 298.00 L 478.45 298.01 L 480.23 298.04 L 482.02 298.10 L 483.80 298.17 L 485.58 298.27 L 487.37 298.39 L 489.15 298.53 L 490.93 298.69 L 492.72 298.87 L 494.50 299.07 L 496.28 299.29 L 498.07 299.53 L 499.85 299.79 L 501.63 300.06 L 503.42 300.36 L 505.20 300.67 L 506.98 301.01 L 508.77 301.35 L 510.55 301.72 L 512.33 302.10 L 514.12 302.50 L 515.90 302.91 L 517.68 303.33 L 519.47 303.77 L 521.25 304.22 L 523.03 304.69 L 524.82 305.16 L 526.60 305.64 L 528.38 306.14 L 530.17 306.64 L 531.95 307.15 L 533.73 307.67 L 535.52 308.20 L 537.30 308.73 L 539.08 309.27 L 540.87 309.81 L 542.65 310.35 L 544.43 310.90 L 546.22 311.45 L 548.00 312.00" fill="none" stroke="#009E73" stroke-width="2.2"/>
<text x="558" y="316.0" font-family="'JetBrains Mono','Fira Code','Courier New',monospace" font-size="13" fill="#009E73" text-anchor="start"><tspan>E</tspan><tspan dy="2.08" font-size="9.36">3</tspan><tspan dy="-2.08"> = 9E</tspan><tspan dy="2.08" font-size="9.36">1</tspan></text>
<line x1="120.00" y1="228.00" x2="548.00" y2="228.00" stroke="#D4D4D4" stroke-width="0.75" stroke-dasharray="5 4"/>
<path d="M 120.00 228.00 L 121.78 227.27 L 123.57 226.54 L 125.35 225.81 L 127.13 225.09 L 128.92 224.38 L 130.70 223.67 L 132.48 222.98 L 134.27 222.31 L 136.05 221.64 L 137.83 221.00 L 139.62 220.38 L 141.40 219.77 L 143.18 219.19 L 144.97 218.63 L 146.75 218.10 L 148.53 217.60 L 150.32 217.12 L 152.10 216.67 L 153.88 216.26 L 155.67 215.88 L 157.45 215.53 L 159.23 215.21 L 161.02 214.93 L 162.80 214.69 L 164.58 214.48 L 166.37 214.31 L 168.15 214.17 L 169.93 214.08 L 171.72 214.02 L 173.50 214.00 L 175.28 214.02 L 177.07 214.08 L 178.85 214.17 L 180.63 214.31 L 182.42 214.48 L 184.20 214.69 L 185.98 214.93 L 187.77 215.21 L 189.55 215.53 L 191.33 215.88 L 193.12 216.26 L 194.90 216.67 L 196.68 217.12 L 198.47 217.60 L 200.25 218.10 L 202.03 218.63 L 203.82 219.19 L 205.60 219.77 L 207.38 220.38 L 209.17 221.00 L 210.95 221.64 L 212.73 222.31 L 214.52 222.98 L 216.30 223.67 L 218.08 224.38 L 219.87 225.09 L 221.65 225.81 L 223.43 226.54 L 225.22 227.27 L 227.00 228.00 L 228.78 228.73 L 230.57 229.46 L 232.35 230.19 L 234.13 230.91 L 235.92 231.62 L 237.70 232.33 L 239.48 233.02 L 241.27 233.69 L 243.05 234.36 L 244.83 235.00 L 246.62 235.62 L 248.40 236.23 L 250.18 236.81 L 251.97 237.37 L 253.75 237.90 L 255.53 238.40 L 257.32 238.88 L 259.10 239.33 L 260.88 239.74 L 262.67 240.12 L 264.45 240.47 L 266.23 240.79 L 268.02 241.07 L 269.80 241.31 L 271.58 241.52 L 273.37 241.69 L 275.15 241.83 L 276.93 241.92 L 278.72 241.98 L 280.50 242.00 L 282.28 241.98 L 284.07 241.92 L 285.85 241.83 L 287.63 241.69 L 289.42 241.52 L 291.20 241.31 L 292.98 241.07 L 294.77 240.79 L 296.55 240.47 L 298.33 240.12 L 300.12 239.74 L 301.90 239.33 L 303.68 238.88 L 305.47 238.40 L 307.25 237.90 L 309.03 237.37 L 310.82 236.81 L 312.60 236.23 L 314.38 235.62 L 316.17 235.00 L 317.95 234.36 L 319.73 233.69 L 321.52 233.02 L 323.30 232.33 L 325.08 231.62 L 326.87 230.91 L 328.65 230.19 L 330.43 229.46 L 332.22 228.73 L 334.00 228.00 L 335.78 227.27 L 337.57 226.54 L 339.35 225.81 L 341.13 225.09 L 342.92 224.38 L 344.70 223.67 L 346.48 222.98 L 348.27 222.31 L 350.05 221.64 L 351.83 221.00 L 353.62 220.38 L 355.40 219.77 L 357.18 219.19 L 358.97 218.63 L 360.75 218.10 L 362.53 217.60 L 364.32 217.12 L 366.10 216.67 L 367.88 216.26 L 369.67 215.88 L 371.45 215.53 L 373.23 215.21 L 375.02 214.93 L 376.80 214.69 L 378.58 214.48 L 380.37 214.31 L 382.15 214.17 L 383.93 214.08 L 385.72 214.02 L 387.50 214.00 L 389.28 214.02 L 391.07 214.08 L 392.85 214.17 L 394.63 214.31 L 396.42 214.48 L 398.20 214.69 L 399.98 214.93 L 401.77 215.21 L 403.55 215.53 L 405.33 215.88 L 407.12 216.26 L 408.90 216.67 L 410.68 217.12 L 412.47 217.60 L 414.25 218.10 L 416.03 218.63 L 417.82 219.19 L 419.60 219.77 L 421.38 220.38 L 423.17 221.00 L 424.95 221.64 L 426.73 222.31 L 428.52 222.98 L 430.30 223.67 L 432.08 224.38 L 433.87 225.09 L 435.65 225.81 L 437.43 226.54 L 439.22 227.27 L 441.00 228.00 L 442.78 228.73 L 444.57 229.46 L 446.35 230.19 L 448.13 230.91 L 449.92 231.62 L 451.70 232.33 L 453.48 233.02 L 455.27 233.69 L 457.05 234.36 L 458.83 235.00 L 460.62 235.62 L 462.40 236.23 L 464.18 236.81 L 465.97 237.37 L 467.75 237.90 L 469.53 238.40 L 471.32 238.88 L 473.10 239.33 L 474.88 239.74 L 476.67 240.12 L 478.45 240.47 L 480.23 240.79 L 482.02 241.07 L 483.80 241.31 L 485.58 241.52 L 487.37 241.69 L 489.15 241.83 L 490.93 241.92 L 492.72 241.98 L 494.50 242.00 L 496.28 241.98 L 498.07 241.92 L 499.85 241.83 L 501.63 241.69 L 503.42 241.52 L 505.20 241.31 L 506.98 241.07 L 508.77 240.79 L 510.55 240.47 L 512.33 240.12 L 514.12 239.74 L 515.90 239.33 L 517.68 238.88 L 519.47 238.40 L 521.25 237.90 L 523.03 237.37 L 524.82 236.81 L 526.60 236.23 L 528.38 235.62 L 530.17 235.00 L 531.95 234.36 L 533.73 233.69 L 535.52 233.02 L 537.30 232.33 L 539.08 231.62 L 540.87 230.91 L 542.65 230.19 L 544.43 229.46 L 546.22 228.73 L 548.00 228.00" fill="none" stroke="#BF7400" stroke-width="2.2"/>
<text x="558" y="232.0" font-family="'JetBrains Mono','Fira Code','Courier New',monospace" font-size="13" fill="#BF7400" text-anchor="start"><tspan>E</tspan><tspan dy="2.08" font-size="9.36">4</tspan><tspan dy="-2.08"> = 16E</tspan><tspan dy="2.08" font-size="9.36">1</tspan></text>
<line x1="120.00" y1="120.00" x2="548.00" y2="120.00" stroke="#D4D4D4" stroke-width="0.75" stroke-dasharray="5 4"/>
<path d="M 120.00 120.00 L 121.78 119.08 L 123.57 118.17 L 125.35 117.27 L 127.13 116.38 L 128.92 115.50 L 130.70 114.64 L 132.48 113.81 L 134.27 113.00 L 136.05 112.22 L 137.83 111.48 L 139.62 110.77 L 141.40 110.10 L 143.18 109.47 L 144.97 108.89 L 146.75 108.36 L 148.53 107.88 L 150.32 107.44 L 152.10 107.07 L 153.88 106.74 L 155.67 106.48 L 157.45 106.27 L 159.23 106.12 L 161.02 106.03 L 162.80 106.00 L 164.58 106.03 L 166.37 106.12 L 168.15 106.27 L 169.93 106.48 L 171.72 106.74 L 173.50 107.07 L 175.28 107.44 L 177.07 107.88 L 178.85 108.36 L 180.63 108.89 L 182.42 109.47 L 184.20 110.10 L 185.98 110.77 L 187.77 111.48 L 189.55 112.22 L 191.33 113.00 L 193.12 113.81 L 194.90 114.64 L 196.68 115.50 L 198.47 116.38 L 200.25 117.27 L 202.03 118.17 L 203.82 119.08 L 205.60 120.00 L 207.38 120.92 L 209.17 121.83 L 210.95 122.73 L 212.73 123.62 L 214.52 124.50 L 216.30 125.36 L 218.08 126.19 L 219.87 127.00 L 221.65 127.78 L 223.43 128.52 L 225.22 129.23 L 227.00 129.90 L 228.78 130.53 L 230.57 131.11 L 232.35 131.64 L 234.13 132.12 L 235.92 132.56 L 237.70 132.93 L 239.48 133.26 L 241.27 133.52 L 243.05 133.73 L 244.83 133.88 L 246.62 133.97 L 248.40 134.00 L 250.18 133.97 L 251.97 133.88 L 253.75 133.73 L 255.53 133.52 L 257.32 133.26 L 259.10 132.93 L 260.88 132.56 L 262.67 132.12 L 264.45 131.64 L 266.23 131.11 L 268.02 130.53 L 269.80 129.90 L 271.58 129.23 L 273.37 128.52 L 275.15 127.78 L 276.93 127.00 L 278.72 126.19 L 280.50 125.36 L 282.28 124.50 L 284.07 123.62 L 285.85 122.73 L 287.63 121.83 L 289.42 120.92 L 291.20 120.00 L 292.98 119.08 L 294.77 118.17 L 296.55 117.27 L 298.33 116.38 L 300.12 115.50 L 301.90 114.64 L 303.68 113.81 L 305.47 113.00 L 307.25 112.22 L 309.03 111.48 L 310.82 110.77 L 312.60 110.10 L 314.38 109.47 L 316.17 108.89 L 317.95 108.36 L 319.73 107.88 L 321.52 107.44 L 323.30 107.07 L 325.08 106.74 L 326.87 106.48 L 328.65 106.27 L 330.43 106.12 L 332.22 106.03 L 334.00 106.00 L 335.78 106.03 L 337.57 106.12 L 339.35 106.27 L 341.13 106.48 L 342.92 106.74 L 344.70 107.07 L 346.48 107.44 L 348.27 107.88 L 350.05 108.36 L 351.83 108.89 L 353.62 109.47 L 355.40 110.10 L 357.18 110.77 L 358.97 111.48 L 360.75 112.22 L 362.53 113.00 L 364.32 113.81 L 366.10 114.64 L 367.88 115.50 L 369.67 116.38 L 371.45 117.27 L 373.23 118.17 L 375.02 119.08 L 376.80 120.00 L 378.58 120.92 L 380.37 121.83 L 382.15 122.73 L 383.93 123.62 L 385.72 124.50 L 387.50 125.36 L 389.28 126.19 L 391.07 127.00 L 392.85 127.78 L 394.63 128.52 L 396.42 129.23 L 398.20 129.90 L 399.98 130.53 L 401.77 131.11 L 403.55 131.64 L 405.33 132.12 L 407.12 132.56 L 408.90 132.93 L 410.68 133.26 L 412.47 133.52 L 414.25 133.73 L 416.03 133.88 L 417.82 133.97 L 419.60 134.00 L 421.38 133.97 L 423.17 133.88 L 424.95 133.73 L 426.73 133.52 L 428.52 133.26 L 430.30 132.93 L 432.08 132.56 L 433.87 132.12 L 435.65 131.64 L 437.43 131.11 L 439.22 130.53 L 441.00 129.90 L 442.78 129.23 L 444.57 128.52 L 446.35 127.78 L 448.13 127.00 L 449.92 126.19 L 451.70 125.36 L 453.48 124.50 L 455.27 123.62 L 457.05 122.73 L 458.83 121.83 L 460.62 120.92 L 462.40 120.00 L 464.18 119.08 L 465.97 118.17 L 467.75 117.27 L 469.53 116.38 L 471.32 115.50 L 473.10 114.64 L 474.88 113.81 L 476.67 113.00 L 478.45 112.22 L 480.23 111.48 L 482.02 110.77 L 483.80 110.10 L 485.58 109.47 L 487.37 108.89 L 489.15 108.36 L 490.93 107.88 L 492.72 107.44 L 494.50 107.07 L 496.28 106.74 L 498.07 106.48 L 499.85 106.27 L 501.63 106.12 L 503.42 106.03 L 505.20 106.00 L 506.98 106.03 L 508.77 106.12 L 510.55 106.27 L 512.33 106.48 L 514.12 106.74 L 515.90 107.07 L 517.68 107.44 L 519.47 107.88 L 521.25 108.36 L 523.03 108.89 L 524.82 109.47 L 526.60 110.10 L 528.38 110.77 L 530.17 111.48 L 531.95 112.22 L 533.73 113.00 L 535.52 113.81 L 537.30 114.64 L 539.08 115.50 L 540.87 116.38 L 542.65 117.27 L 544.43 118.17 L 546.22 119.08 L 548.00 120.00" fill="none" stroke="#CC79A7" stroke-width="2.2"/>
<text x="558" y="124.0" font-family="'JetBrains Mono','Fira Code','Courier New',monospace" font-size="13" fill="#CC79A7" text-anchor="start"><tspan>E</tspan><tspan dy="2.08" font-size="9.36">5</tspan><tspan dy="-2.08"> = 25E</tspan><tspan dy="2.08" font-size="9.36">1</tspan></text>
</svg>
