<!-- CAJAL SVG Figure
     Book-slug: quantum-mechanics-vol1
     Chapter: 05-the-infinite-square-well
     Figure: 04 — Probability sloshes, energy stays constant
     Type: plot  Author: Humanitarians AI Incorporated  Date-generated: 2026-06-22
-->
<svg viewBox="0 0 700 560" xmlns="http://www.w3.org/2000/svg" role="img" aria-labelledby="ttl-0504">
<title id="ttl-0504">An equal mix of the two lowest states: probability sloshes while energy stays constant</title>
<desc>Top: the probability density of the equal mix of the two lowest states at three times in one period. At t=0 the density is heaped on the left, at t=T/2 on the right, at t=T/4 it is symmetric; t=3T/4 retraces the T/4 curve. Bottom left: the average position oscillates between 0.32L and 0.68L. Bottom right: the average energy is constant at about 0.94 eV.</desc>
<metadata><cajal:figure xmlns:cajal="https://bearbrown.ai/cajal/1.0" book-slug="quantum-mechanics-vol1" chapter="05-the-infinite-square-well" figure-number="04" figure-title="Probability sloshes, energy stays constant" figure-slug="infinite-well-sloshing" figure-type="plot" priority="Important" author="Humanitarians AI Incorporated" date-generated="2026-06-22" source-file="pantry/05-the-infinite-square-well-cajal.md"/></metadata>
<text x="350" y="32" font-family="'EB Garamond','Garamond',Georgia,serif" font-size="18" fill="#2a1a0e" text-anchor="middle"><tspan>Probability sloshes, energy stays put: the mix (ψ</tspan><tspan dy="2.88" font-size="12.96">1</tspan><tspan dy="-2.88">+ψ</tspan><tspan dy="2.88" font-size="12.96">2</tspan><tspan dy="-2.88">)/√2</tspan></text>
<rect x="64" y="58" width="596" height="192" fill="#F5F5F5" stroke="#D4D4D4" stroke-width="0.75"/>
<path d="M 64.00 250.00 L 66.48 249.92 L 68.97 249.67 L 71.45 249.26 L 73.93 248.68 L 76.42 247.95 L 78.90 247.05 L 81.38 245.99 L 83.87 244.77 L 86.35 243.41 L 88.83 241.89 L 91.32 240.22 L 93.80 238.40 L 96.28 236.45 L 98.77 234.36 L 101.25 232.13 L 103.73 229.78 L 106.22 227.30 L 108.70 224.70 L 111.18 222.00 L 113.67 219.18 L 116.15 216.26 L 118.63 213.24 L 121.12 210.14 L 123.60 206.95 L 126.08 203.68 L 128.57 200.35 L 131.05 196.95 L 133.53 193.49 L 136.02 189.98 L 138.50 186.43 L 140.98 182.84 L 143.47 179.22 L 145.95 175.59 L 148.43 171.93 L 150.92 168.27 L 153.40 164.61 L 155.88 160.96 L 158.37 157.32 L 160.85 153.71 L 163.33 150.12 L 165.82 146.56 L 168.30 143.05 L 170.78 139.59 L 173.27 136.18 L 175.75 132.84 L 178.23 129.57 L 180.72 126.37 L 183.20 123.25 L 185.68 120.21 L 188.17 117.27 L 190.65 114.43 L 193.13 111.69 L 195.62 109.06 L 198.10 106.54 L 200.58 104.13 L 203.07 101.85 L 205.55 99.69 L 208.03 97.67 L 210.52 95.77 L 213.00 94.01 L 215.48 92.39 L 217.97 90.91 L 220.45 89.57 L 222.93 88.38 L 225.42 87.33 L 227.90 86.43 L 230.38 85.68 L 232.87 85.08 L 235.35 84.63 L 237.83 84.33 L 240.32 84.18 L 242.80 84.18 L 245.28 84.33 L 247.77 84.63 L 250.25 85.07 L 252.73 85.66 L 255.22 86.39 L 257.70 87.26 L 260.18 88.27 L 262.67 89.42 L 265.15 90.70 L 267.63 92.11 L 270.12 93.64 L 272.60 95.30 L 275.08 97.08 L 277.57 98.97 L 280.05 100.98 L 282.53 103.09 L 285.02 105.30 L 287.50 107.61 L 289.98 110.01 L 292.47 112.51 L 294.95 115.08 L 297.43 117.73 L 299.92 120.45 L 302.40 123.25 L 304.88 126.10 L 307.37 129.01 L 309.85 131.97 L 312.33 134.97 L 314.82 138.02 L 317.30 141.10 L 319.78 144.21 L 322.27 147.34 L 324.75 150.49 L 327.23 153.65 L 329.72 156.82 L 332.20 160.00 L 334.68 163.17 L 337.17 166.33 L 339.65 169.48 L 342.13 172.61 L 344.62 175.72 L 347.10 178.80 L 349.58 181.85 L 352.07 184.86 L 354.55 187.83 L 357.03 190.76 L 359.52 193.64 L 362.00 196.47 L 364.48 199.25 L 366.97 201.96 L 369.45 204.62 L 371.93 207.21 L 374.42 209.73 L 376.90 212.19 L 379.38 214.57 L 381.87 216.88 L 384.35 219.11 L 386.83 221.27 L 389.32 223.35 L 391.80 225.35 L 394.28 227.26 L 396.77 229.10 L 399.25 230.85 L 401.73 232.52 L 404.22 234.11 L 406.70 235.62 L 409.18 237.04 L 411.67 238.38 L 414.15 239.64 L 416.63 240.82 L 419.12 241.92 L 421.60 242.94 L 424.08 243.88 L 426.57 244.75 L 429.05 245.54 L 431.53 246.26 L 434.02 246.91 L 436.50 247.48 L 438.98 248.00 L 441.47 248.45 L 443.95 248.83 L 446.43 249.16 L 448.92 249.43 L 451.40 249.64 L 453.88 249.80 L 456.37 249.91 L 458.85 249.98 L 461.33 250.00 L 463.82 249.98 L 466.30 249.92 L 468.78 249.83 L 471.27 249.70 L 473.75 249.54 L 476.23 249.36 L 478.72 249.15 L 481.20 248.92 L 483.68 248.67 L 486.17 248.41 L 488.65 248.13 L 491.13 247.84 L 493.62 247.54 L 496.10 247.23 L 498.58 246.93 L 501.07 246.62 L 503.55 246.31 L 506.03 246.00 L 508.52 245.70 L 511.00 245.41 L 513.48 245.12 L 515.97 244.85 L 518.45 244.58 L 520.93 244.33 L 523.42 244.10 L 525.90 243.88 L 528.38 243.67 L 530.87 243.49 L 533.35 243.32 L 535.83 243.17 L 538.32 243.04 L 540.80 242.94 L 543.28 242.85 L 545.77 242.78 L 548.25 242.74 L 550.73 242.72 L 553.22 242.71 L 555.70 242.73 L 558.18 242.77 L 560.67 242.83 L 563.15 242.91 L 565.63 243.00 L 568.12 243.12 L 570.60 243.25 L 573.08 243.40 L 575.57 243.57 L 578.05 243.75 L 580.53 243.94 L 583.02 244.15 L 585.50 244.37 L 587.98 244.59 L 590.47 244.83 L 592.95 245.07 L 595.43 245.33 L 597.92 245.58 L 600.40 245.84 L 602.88 246.10 L 605.37 246.36 L 607.85 246.63 L 610.33 246.89 L 612.82 247.14 L 615.30 247.40 L 617.78 247.64 L 620.27 247.88 L 622.75 248.12 L 625.23 248.34 L 627.72 248.55 L 630.20 248.75 L 632.68 248.94 L 635.17 249.12 L 637.65 249.28 L 640.13 249.43 L 642.62 249.56 L 645.10 249.67 L 647.58 249.77 L 650.07 249.85 L 652.55 249.92 L 655.03 249.96 L 657.52 249.99 L 660.00 250.00" fill="none" stroke="#0072B2" stroke-width="2.4"/>
<path d="M 64.00 250.00 L 66.48 249.95 L 68.97 249.82 L 71.45 249.59 L 73.93 249.27 L 76.42 248.86 L 78.90 248.36 L 81.38 247.77 L 83.87 247.10 L 86.35 246.34 L 88.83 245.50 L 91.32 244.58 L 93.80 243.58 L 96.28 242.50 L 98.77 241.35 L 101.25 240.12 L 103.73 238.83 L 106.22 237.47 L 108.70 236.05 L 111.18 234.57 L 113.67 233.03 L 116.15 231.44 L 118.63 229.80 L 121.12 228.12 L 123.60 226.40 L 126.08 224.63 L 128.57 222.84 L 131.05 221.01 L 133.53 219.16 L 136.02 217.29 L 138.50 215.40 L 140.98 213.49 L 143.47 211.58 L 145.95 209.67 L 148.43 207.75 L 150.92 205.84 L 153.40 203.93 L 155.88 202.04 L 158.37 200.16 L 160.85 198.31 L 163.33 196.47 L 165.82 194.67 L 168.30 192.89 L 170.78 191.15 L 173.27 189.45 L 175.75 187.79 L 178.23 186.17 L 180.72 184.61 L 183.20 183.09 L 185.68 181.63 L 188.17 180.22 L 190.65 178.87 L 193.13 177.59 L 195.62 176.36 L 198.10 175.21 L 200.58 174.11 L 203.07 173.09 L 205.55 172.14 L 208.03 171.26 L 210.52 170.45 L 213.00 169.71 L 215.48 169.05 L 217.97 168.46 L 220.45 167.94 L 222.93 167.50 L 225.42 167.13 L 227.90 166.83 L 230.38 166.61 L 232.87 166.46 L 235.35 166.38 L 237.83 166.37 L 240.32 166.43 L 242.80 166.55 L 245.28 166.74 L 247.77 166.99 L 250.25 167.31 L 252.73 167.68 L 255.22 168.11 L 257.70 168.59 L 260.18 169.13 L 262.67 169.71 L 265.15 170.34 L 267.63 171.01 L 270.12 171.72 L 272.60 172.47 L 275.08 173.25 L 277.57 174.07 L 280.05 174.90 L 282.53 175.77 L 285.02 176.65 L 287.50 177.55 L 289.98 178.46 L 292.47 179.38 L 294.95 180.31 L 297.43 181.24 L 299.92 182.17 L 302.40 183.09 L 304.88 184.01 L 307.37 184.91 L 309.85 185.80 L 312.33 186.68 L 314.82 187.53 L 317.30 188.36 L 319.78 189.16 L 322.27 189.93 L 324.75 190.67 L 327.23 191.38 L 329.72 192.04 L 332.20 192.67 L 334.68 193.26 L 337.17 193.80 L 339.65 194.30 L 342.13 194.74 L 344.62 195.14 L 347.10 195.49 L 349.58 195.79 L 352.07 196.03 L 354.55 196.23 L 357.03 196.36 L 359.52 196.45 L 362.00 196.47 L 364.48 196.45 L 366.97 196.36 L 369.45 196.23 L 371.93 196.03 L 374.42 195.79 L 376.90 195.49 L 379.38 195.14 L 381.87 194.74 L 384.35 194.30 L 386.83 193.80 L 389.32 193.26 L 391.80 192.67 L 394.28 192.04 L 396.77 191.38 L 399.25 190.67 L 401.73 189.93 L 404.22 189.16 L 406.70 188.36 L 409.18 187.53 L 411.67 186.68 L 414.15 185.80 L 416.63 184.91 L 419.12 184.01 L 421.60 183.09 L 424.08 182.17 L 426.57 181.24 L 429.05 180.31 L 431.53 179.38 L 434.02 178.46 L 436.50 177.55 L 438.98 176.65 L 441.47 175.77 L 443.95 174.90 L 446.43 174.07 L 448.92 173.25 L 451.40 172.47 L 453.88 171.72 L 456.37 171.01 L 458.85 170.34 L 461.33 169.71 L 463.82 169.13 L 466.30 168.59 L 468.78 168.11 L 471.27 167.68 L 473.75 167.31 L 476.23 166.99 L 478.72 166.74 L 481.20 166.55 L 483.68 166.43 L 486.17 166.37 L 488.65 166.38 L 491.13 166.46 L 493.62 166.61 L 496.10 166.83 L 498.58 167.13 L 501.07 167.50 L 503.55 167.94 L 506.03 168.46 L 508.52 169.05 L 511.00 169.71 L 513.48 170.45 L 515.97 171.26 L 518.45 172.14 L 520.93 173.09 L 523.42 174.11 L 525.90 175.21 L 528.38 176.36 L 530.87 177.59 L 533.35 178.87 L 535.83 180.22 L 538.32 181.63 L 540.80 183.09 L 543.28 184.61 L 545.77 186.17 L 548.25 187.79 L 550.73 189.45 L 553.22 191.15 L 555.70 192.89 L 558.18 194.67 L 560.67 196.47 L 563.15 198.31 L 565.63 200.16 L 568.12 202.04 L 570.60 203.93 L 573.08 205.84 L 575.57 207.75 L 578.05 209.67 L 580.53 211.58 L 583.02 213.49 L 585.50 215.40 L 587.98 217.29 L 590.47 219.16 L 592.95 221.01 L 595.43 222.84 L 597.92 224.63 L 600.40 226.40 L 602.88 228.12 L 605.37 229.80 L 607.85 231.44 L 610.33 233.03 L 612.82 234.57 L 615.30 236.05 L 617.78 237.47 L 620.27 238.83 L 622.75 240.12 L 625.23 241.35 L 627.72 242.50 L 630.20 243.58 L 632.68 244.58 L 635.17 245.50 L 637.65 246.34 L 640.13 247.10 L 642.62 247.77 L 645.10 248.36 L 647.58 248.86 L 650.07 249.27 L 652.55 249.59 L 655.03 249.82 L 657.52 249.95 L 660.00 250.00" fill="none" stroke="#009E73" stroke-width="2.4"/>
<path d="M 64.00 250.00 L 66.48 249.99 L 68.97 249.96 L 71.45 249.92 L 73.93 249.85 L 76.42 249.77 L 78.90 249.67 L 81.38 249.56 L 83.87 249.43 L 86.35 249.28 L 88.83 249.12 L 91.32 248.94 L 93.80 248.75 L 96.28 248.55 L 98.77 248.34 L 101.25 248.12 L 103.73 247.88 L 106.22 247.64 L 108.70 247.40 L 111.18 247.14 L 113.67 246.89 L 116.15 246.63 L 118.63 246.36 L 121.12 246.10 L 123.60 245.84 L 126.08 245.58 L 128.57 245.33 L 131.05 245.07 L 133.53 244.83 L 136.02 244.59 L 138.50 244.37 L 140.98 244.15 L 143.47 243.94 L 145.95 243.75 L 148.43 243.57 L 150.92 243.40 L 153.40 243.25 L 155.88 243.12 L 158.37 243.00 L 160.85 242.91 L 163.33 242.83 L 165.82 242.77 L 168.30 242.73 L 170.78 242.71 L 173.27 242.72 L 175.75 242.74 L 178.23 242.78 L 180.72 242.85 L 183.20 242.94 L 185.68 243.04 L 188.17 243.17 L 190.65 243.32 L 193.13 243.49 L 195.62 243.67 L 198.10 243.88 L 200.58 244.10 L 203.07 244.33 L 205.55 244.58 L 208.03 244.85 L 210.52 245.12 L 213.00 245.41 L 215.48 245.70 L 217.97 246.00 L 220.45 246.31 L 222.93 246.62 L 225.42 246.93 L 227.90 247.23 L 230.38 247.54 L 232.87 247.84 L 235.35 248.13 L 237.83 248.41 L 240.32 248.67 L 242.80 248.92 L 245.28 249.15 L 247.77 249.36 L 250.25 249.54 L 252.73 249.70 L 255.22 249.83 L 257.70 249.92 L 260.18 249.98 L 262.67 250.00 L 265.15 249.98 L 267.63 249.91 L 270.12 249.80 L 272.60 249.64 L 275.08 249.43 L 277.57 249.16 L 280.05 248.83 L 282.53 248.45 L 285.02 248.00 L 287.50 247.48 L 289.98 246.91 L 292.47 246.26 L 294.95 245.54 L 297.43 244.75 L 299.92 243.88 L 302.40 242.94 L 304.88 241.92 L 307.37 240.82 L 309.85 239.64 L 312.33 238.38 L 314.82 237.04 L 317.30 235.62 L 319.78 234.11 L 322.27 232.52 L 324.75 230.85 L 327.23 229.10 L 329.72 227.26 L 332.20 225.35 L 334.68 223.35 L 337.17 221.27 L 339.65 219.11 L 342.13 216.88 L 344.62 214.57 L 347.10 212.19 L 349.58 209.73 L 352.07 207.21 L 354.55 204.62 L 357.03 201.96 L 359.52 199.25 L 362.00 196.47 L 364.48 193.64 L 366.97 190.76 L 369.45 187.83 L 371.93 184.86 L 374.42 181.85 L 376.90 178.80 L 379.38 175.72 L 381.87 172.61 L 384.35 169.48 L 386.83 166.33 L 389.32 163.17 L 391.80 160.00 L 394.28 156.82 L 396.77 153.65 L 399.25 150.49 L 401.73 147.34 L 404.22 144.21 L 406.70 141.10 L 409.18 138.02 L 411.67 134.97 L 414.15 131.97 L 416.63 129.01 L 419.12 126.10 L 421.60 123.25 L 424.08 120.45 L 426.57 117.73 L 429.05 115.08 L 431.53 112.51 L 434.02 110.01 L 436.50 107.61 L 438.98 105.30 L 441.47 103.09 L 443.95 100.98 L 446.43 98.97 L 448.92 97.08 L 451.40 95.30 L 453.88 93.64 L 456.37 92.11 L 458.85 90.70 L 461.33 89.42 L 463.82 88.27 L 466.30 87.26 L 468.78 86.39 L 471.27 85.66 L 473.75 85.07 L 476.23 84.63 L 478.72 84.33 L 481.20 84.18 L 483.68 84.18 L 486.17 84.33 L 488.65 84.63 L 491.13 85.08 L 493.62 85.68 L 496.10 86.43 L 498.58 87.33 L 501.07 88.38 L 503.55 89.57 L 506.03 90.91 L 508.52 92.39 L 511.00 94.01 L 513.48 95.77 L 515.97 97.67 L 518.45 99.69 L 520.93 101.85 L 523.42 104.13 L 525.90 106.54 L 528.38 109.06 L 530.87 111.69 L 533.35 114.43 L 535.83 117.27 L 538.32 120.21 L 540.80 123.25 L 543.28 126.37 L 545.77 129.57 L 548.25 132.84 L 550.73 136.18 L 553.22 139.59 L 555.70 143.05 L 558.18 146.56 L 560.67 150.12 L 563.15 153.71 L 565.63 157.32 L 568.12 160.96 L 570.60 164.61 L 573.08 168.27 L 575.57 171.93 L 578.05 175.59 L 580.53 179.22 L 583.02 182.84 L 585.50 186.43 L 587.98 189.98 L 590.47 193.49 L 592.95 196.95 L 595.43 200.35 L 597.92 203.68 L 600.40 206.95 L 602.88 210.14 L 605.37 213.24 L 607.85 216.26 L 610.33 219.18 L 612.82 222.00 L 615.30 224.70 L 617.78 227.30 L 620.27 229.78 L 622.75 232.13 L 625.23 234.36 L 627.72 236.45 L 630.20 238.40 L 632.68 240.22 L 635.17 241.89 L 637.65 243.41 L 640.13 244.77 L 642.62 245.99 L 645.10 247.05 L 647.58 247.95 L 650.07 248.68 L 652.55 249.26 L 655.03 249.67 L 657.52 249.92 L 660.00 250.00" fill="none" stroke="#D55E00" stroke-width="2.4"/>
<text x="64" y="268" font-family="'JetBrains Mono','Fira Code','Courier New',monospace" font-size="13" fill="#545454" text-anchor="middle"><tspan>0</tspan></text>
<text x="213.0" y="268" font-family="'JetBrains Mono','Fira Code','Courier New',monospace" font-size="13" fill="#545454" text-anchor="middle"><tspan>L/4</tspan></text>
<text x="362.0" y="268" font-family="'JetBrains Mono','Fira Code','Courier New',monospace" font-size="13" fill="#545454" text-anchor="middle"><tspan>L/2</tspan></text>
<text x="511.0" y="268" font-family="'JetBrains Mono','Fira Code','Courier New',monospace" font-size="13" fill="#545454" text-anchor="middle"><tspan>3L/4</tspan></text>
<text x="660" y="268" font-family="'JetBrains Mono','Fira Code','Courier New',monospace" font-size="13" fill="#545454" text-anchor="middle"><tspan>L</tspan></text>
<text x="362.0" y="286" font-family="'Inter',-apple-system,'Helvetica Neue',sans-serif" font-size="14" fill="#2a1a0e" text-anchor="middle"><tspan>position  x / L</tspan></text>
<text x="20" y="154.0" font-family="'Inter',-apple-system,'Helvetica Neue',sans-serif" font-size="14" fill="#2a1a0e" text-anchor="middle" transform="rotate(-90, 20, 154.0)"><tspan>|Ψ|</tspan><tspan dy="-5.88" font-size="10.08">2</tspan></text>
<line x1="82.00" y1="74.00" x2="104.00" y2="74.00" stroke="#0072B2" stroke-width="2.4"/>
<text x="110" y="78" font-family="'Inter',-apple-system,'Helvetica Neue',sans-serif" font-size="13" fill="#2a1a0e" text-anchor="start"><tspan>t = 0</tspan></text>
<line x1="82.00" y1="92.00" x2="104.00" y2="92.00" stroke="#009E73" stroke-width="2.4"/>
<text x="110" y="96" font-family="'Inter',-apple-system,'Helvetica Neue',sans-serif" font-size="13" fill="#2a1a0e" text-anchor="start"><tspan>t = T/4</tspan></text>
<line x1="82.00" y1="110.00" x2="104.00" y2="110.00" stroke="#D55E00" stroke-width="2.4"/>
<text x="110" y="114" font-family="'Inter',-apple-system,'Helvetica Neue',sans-serif" font-size="13" fill="#2a1a0e" text-anchor="start"><tspan>t = T/2</tspan></text>
<text x="648" y="74" font-family="'Inter',-apple-system,'Helvetica Neue',sans-serif" font-size="12" fill="#545454" text-anchor="end" font-style="italic"><tspan>t = 3T/4 retraces t = T/4</tspan></text>
<rect x="64" y="330" width="274" height="170" fill="#F5F5F5" stroke="#D4D4D4" stroke-width="0.75"/>
<text x="201.0" y="322" font-family="'Inter',-apple-system,'Helvetica Neue',sans-serif" font-size="14" fill="#2a1a0e" text-anchor="middle"><tspan>average position  ⟨x⟩(t)</tspan></text>
<line x1="64.00" y1="415.00" x2="338.00" y2="415.00" stroke="#D4D4D4" stroke-width="0.75" stroke-dasharray="5 4"/>
<path d="M 64.00 476.24 L 65.14 476.22 L 66.28 476.16 L 67.42 476.05 L 68.57 475.91 L 69.71 475.72 L 70.85 475.49 L 71.99 475.22 L 73.13 474.90 L 74.28 474.55 L 75.42 474.16 L 76.56 473.72 L 77.70 473.25 L 78.84 472.73 L 79.98 472.18 L 81.12 471.58 L 82.27 470.95 L 83.41 470.28 L 84.55 469.57 L 85.69 468.82 L 86.83 468.04 L 87.97 467.22 L 89.12 466.36 L 90.26 465.47 L 91.40 464.55 L 92.54 463.59 L 93.68 462.59 L 94.83 461.57 L 95.97 460.51 L 97.11 459.42 L 98.25 458.31 L 99.39 457.16 L 100.53 455.98 L 101.68 454.77 L 102.82 453.54 L 103.96 452.28 L 105.10 451.00 L 106.24 449.69 L 107.38 448.36 L 108.53 447.00 L 109.67 445.62 L 110.81 444.22 L 111.95 442.80 L 113.09 441.37 L 114.23 439.91 L 115.38 438.44 L 116.52 436.95 L 117.66 435.44 L 118.80 433.93 L 119.94 432.39 L 121.08 430.85 L 122.22 429.30 L 123.37 427.73 L 124.51 426.16 L 125.65 424.58 L 126.79 422.99 L 127.93 421.40 L 129.07 419.81 L 130.22 418.21 L 131.36 416.60 L 132.50 415.00 L 133.64 413.40 L 134.78 411.79 L 135.93 410.19 L 137.07 408.60 L 138.21 407.01 L 139.35 405.42 L 140.49 403.84 L 141.63 402.27 L 142.77 400.70 L 143.92 399.15 L 145.06 397.61 L 146.20 396.07 L 147.34 394.56 L 148.48 393.05 L 149.62 391.56 L 150.77 390.09 L 151.91 388.63 L 153.05 387.20 L 154.19 385.78 L 155.33 384.38 L 156.48 383.00 L 157.62 381.64 L 158.76 380.31 L 159.90 379.00 L 161.04 377.72 L 162.18 376.46 L 163.32 375.23 L 164.47 374.02 L 165.61 372.84 L 166.75 371.69 L 167.89 370.58 L 169.03 369.49 L 170.18 368.43 L 171.32 367.41 L 172.46 366.41 L 173.60 365.45 L 174.74 364.53 L 175.88 363.64 L 177.02 362.78 L 178.17 361.96 L 179.31 361.18 L 180.45 360.43 L 181.59 359.72 L 182.73 359.05 L 183.88 358.42 L 185.02 357.82 L 186.16 357.27 L 187.30 356.75 L 188.44 356.28 L 189.58 355.84 L 190.73 355.45 L 191.87 355.10 L 193.01 354.78 L 194.15 354.51 L 195.29 354.28 L 196.43 354.09 L 197.57 353.95 L 198.72 353.84 L 199.86 353.78 L 201.00 353.76 L 202.14 353.78 L 203.28 353.84 L 204.42 353.95 L 205.57 354.09 L 206.71 354.28 L 207.85 354.51 L 208.99 354.78 L 210.13 355.10 L 211.28 355.45 L 212.42 355.84 L 213.56 356.28 L 214.70 356.75 L 215.84 357.27 L 216.98 357.82 L 218.12 358.42 L 219.27 359.05 L 220.41 359.72 L 221.55 360.43 L 222.69 361.18 L 223.83 361.96 L 224.97 362.78 L 226.12 363.64 L 227.26 364.53 L 228.40 365.45 L 229.54 366.41 L 230.68 367.41 L 231.83 368.43 L 232.97 369.49 L 234.11 370.58 L 235.25 371.69 L 236.39 372.84 L 237.53 374.02 L 238.67 375.23 L 239.82 376.46 L 240.96 377.72 L 242.10 379.00 L 243.24 380.31 L 244.38 381.64 L 245.53 383.00 L 246.67 384.38 L 247.81 385.78 L 248.95 387.20 L 250.09 388.63 L 251.23 390.09 L 252.38 391.56 L 253.52 393.05 L 254.66 394.56 L 255.80 396.07 L 256.94 397.61 L 258.08 399.15 L 259.23 400.70 L 260.37 402.27 L 261.51 403.84 L 262.65 405.42 L 263.79 407.01 L 264.93 408.60 L 266.08 410.19 L 267.22 411.79 L 268.36 413.40 L 269.50 415.00 L 270.64 416.60 L 271.78 418.21 L 272.92 419.81 L 274.07 421.40 L 275.21 422.99 L 276.35 424.58 L 277.49 426.16 L 278.63 427.73 L 279.77 429.30 L 280.92 430.85 L 282.06 432.39 L 283.20 433.93 L 284.34 435.44 L 285.48 436.95 L 286.62 438.44 L 287.77 439.91 L 288.91 441.37 L 290.05 442.80 L 291.19 444.22 L 292.33 445.62 L 293.48 447.00 L 294.62 448.36 L 295.76 449.69 L 296.90 451.00 L 298.04 452.28 L 299.18 453.54 L 300.33 454.77 L 301.47 455.98 L 302.61 457.16 L 303.75 458.31 L 304.89 459.42 L 306.03 460.51 L 307.17 461.57 L 308.32 462.59 L 309.46 463.59 L 310.60 464.55 L 311.74 465.47 L 312.88 466.36 L 314.02 467.22 L 315.17 468.04 L 316.31 468.82 L 317.45 469.57 L 318.59 470.28 L 319.73 470.95 L 320.88 471.58 L 322.02 472.18 L 323.16 472.73 L 324.30 473.25 L 325.44 473.72 L 326.58 474.16 L 327.73 474.55 L 328.87 474.90 L 330.01 475.22 L 331.15 475.49 L 332.29 475.72 L 333.43 475.91 L 334.57 476.05 L 335.72 476.16 L 336.86 476.22 L 338.00 476.24" fill="none" stroke="#0072B2" stroke-width="2.4"/>
<text x="58" y="357.79999999999995" font-family="'JetBrains Mono','Fira Code','Courier New',monospace" font-size="11" fill="#545454" text-anchor="end"><tspan>0.68L</tspan></text>
<text x="58" y="419.0" font-family="'JetBrains Mono','Fira Code','Courier New',monospace" font-size="11" fill="#545454" text-anchor="end"><tspan>L/2</tspan></text>
<text x="58" y="480.2" font-family="'JetBrains Mono','Fira Code','Courier New',monospace" font-size="11" fill="#545454" text-anchor="end"><tspan>0.32L</tspan></text>
<text x="64" y="518" font-family="'JetBrains Mono','Fira Code','Courier New',monospace" font-size="12" fill="#545454" text-anchor="middle"><tspan>0</tspan></text>
<text x="201.0" y="518" font-family="'JetBrains Mono','Fira Code','Courier New',monospace" font-size="12" fill="#545454" text-anchor="middle"><tspan>T/2</tspan></text>
<text x="338" y="518" font-family="'JetBrains Mono','Fira Code','Courier New',monospace" font-size="12" fill="#545454" text-anchor="middle"><tspan>T</tspan></text>
<text x="201.0" y="536" font-family="'Inter',-apple-system,'Helvetica Neue',sans-serif" font-size="14" fill="#2a1a0e" text-anchor="middle"><tspan>time  t / T</tspan></text>
<rect x="386" y="330" width="274" height="170" fill="#F5F5F5" stroke="#D4D4D4" stroke-width="0.75"/>
<text x="523.0" y="322" font-family="'Inter',-apple-system,'Helvetica Neue',sans-serif" font-size="14" fill="#2a1a0e" text-anchor="middle"><tspan>average energy  ⟨H⟩(t)</tspan></text>
<path d="M 386.00 415.00 L 387.14 415.00 L 388.28 415.00 L 389.43 415.00 L 390.57 415.00 L 391.71 415.00 L 392.85 415.00 L 393.99 415.00 L 395.13 415.00 L 396.27 415.00 L 397.42 415.00 L 398.56 415.00 L 399.70 415.00 L 400.84 415.00 L 401.98 415.00 L 403.12 415.00 L 404.27 415.00 L 405.41 415.00 L 406.55 415.00 L 407.69 415.00 L 408.83 415.00 L 409.98 415.00 L 411.12 415.00 L 412.26 415.00 L 413.40 415.00 L 414.54 415.00 L 415.68 415.00 L 416.82 415.00 L 417.97 415.00 L 419.11 415.00 L 420.25 415.00 L 421.39 415.00 L 422.53 415.00 L 423.68 415.00 L 424.82 415.00 L 425.96 415.00 L 427.10 415.00 L 428.24 415.00 L 429.38 415.00 L 430.52 415.00 L 431.67 415.00 L 432.81 415.00 L 433.95 415.00 L 435.09 415.00 L 436.23 415.00 L 437.38 415.00 L 438.52 415.00 L 439.66 415.00 L 440.80 415.00 L 441.94 415.00 L 443.08 415.00 L 444.23 415.00 L 445.37 415.00 L 446.51 415.00 L 447.65 415.00 L 448.79 415.00 L 449.93 415.00 L 451.07 415.00 L 452.22 415.00 L 453.36 415.00 L 454.50 415.00 L 455.64 415.00 L 456.78 415.00 L 457.93 415.00 L 459.07 415.00 L 460.21 415.00 L 461.35 415.00 L 462.49 415.00 L 463.63 415.00 L 464.77 415.00 L 465.92 415.00 L 467.06 415.00 L 468.20 415.00 L 469.34 415.00 L 470.48 415.00 L 471.62 415.00 L 472.77 415.00 L 473.91 415.00 L 475.05 415.00 L 476.19 415.00 L 477.33 415.00 L 478.48 415.00 L 479.62 415.00 L 480.76 415.00 L 481.90 415.00 L 483.04 415.00 L 484.18 415.00 L 485.32 415.00 L 486.47 415.00 L 487.61 415.00 L 488.75 415.00 L 489.89 415.00 L 491.03 415.00 L 492.18 415.00 L 493.32 415.00 L 494.46 415.00 L 495.60 415.00 L 496.74 415.00 L 497.88 415.00 L 499.02 415.00 L 500.17 415.00 L 501.31 415.00 L 502.45 415.00 L 503.59 415.00 L 504.73 415.00 L 505.88 415.00 L 507.02 415.00 L 508.16 415.00 L 509.30 415.00 L 510.44 415.00 L 511.58 415.00 L 512.73 415.00 L 513.87 415.00 L 515.01 415.00 L 516.15 415.00 L 517.29 415.00 L 518.43 415.00 L 519.58 415.00 L 520.72 415.00 L 521.86 415.00 L 523.00 415.00 L 524.14 415.00 L 525.28 415.00 L 526.42 415.00 L 527.57 415.00 L 528.71 415.00 L 529.85 415.00 L 530.99 415.00 L 532.13 415.00 L 533.27 415.00 L 534.42 415.00 L 535.56 415.00 L 536.70 415.00 L 537.84 415.00 L 538.98 415.00 L 540.12 415.00 L 541.27 415.00 L 542.41 415.00 L 543.55 415.00 L 544.69 415.00 L 545.83 415.00 L 546.98 415.00 L 548.12 415.00 L 549.26 415.00 L 550.40 415.00 L 551.54 415.00 L 552.68 415.00 L 553.83 415.00 L 554.97 415.00 L 556.11 415.00 L 557.25 415.00 L 558.39 415.00 L 559.53 415.00 L 560.67 415.00 L 561.82 415.00 L 562.96 415.00 L 564.10 415.00 L 565.24 415.00 L 566.38 415.00 L 567.52 415.00 L 568.67 415.00 L 569.81 415.00 L 570.95 415.00 L 572.09 415.00 L 573.23 415.00 L 574.38 415.00 L 575.52 415.00 L 576.66 415.00 L 577.80 415.00 L 578.94 415.00 L 580.08 415.00 L 581.23 415.00 L 582.37 415.00 L 583.51 415.00 L 584.65 415.00 L 585.79 415.00 L 586.93 415.00 L 588.08 415.00 L 589.22 415.00 L 590.36 415.00 L 591.50 415.00 L 592.64 415.00 L 593.78 415.00 L 594.92 415.00 L 596.07 415.00 L 597.21 415.00 L 598.35 415.00 L 599.49 415.00 L 600.63 415.00 L 601.77 415.00 L 602.92 415.00 L 604.06 415.00 L 605.20 415.00 L 606.34 415.00 L 607.48 415.00 L 608.62 415.00 L 609.77 415.00 L 610.91 415.00 L 612.05 415.00 L 613.19 415.00 L 614.33 415.00 L 615.48 415.00 L 616.62 415.00 L 617.76 415.00 L 618.90 415.00 L 620.04 415.00 L 621.18 415.00 L 622.33 415.00 L 623.47 415.00 L 624.61 415.00 L 625.75 415.00 L 626.89 415.00 L 628.03 415.00 L 629.17 415.00 L 630.32 415.00 L 631.46 415.00 L 632.60 415.00 L 633.74 415.00 L 634.88 415.00 L 636.02 415.00 L 637.17 415.00 L 638.31 415.00 L 639.45 415.00 L 640.59 415.00 L 641.73 415.00 L 642.88 415.00 L 644.02 415.00 L 645.16 415.00 L 646.30 415.00 L 647.44 415.00 L 648.58 415.00 L 649.73 415.00 L 650.87 415.00 L 652.01 415.00 L 653.15 415.00 L 654.29 415.00 L 655.43 415.00 L 656.58 415.00 L 657.72 415.00 L 658.86 415.00 L 660.00 415.00" fill="none" stroke="#009E73" stroke-width="2.6"/>
<text x="523.0" y="403.0" font-family="'JetBrains Mono','Fira Code','Courier New',monospace" font-size="13" fill="#009E73" text-anchor="middle"><tspan>⟨H⟩ = (E</tspan><tspan dy="2.08" font-size="9.36">1</tspan><tspan dy="-2.08">+E</tspan><tspan dy="2.08" font-size="9.36">2</tspan><tspan dy="-2.08">)/2 ≈ 0.94 eV</tspan></text>
<text x="523.0" y="439.0" font-family="'Inter',-apple-system,'Helvetica Neue',sans-serif" font-size="12" fill="#545454" text-anchor="middle" font-style="italic"><tspan>constant — weights |c</tspan><tspan dy="1.92" font-size="8.64">n</tspan><tspan dy="-1.92">|</tspan><tspan dy="-5.04" font-size="8.64">2</tspan><tspan dy="5.04"> never change</tspan></text>
<text x="386" y="518" font-family="'JetBrains Mono','Fira Code','Courier New',monospace" font-size="12" fill="#545454" text-anchor="middle"><tspan>0</tspan></text>
<text x="523.0" y="518" font-family="'JetBrains Mono','Fira Code','Courier New',monospace" font-size="12" fill="#545454" text-anchor="middle"><tspan>T/2</tspan></text>
<text x="660" y="518" font-family="'JetBrains Mono','Fira Code','Courier New',monospace" font-size="12" fill="#545454" text-anchor="middle"><tspan>T</tspan></text>
<text x="523.0" y="536" font-family="'Inter',-apple-system,'Helvetica Neue',sans-serif" font-size="14" fill="#2a1a0e" text-anchor="middle"><tspan>time  t / T</tspan></text>
</svg>
