<!-- CAJAL SVG Figure
     Book-slug: quantum-mechanics-vol1
     Chapter: 05-the-infinite-square-well
     Figure: 03 — Wave functions and probability densities
     Type: plot  Author: Humanitarians AI Incorporated  Date-generated: 2026-06-22
-->
<svg viewBox="0 0 700 410" xmlns="http://www.w3.org/2000/svg" role="img" aria-labelledby="ttl-0503">
<title id="ttl-0503">Ground and first-excited wave functions and their probability densities</title>
<desc>Left: the first two eigenfunctions, the ground state with no interior node and the first excited state with one node at the centre. Right: their probability densities; the ground state has a single central peak, the first excited state two peaks and a node at L/2. Legends sit in a band beneath the panels. The ground state has no nodes yet nonzero energy.</desc>
<metadata><cajal:figure xmlns:cajal="https://bearbrown.ai/cajal/1.0" book-slug="quantum-mechanics-vol1" chapter="05-the-infinite-square-well" figure-number="03" figure-title="Wave functions and probability densities" figure-slug="infinite-well-eigenstates-densities" figure-type="plot" priority="Important" author="Humanitarians AI Incorporated" date-generated="2026-06-22" source-file="pantry/05-the-infinite-square-well-cajal.md"/></metadata>
<text x="350" y="28" font-family="'EB Garamond','Garamond',Georgia,serif" font-size="18" fill="#2a1a0e" text-anchor="middle"><tspan>Wave functions ψ</tspan><tspan dy="2.88" font-size="12.96">n</tspan><tspan dy="-2.88"> and probability densities |ψ</tspan><tspan dy="2.88" font-size="12.96">n</tspan><tspan dy="-2.88">|</tspan><tspan dy="-7.56" font-size="12.96">2</tspan></text>
<rect x="64" y="62" width="274" height="234" fill="#F5F5F5" stroke="#D4D4D4" stroke-width="0.75"/>
<rect x="386" y="62" width="274" height="234" fill="#F5F5F5" stroke="#D4D4D4" stroke-width="0.75"/>
<line x1="64.00" y1="179.00" x2="338.00" y2="179.00" stroke="#D4D4D4" stroke-width="0.75"/>
<path d="M 64.00 179.00 L 65.14 177.65 L 66.28 176.29 L 67.42 174.94 L 68.57 173.59 L 69.71 172.24 L 70.85 170.89 L 71.99 169.54 L 73.13 168.19 L 74.28 166.84 L 75.42 165.50 L 76.56 164.16 L 77.70 162.82 L 78.84 161.49 L 79.98 160.15 L 81.12 158.82 L 82.27 157.50 L 83.41 156.18 L 84.55 154.86 L 85.69 153.54 L 86.83 152.23 L 87.97 150.93 L 89.12 149.63 L 90.26 148.33 L 91.40 147.04 L 92.54 145.76 L 93.68 144.48 L 94.83 143.21 L 95.97 141.94 L 97.11 140.68 L 98.25 139.43 L 99.39 138.18 L 100.53 136.94 L 101.68 135.70 L 102.82 134.48 L 103.96 133.26 L 105.10 132.05 L 106.24 130.85 L 107.38 129.65 L 108.53 128.47 L 109.67 127.29 L 110.81 126.12 L 111.95 124.97 L 113.09 123.82 L 114.23 122.68 L 115.38 121.55 L 116.52 120.43 L 117.66 119.31 L 118.80 118.21 L 119.94 117.12 L 121.08 116.05 L 122.22 114.98 L 123.37 113.92 L 124.51 112.87 L 125.65 111.84 L 126.79 110.81 L 127.93 109.80 L 129.07 108.80 L 130.22 107.81 L 131.36 106.84 L 132.50 105.88 L 133.64 104.92 L 134.78 103.99 L 135.93 103.06 L 137.07 102.15 L 138.21 101.25 L 139.35 100.36 L 140.49 99.49 L 141.63 98.63 L 142.77 97.79 L 143.92 96.96 L 145.06 96.14 L 146.20 95.34 L 147.34 94.55 L 148.48 93.77 L 149.62 93.01 L 150.77 92.27 L 151.91 91.54 L 153.05 90.82 L 154.19 90.13 L 155.33 89.44 L 156.48 88.77 L 157.62 88.12 L 158.76 87.48 L 159.90 86.86 L 161.04 86.25 L 162.18 85.66 L 163.32 85.08 L 164.47 84.53 L 165.61 83.98 L 166.75 83.46 L 167.89 82.95 L 169.03 82.45 L 170.18 81.98 L 171.32 81.52 L 172.46 81.07 L 173.60 80.65 L 174.74 80.24 L 175.88 79.84 L 177.02 79.47 L 178.17 79.11 L 179.31 78.77 L 180.45 78.44 L 181.59 78.14 L 182.73 77.85 L 183.88 77.57 L 185.02 77.32 L 186.16 77.08 L 187.30 76.86 L 188.44 76.66 L 189.58 76.47 L 190.73 76.30 L 191.87 76.15 L 193.01 76.02 L 194.15 75.90 L 195.29 75.81 L 196.43 75.73 L 197.57 75.67 L 198.72 75.62 L 199.86 75.59 L 201.00 75.59 L 202.14 75.59 L 203.28 75.62 L 204.42 75.67 L 205.57 75.73 L 206.71 75.81 L 207.85 75.90 L 208.99 76.02 L 210.13 76.15 L 211.28 76.30 L 212.42 76.47 L 213.56 76.66 L 214.70 76.86 L 215.84 77.08 L 216.98 77.32 L 218.12 77.57 L 219.27 77.85 L 220.41 78.14 L 221.55 78.44 L 222.69 78.77 L 223.83 79.11 L 224.97 79.47 L 226.12 79.84 L 227.26 80.24 L 228.40 80.65 L 229.54 81.07 L 230.68 81.52 L 231.83 81.98 L 232.97 82.45 L 234.11 82.95 L 235.25 83.46 L 236.39 83.98 L 237.53 84.53 L 238.67 85.08 L 239.82 85.66 L 240.96 86.25 L 242.10 86.86 L 243.24 87.48 L 244.38 88.12 L 245.53 88.77 L 246.67 89.44 L 247.81 90.13 L 248.95 90.82 L 250.09 91.54 L 251.23 92.27 L 252.38 93.01 L 253.52 93.77 L 254.66 94.55 L 255.80 95.34 L 256.94 96.14 L 258.08 96.96 L 259.23 97.79 L 260.37 98.63 L 261.51 99.49 L 262.65 100.36 L 263.79 101.25 L 264.93 102.15 L 266.08 103.06 L 267.22 103.99 L 268.36 104.92 L 269.50 105.87 L 270.64 106.84 L 271.78 107.81 L 272.92 108.80 L 274.07 109.80 L 275.21 110.81 L 276.35 111.84 L 277.49 112.87 L 278.63 113.92 L 279.77 114.98 L 280.92 116.05 L 282.06 117.12 L 283.20 118.21 L 284.34 119.31 L 285.48 120.43 L 286.62 121.55 L 287.77 122.68 L 288.91 123.82 L 290.05 124.97 L 291.19 126.12 L 292.33 127.29 L 293.48 128.47 L 294.62 129.65 L 295.76 130.85 L 296.90 132.05 L 298.04 133.26 L 299.18 134.48 L 300.33 135.70 L 301.47 136.94 L 302.61 138.18 L 303.75 139.43 L 304.89 140.68 L 306.03 141.94 L 307.17 143.21 L 308.32 144.48 L 309.46 145.76 L 310.60 147.04 L 311.74 148.33 L 312.88 149.63 L 314.02 150.93 L 315.17 152.23 L 316.31 153.54 L 317.45 154.86 L 318.59 156.18 L 319.73 157.50 L 320.88 158.82 L 322.02 160.15 L 323.16 161.49 L 324.30 162.82 L 325.44 164.16 L 326.58 165.50 L 327.73 166.84 L 328.87 168.19 L 330.01 169.54 L 331.15 170.89 L 332.29 172.24 L 333.43 173.59 L 334.57 174.94 L 335.72 176.29 L 336.86 177.65 L 338.00 179.00" fill="none" stroke="#0072B2" stroke-width="2.4"/>
<path d="M 64.00 179.00 L 65.14 176.29 L 66.28 173.59 L 67.42 170.89 L 68.57 168.19 L 69.71 165.50 L 70.85 162.82 L 71.99 160.15 L 73.13 157.50 L 74.28 154.86 L 75.42 152.23 L 76.56 149.63 L 77.70 147.04 L 78.84 144.48 L 79.98 141.94 L 81.12 139.43 L 82.27 136.94 L 83.41 134.48 L 84.55 132.05 L 85.69 129.65 L 86.83 127.29 L 87.97 124.97 L 89.12 122.68 L 90.26 120.43 L 91.40 118.21 L 92.54 116.05 L 93.68 113.92 L 94.83 111.84 L 95.97 109.80 L 97.11 107.81 L 98.25 105.88 L 99.39 103.99 L 100.53 102.15 L 101.68 100.36 L 102.82 98.63 L 103.96 96.96 L 105.10 95.34 L 106.24 93.77 L 107.38 92.27 L 108.53 90.82 L 109.67 89.44 L 110.81 88.12 L 111.95 86.86 L 113.09 85.66 L 114.23 84.53 L 115.38 83.46 L 116.52 82.45 L 117.66 81.52 L 118.80 80.65 L 119.94 79.84 L 121.08 79.11 L 122.22 78.44 L 123.37 77.85 L 124.51 77.32 L 125.65 76.86 L 126.79 76.47 L 127.93 76.15 L 129.07 75.90 L 130.22 75.73 L 131.36 75.62 L 132.50 75.59 L 133.64 75.62 L 134.78 75.73 L 135.93 75.90 L 137.07 76.15 L 138.21 76.47 L 139.35 76.86 L 140.49 77.32 L 141.63 77.85 L 142.77 78.44 L 143.92 79.11 L 145.06 79.84 L 146.20 80.65 L 147.34 81.52 L 148.48 82.45 L 149.62 83.46 L 150.77 84.53 L 151.91 85.66 L 153.05 86.86 L 154.19 88.12 L 155.33 89.44 L 156.48 90.82 L 157.62 92.27 L 158.76 93.77 L 159.90 95.34 L 161.04 96.96 L 162.18 98.63 L 163.32 100.36 L 164.47 102.15 L 165.61 103.99 L 166.75 105.87 L 167.89 107.81 L 169.03 109.80 L 170.18 111.84 L 171.32 113.92 L 172.46 116.05 L 173.60 118.21 L 174.74 120.43 L 175.88 122.68 L 177.02 124.97 L 178.17 127.29 L 179.31 129.65 L 180.45 132.05 L 181.59 134.48 L 182.73 136.94 L 183.88 139.43 L 185.02 141.94 L 186.16 144.48 L 187.30 147.04 L 188.44 149.63 L 189.58 152.23 L 190.73 154.86 L 191.87 157.50 L 193.01 160.15 L 194.15 162.82 L 195.29 165.50 L 196.43 168.19 L 197.57 170.89 L 198.72 173.59 L 199.86 176.29 L 201.00 179.00 L 202.14 181.71 L 203.28 184.41 L 204.42 187.11 L 205.57 189.81 L 206.71 192.50 L 207.85 195.18 L 208.99 197.85 L 210.13 200.50 L 211.28 203.14 L 212.42 205.77 L 213.56 208.37 L 214.70 210.96 L 215.84 213.52 L 216.98 216.06 L 218.12 218.57 L 219.27 221.06 L 220.41 223.52 L 221.55 225.95 L 222.69 228.35 L 223.83 230.71 L 224.97 233.03 L 226.12 235.32 L 227.26 237.57 L 228.40 239.79 L 229.54 241.95 L 230.68 244.08 L 231.83 246.16 L 232.97 248.20 L 234.11 250.19 L 235.25 252.12 L 236.39 254.01 L 237.53 255.85 L 238.67 257.64 L 239.82 259.37 L 240.96 261.04 L 242.10 262.66 L 243.24 264.23 L 244.38 265.73 L 245.53 267.18 L 246.67 268.56 L 247.81 269.88 L 248.95 271.14 L 250.09 272.34 L 251.23 273.47 L 252.38 274.54 L 253.52 275.55 L 254.66 276.48 L 255.80 277.35 L 256.94 278.16 L 258.08 278.89 L 259.23 279.56 L 260.37 280.15 L 261.51 280.68 L 262.65 281.14 L 263.79 281.53 L 264.93 281.85 L 266.08 282.10 L 267.22 282.27 L 268.36 282.38 L 269.50 282.41 L 270.64 282.38 L 271.78 282.27 L 272.92 282.10 L 274.07 281.85 L 275.21 281.53 L 276.35 281.14 L 277.49 280.68 L 278.63 280.15 L 279.77 279.56 L 280.92 278.89 L 282.06 278.16 L 283.20 277.35 L 284.34 276.48 L 285.48 275.55 L 286.62 274.54 L 287.77 273.47 L 288.91 272.34 L 290.05 271.14 L 291.19 269.88 L 292.33 268.56 L 293.48 267.18 L 294.62 265.73 L 295.76 264.23 L 296.90 262.66 L 298.04 261.04 L 299.18 259.37 L 300.33 257.64 L 301.47 255.85 L 302.61 254.01 L 303.75 252.12 L 304.89 250.19 L 306.03 248.20 L 307.17 246.16 L 308.32 244.08 L 309.46 241.95 L 310.60 239.79 L 311.74 237.57 L 312.88 235.32 L 314.02 233.03 L 315.17 230.71 L 316.31 228.35 L 317.45 225.95 L 318.59 223.52 L 319.73 221.06 L 320.88 218.57 L 322.02 216.06 L 323.16 213.52 L 324.30 210.96 L 325.44 208.37 L 326.58 205.77 L 327.73 203.14 L 328.87 200.50 L 330.01 197.85 L 331.15 195.18 L 332.29 192.50 L 333.43 189.81 L 334.57 187.11 L 335.72 184.41 L 336.86 181.71 L 338.00 179.00" fill="none" stroke="#D55E00" stroke-width="2.4"/>
<text x="201.0" y="54" font-family="'Inter',-apple-system,'Helvetica Neue',sans-serif" font-size="14" fill="#2a1a0e" text-anchor="middle"><tspan>eigenfunctions</tspan></text>
<text x="64" y="314" font-family="'JetBrains Mono','Fira Code','Courier New',monospace" font-size="13" fill="#545454" text-anchor="middle"><tspan>0</tspan></text>
<text x="201.0" y="314" font-family="'JetBrains Mono','Fira Code','Courier New',monospace" font-size="13" fill="#545454" text-anchor="middle"><tspan>L/2</tspan></text>
<text x="338" y="314" font-family="'JetBrains Mono','Fira Code','Courier New',monospace" font-size="13" fill="#545454" text-anchor="middle"><tspan>L</tspan></text>
<text x="201.0" y="332" font-family="'Inter',-apple-system,'Helvetica Neue',sans-serif" font-size="14" fill="#2a1a0e" text-anchor="middle"><tspan>x / L</tspan></text>
<text x="20" y="179.0" font-family="'Inter',-apple-system,'Helvetica Neue',sans-serif" font-size="14" fill="#2a1a0e" text-anchor="middle" transform="rotate(-90, 20, 179.0)"><tspan>ψ</tspan><tspan dy="2.24" font-size="10.08">n</tspan><tspan dy="-2.24">(x)</tspan></text>
<path d="M 386.00 296.00 L 386.00 296.00 L 387.14 295.96 L 388.28 295.85 L 389.43 295.67 L 390.57 295.42 L 391.71 295.09 L 392.85 294.69 L 393.99 294.22 L 395.13 293.68 L 396.27 293.06 L 397.42 292.38 L 398.56 291.62 L 399.70 290.79 L 400.84 289.90 L 401.98 288.94 L 403.12 287.90 L 404.27 286.80 L 405.41 285.64 L 406.55 284.41 L 407.69 283.11 L 408.83 281.75 L 409.98 280.33 L 411.12 278.84 L 412.26 277.29 L 413.40 275.69 L 414.54 274.02 L 415.68 272.30 L 416.82 270.52 L 417.97 268.68 L 419.11 266.79 L 420.25 264.85 L 421.39 262.85 L 422.53 260.81 L 423.68 258.71 L 424.82 256.57 L 425.96 254.39 L 427.10 252.16 L 428.24 249.88 L 429.38 247.57 L 430.52 245.21 L 431.67 242.82 L 432.81 240.39 L 433.95 237.92 L 435.09 235.43 L 436.23 232.90 L 437.38 230.34 L 438.52 227.75 L 439.66 225.14 L 440.80 222.50 L 441.94 219.85 L 443.08 217.17 L 444.23 214.47 L 445.37 211.75 L 446.51 209.02 L 447.65 206.28 L 448.79 203.52 L 449.93 200.75 L 451.07 197.98 L 452.22 195.20 L 453.36 192.42 L 454.50 189.64 L 455.64 186.85 L 456.78 184.07 L 457.93 181.29 L 459.07 178.52 L 460.21 175.75 L 461.35 173.00 L 462.49 170.25 L 463.63 167.52 L 464.77 164.81 L 465.92 162.11 L 467.06 159.43 L 468.20 156.77 L 469.34 154.13 L 470.48 151.52 L 471.62 148.93 L 472.77 146.37 L 473.91 143.85 L 475.05 141.35 L 476.19 138.88 L 477.33 136.45 L 478.48 134.06 L 479.62 131.71 L 480.76 129.39 L 481.90 127.12 L 483.04 124.89 L 484.18 122.70 L 485.32 120.56 L 486.47 118.47 L 487.61 116.42 L 488.75 114.43 L 489.89 112.48 L 491.03 110.59 L 492.18 108.76 L 493.32 106.98 L 494.46 105.25 L 495.60 103.59 L 496.74 101.98 L 497.88 100.43 L 499.02 98.95 L 500.17 97.52 L 501.31 96.16 L 502.45 94.87 L 503.59 93.63 L 504.73 92.47 L 505.88 91.37 L 507.02 90.34 L 508.16 89.37 L 509.30 88.48 L 510.44 87.65 L 511.58 86.90 L 512.73 86.21 L 513.87 85.60 L 515.01 85.05 L 516.15 84.58 L 517.29 84.18 L 518.43 83.86 L 519.58 83.60 L 520.72 83.42 L 521.86 83.31 L 523.00 83.27 L 524.14 83.31 L 525.28 83.42 L 526.42 83.60 L 527.57 83.86 L 528.71 84.18 L 529.85 84.58 L 530.99 85.05 L 532.13 85.60 L 533.27 86.21 L 534.42 86.90 L 535.56 87.65 L 536.70 88.48 L 537.84 89.37 L 538.98 90.34 L 540.12 91.37 L 541.27 92.47 L 542.41 93.63 L 543.55 94.87 L 544.69 96.16 L 545.83 97.52 L 546.98 98.95 L 548.12 100.43 L 549.26 101.98 L 550.40 103.59 L 551.54 105.25 L 552.68 106.98 L 553.83 108.76 L 554.97 110.59 L 556.11 112.48 L 557.25 114.43 L 558.39 116.42 L 559.53 118.47 L 560.67 120.56 L 561.82 122.70 L 562.96 124.89 L 564.10 127.12 L 565.24 129.39 L 566.38 131.71 L 567.52 134.06 L 568.67 136.45 L 569.81 138.88 L 570.95 141.35 L 572.09 143.85 L 573.23 146.37 L 574.38 148.93 L 575.52 151.52 L 576.66 154.13 L 577.80 156.77 L 578.94 159.43 L 580.08 162.11 L 581.23 164.81 L 582.37 167.52 L 583.51 170.25 L 584.65 173.00 L 585.79 175.75 L 586.93 178.52 L 588.08 181.29 L 589.22 184.07 L 590.36 186.85 L 591.50 189.64 L 592.64 192.42 L 593.78 195.20 L 594.92 197.98 L 596.07 200.75 L 597.21 203.52 L 598.35 206.28 L 599.49 209.02 L 600.63 211.75 L 601.77 214.47 L 602.92 217.17 L 604.06 219.85 L 605.20 222.50 L 606.34 225.14 L 607.48 227.75 L 608.62 230.34 L 609.77 232.90 L 610.91 235.43 L 612.05 237.92 L 613.19 240.39 L 614.33 242.82 L 615.48 245.21 L 616.62 247.57 L 617.76 249.88 L 618.90 252.16 L 620.04 254.39 L 621.18 256.57 L 622.33 258.71 L 623.47 260.81 L 624.61 262.85 L 625.75 264.85 L 626.89 266.79 L 628.03 268.68 L 629.17 270.52 L 630.32 272.30 L 631.46 274.02 L 632.60 275.69 L 633.74 277.29 L 634.88 278.84 L 636.02 280.33 L 637.17 281.75 L 638.31 283.11 L 639.45 284.41 L 640.59 285.64 L 641.73 286.80 L 642.88 287.90 L 644.02 288.94 L 645.16 289.90 L 646.30 290.79 L 647.44 291.62 L 648.58 292.38 L 649.73 293.06 L 650.87 293.68 L 652.01 294.22 L 653.15 294.69 L 654.29 295.09 L 655.43 295.42 L 656.58 295.67 L 657.72 295.85 L 658.86 295.96 L 660.00 296.00 L 660.00 296.00 Z" fill="#CCE5F1" stroke="none"/>
<path d="M 386.00 296.00 L 387.14 295.96 L 388.28 295.85 L 389.43 295.67 L 390.57 295.42 L 391.71 295.09 L 392.85 294.69 L 393.99 294.22 L 395.13 293.68 L 396.27 293.06 L 397.42 292.38 L 398.56 291.62 L 399.70 290.79 L 400.84 289.90 L 401.98 288.94 L 403.12 287.90 L 404.27 286.80 L 405.41 285.64 L 406.55 284.41 L 407.69 283.11 L 408.83 281.75 L 409.98 280.33 L 411.12 278.84 L 412.26 277.29 L 413.40 275.69 L 414.54 274.02 L 415.68 272.30 L 416.82 270.52 L 417.97 268.68 L 419.11 266.79 L 420.25 264.85 L 421.39 262.85 L 422.53 260.81 L 423.68 258.71 L 424.82 256.57 L 425.96 254.39 L 427.10 252.16 L 428.24 249.88 L 429.38 247.57 L 430.52 245.21 L 431.67 242.82 L 432.81 240.39 L 433.95 237.92 L 435.09 235.43 L 436.23 232.90 L 437.38 230.34 L 438.52 227.75 L 439.66 225.14 L 440.80 222.50 L 441.94 219.85 L 443.08 217.17 L 444.23 214.47 L 445.37 211.75 L 446.51 209.02 L 447.65 206.28 L 448.79 203.52 L 449.93 200.75 L 451.07 197.98 L 452.22 195.20 L 453.36 192.42 L 454.50 189.64 L 455.64 186.85 L 456.78 184.07 L 457.93 181.29 L 459.07 178.52 L 460.21 175.75 L 461.35 173.00 L 462.49 170.25 L 463.63 167.52 L 464.77 164.81 L 465.92 162.11 L 467.06 159.43 L 468.20 156.77 L 469.34 154.13 L 470.48 151.52 L 471.62 148.93 L 472.77 146.37 L 473.91 143.85 L 475.05 141.35 L 476.19 138.88 L 477.33 136.45 L 478.48 134.06 L 479.62 131.71 L 480.76 129.39 L 481.90 127.12 L 483.04 124.89 L 484.18 122.70 L 485.32 120.56 L 486.47 118.47 L 487.61 116.42 L 488.75 114.43 L 489.89 112.48 L 491.03 110.59 L 492.18 108.76 L 493.32 106.98 L 494.46 105.25 L 495.60 103.59 L 496.74 101.98 L 497.88 100.43 L 499.02 98.95 L 500.17 97.52 L 501.31 96.16 L 502.45 94.87 L 503.59 93.63 L 504.73 92.47 L 505.88 91.37 L 507.02 90.34 L 508.16 89.37 L 509.30 88.48 L 510.44 87.65 L 511.58 86.90 L 512.73 86.21 L 513.87 85.60 L 515.01 85.05 L 516.15 84.58 L 517.29 84.18 L 518.43 83.86 L 519.58 83.60 L 520.72 83.42 L 521.86 83.31 L 523.00 83.27 L 524.14 83.31 L 525.28 83.42 L 526.42 83.60 L 527.57 83.86 L 528.71 84.18 L 529.85 84.58 L 530.99 85.05 L 532.13 85.60 L 533.27 86.21 L 534.42 86.90 L 535.56 87.65 L 536.70 88.48 L 537.84 89.37 L 538.98 90.34 L 540.12 91.37 L 541.27 92.47 L 542.41 93.63 L 543.55 94.87 L 544.69 96.16 L 545.83 97.52 L 546.98 98.95 L 548.12 100.43 L 549.26 101.98 L 550.40 103.59 L 551.54 105.25 L 552.68 106.98 L 553.83 108.76 L 554.97 110.59 L 556.11 112.48 L 557.25 114.43 L 558.39 116.42 L 559.53 118.47 L 560.67 120.56 L 561.82 122.70 L 562.96 124.89 L 564.10 127.12 L 565.24 129.39 L 566.38 131.71 L 567.52 134.06 L 568.67 136.45 L 569.81 138.88 L 570.95 141.35 L 572.09 143.85 L 573.23 146.37 L 574.38 148.93 L 575.52 151.52 L 576.66 154.13 L 577.80 156.77 L 578.94 159.43 L 580.08 162.11 L 581.23 164.81 L 582.37 167.52 L 583.51 170.25 L 584.65 173.00 L 585.79 175.75 L 586.93 178.52 L 588.08 181.29 L 589.22 184.07 L 590.36 186.85 L 591.50 189.64 L 592.64 192.42 L 593.78 195.20 L 594.92 197.98 L 596.07 200.75 L 597.21 203.52 L 598.35 206.28 L 599.49 209.02 L 600.63 211.75 L 601.77 214.47 L 602.92 217.17 L 604.06 219.85 L 605.20 222.50 L 606.34 225.14 L 607.48 227.75 L 608.62 230.34 L 609.77 232.90 L 610.91 235.43 L 612.05 237.92 L 613.19 240.39 L 614.33 242.82 L 615.48 245.21 L 616.62 247.57 L 617.76 249.88 L 618.90 252.16 L 620.04 254.39 L 621.18 256.57 L 622.33 258.71 L 623.47 260.81 L 624.61 262.85 L 625.75 264.85 L 626.89 266.79 L 628.03 268.68 L 629.17 270.52 L 630.32 272.30 L 631.46 274.02 L 632.60 275.69 L 633.74 277.29 L 634.88 278.84 L 636.02 280.33 L 637.17 281.75 L 638.31 283.11 L 639.45 284.41 L 640.59 285.64 L 641.73 286.80 L 642.88 287.90 L 644.02 288.94 L 645.16 289.90 L 646.30 290.79 L 647.44 291.62 L 648.58 292.38 L 649.73 293.06 L 650.87 293.68 L 652.01 294.22 L 653.15 294.69 L 654.29 295.09 L 655.43 295.42 L 656.58 295.67 L 657.72 295.85 L 658.86 295.96 L 660.00 296.00" fill="none" stroke="#0072B2" stroke-width="2.4"/>
<path d="M 386.00 296.00 L 387.14 295.85 L 388.28 295.42 L 389.43 294.69 L 390.57 293.68 L 391.71 292.38 L 392.85 290.79 L 393.99 288.94 L 395.13 286.80 L 396.27 284.41 L 397.42 281.75 L 398.56 278.84 L 399.70 275.69 L 400.84 272.30 L 401.98 268.68 L 403.12 264.85 L 404.27 260.81 L 405.41 256.57 L 406.55 252.16 L 407.69 247.57 L 408.83 242.82 L 409.98 237.92 L 411.12 232.90 L 412.26 227.75 L 413.40 222.50 L 414.54 217.17 L 415.68 211.75 L 416.82 206.28 L 417.97 200.75 L 419.11 195.20 L 420.25 189.64 L 421.39 184.07 L 422.53 178.52 L 423.68 173.00 L 424.82 167.52 L 425.96 162.11 L 427.10 156.77 L 428.24 151.52 L 429.38 146.37 L 430.52 141.35 L 431.67 136.45 L 432.81 131.71 L 433.95 127.12 L 435.09 122.70 L 436.23 118.47 L 437.38 114.43 L 438.52 110.59 L 439.66 106.98 L 440.80 103.59 L 441.94 100.43 L 443.08 97.52 L 444.23 94.87 L 445.37 92.47 L 446.51 90.34 L 447.65 88.48 L 448.79 86.90 L 449.93 85.60 L 451.07 84.58 L 452.22 83.86 L 453.36 83.42 L 454.50 83.27 L 455.64 83.42 L 456.78 83.86 L 457.93 84.58 L 459.07 85.60 L 460.21 86.90 L 461.35 88.48 L 462.49 90.34 L 463.63 92.47 L 464.77 94.87 L 465.92 97.52 L 467.06 100.43 L 468.20 103.59 L 469.34 106.98 L 470.48 110.59 L 471.62 114.43 L 472.77 118.47 L 473.91 122.70 L 475.05 127.12 L 476.19 131.71 L 477.33 136.45 L 478.48 141.35 L 479.62 146.37 L 480.76 151.52 L 481.90 156.77 L 483.04 162.11 L 484.18 167.52 L 485.32 173.00 L 486.47 178.52 L 487.61 184.07 L 488.75 189.64 L 489.89 195.20 L 491.03 200.75 L 492.18 206.28 L 493.32 211.75 L 494.46 217.17 L 495.60 222.50 L 496.74 227.75 L 497.88 232.90 L 499.02 237.92 L 500.17 242.82 L 501.31 247.57 L 502.45 252.16 L 503.59 256.57 L 504.73 260.81 L 505.88 264.85 L 507.02 268.68 L 508.16 272.30 L 509.30 275.69 L 510.44 278.84 L 511.58 281.75 L 512.73 284.41 L 513.87 286.80 L 515.01 288.94 L 516.15 290.79 L 517.29 292.38 L 518.43 293.68 L 519.58 294.69 L 520.72 295.42 L 521.86 295.85 L 523.00 296.00 L 524.14 295.85 L 525.28 295.42 L 526.42 294.69 L 527.57 293.68 L 528.71 292.38 L 529.85 290.79 L 530.99 288.94 L 532.13 286.80 L 533.27 284.41 L 534.42 281.75 L 535.56 278.84 L 536.70 275.69 L 537.84 272.30 L 538.98 268.68 L 540.12 264.85 L 541.27 260.81 L 542.41 256.57 L 543.55 252.16 L 544.69 247.57 L 545.83 242.82 L 546.98 237.92 L 548.12 232.90 L 549.26 227.75 L 550.40 222.50 L 551.54 217.17 L 552.68 211.75 L 553.83 206.28 L 554.97 200.75 L 556.11 195.20 L 557.25 189.64 L 558.39 184.07 L 559.53 178.52 L 560.67 173.00 L 561.82 167.52 L 562.96 162.11 L 564.10 156.77 L 565.24 151.52 L 566.38 146.37 L 567.52 141.35 L 568.67 136.45 L 569.81 131.71 L 570.95 127.12 L 572.09 122.70 L 573.23 118.47 L 574.38 114.43 L 575.52 110.59 L 576.66 106.98 L 577.80 103.59 L 578.94 100.43 L 580.08 97.52 L 581.23 94.87 L 582.37 92.47 L 583.51 90.34 L 584.65 88.48 L 585.79 86.90 L 586.93 85.60 L 588.08 84.58 L 589.22 83.86 L 590.36 83.42 L 591.50 83.27 L 592.64 83.42 L 593.78 83.86 L 594.92 84.58 L 596.07 85.60 L 597.21 86.90 L 598.35 88.48 L 599.49 90.34 L 600.63 92.47 L 601.77 94.87 L 602.92 97.52 L 604.06 100.43 L 605.20 103.59 L 606.34 106.98 L 607.48 110.59 L 608.62 114.43 L 609.77 118.47 L 610.91 122.70 L 612.05 127.12 L 613.19 131.71 L 614.33 136.45 L 615.48 141.35 L 616.62 146.37 L 617.76 151.52 L 618.90 156.77 L 620.04 162.11 L 621.18 167.52 L 622.33 173.00 L 623.47 178.52 L 624.61 184.07 L 625.75 189.64 L 626.89 195.20 L 628.03 200.75 L 629.17 206.28 L 630.32 211.75 L 631.46 217.17 L 632.60 222.50 L 633.74 227.75 L 634.88 232.90 L 636.02 237.92 L 637.17 242.82 L 638.31 247.57 L 639.45 252.16 L 640.59 256.57 L 641.73 260.81 L 642.88 264.85 L 644.02 268.68 L 645.16 272.30 L 646.30 275.69 L 647.44 278.84 L 648.58 281.75 L 649.73 284.41 L 650.87 286.80 L 652.01 288.94 L 653.15 290.79 L 654.29 292.38 L 655.43 293.68 L 656.58 294.69 L 657.72 295.42 L 658.86 295.85 L 660.00 296.00" fill="none" stroke="#D55E00" stroke-width="2.4"/>
<text x="523.0" y="54" font-family="'Inter',-apple-system,'Helvetica Neue',sans-serif" font-size="14" fill="#2a1a0e" text-anchor="middle"><tspan>probability densities</tspan></text>
<text x="386" y="314" font-family="'JetBrains Mono','Fira Code','Courier New',monospace" font-size="13" fill="#545454" text-anchor="middle"><tspan>0</tspan></text>
<text x="523.0" y="314" font-family="'JetBrains Mono','Fira Code','Courier New',monospace" font-size="13" fill="#545454" text-anchor="middle"><tspan>L/2</tspan></text>
<text x="660" y="314" font-family="'JetBrains Mono','Fira Code','Courier New',monospace" font-size="13" fill="#545454" text-anchor="middle"><tspan>L</tspan></text>
<text x="523.0" y="332" font-family="'Inter',-apple-system,'Helvetica Neue',sans-serif" font-size="14" fill="#2a1a0e" text-anchor="middle"><tspan>x / L</tspan></text>
<text x="358" y="179.0" font-family="'Inter',-apple-system,'Helvetica Neue',sans-serif" font-size="14" fill="#2a1a0e" text-anchor="middle" transform="rotate(-90, 358, 179.0)"><tspan>|ψ</tspan><tspan dy="2.24" font-size="10.08">n</tspan><tspan dy="-2.24">|</tspan><tspan dy="-5.88" font-size="10.08">2</tspan></text>
<line x1="122.00" y1="352.00" x2="144.00" y2="352.00" stroke="#0072B2" stroke-width="2.4"/>
<text x="152" y="356" font-family="'Inter',-apple-system,'Helvetica Neue',sans-serif" font-size="13" fill="#2a1a0e" text-anchor="start"><tspan>ψ</tspan><tspan dy="2.08" font-size="9.36">1</tspan><tspan dy="-2.08"> — 0 nodes</tspan></text>
<line x1="122.00" y1="372.00" x2="144.00" y2="372.00" stroke="#D55E00" stroke-width="2.4"/>
<text x="152" y="376" font-family="'Inter',-apple-system,'Helvetica Neue',sans-serif" font-size="13" fill="#2a1a0e" text-anchor="start"><tspan>ψ</tspan><tspan dy="2.08" font-size="9.36">2</tspan><tspan dy="-2.08"> — 1 node</tspan></text>
<rect x="430" y="346" width="22" height="12" fill="#CCE5F1" stroke="#0072B2" stroke-width="1.4"/>
<text x="460" y="356" font-family="'Inter',-apple-system,'Helvetica Neue',sans-serif" font-size="13" fill="#2a1a0e" text-anchor="start"><tspan>|ψ</tspan><tspan dy="2.08" font-size="9.36">1</tspan><tspan dy="-2.08">|</tspan><tspan dy="-5.46" font-size="9.36">2</tspan><tspan dy="5.46"> — 1 peak</tspan></text>
<line x1="430.00" y1="372.00" x2="452.00" y2="372.00" stroke="#D55E00" stroke-width="2.4"/>
<text x="460" y="376" font-family="'Inter',-apple-system,'Helvetica Neue',sans-serif" font-size="13" fill="#2a1a0e" text-anchor="start"><tspan>|ψ</tspan><tspan dy="2.08" font-size="9.36">2</tspan><tspan dy="-2.08">|</tspan><tspan dy="-5.46" font-size="9.36">2</tspan><tspan dy="5.46"> — 2 peaks</tspan></text>
<text x="350" y="398" font-family="'Inter',-apple-system,'Helvetica Neue',sans-serif" font-size="13" fill="#545454" text-anchor="middle" font-style="italic"><tspan>ψ</tspan><tspan dy="2.08" font-size="9.36">1</tspan><tspan dy="-2.08"> has no interior node, yet its energy E</tspan><tspan dy="2.08" font-size="9.36">1</tspan><tspan dy="-2.08"> > 0 — the zero-point energy.</tspan></text>
</svg>
