<!-- CAJAL SVG Figure
     Book-slug: quantum-mechanics-vol1
     Chapter: 06-finite-wells-steps-and-barriers
     Figure: 03 — Potential step reflection and transmission
     Type: plot  Author: Humanitarians AI Incorporated  Date-generated: 2026-06-22
-->
<svg viewBox="0 0 700 420" xmlns="http://www.w3.org/2000/svg" role="img" aria-labelledby="ttl-0603">
<title id="ttl-0603">Reflection and transmission at a potential step</title>
<desc>Reflection R and transmission T at a potential step versus E/V0. For E below V0 the reflection is total (R=1, T=0). Above the step R falls and T rises but R stays nonzero — a quantum particle with more than enough energy to clear the step is still partly reflected; R+T=1 throughout.</desc>
<defs><marker id="arr" markerWidth="9" markerHeight="7" refX="7" refY="3.5" orient="auto"><polygon points="0 0, 9 3.5, 0 7" fill="#2a1a0e"/></marker></defs>
<metadata><cajal:figure xmlns:cajal="https://bearbrown.ai/cajal/1.0" book-slug="quantum-mechanics-vol1" chapter="06-finite-wells-steps-and-barriers" figure-number="03" figure-title="Potential step reflection and transmission" figure-slug="step-reflection-transmission" figure-type="plot" priority="Important" author="Humanitarians AI Incorporated" date-generated="2026-06-22" source-file="pantry/06-finite-wells-steps-and-barriers-cajal.md"/></metadata>
<text x="350" y="30" font-family="'EB Garamond','Garamond',Georgia,serif" font-size="18" fill="#2a1a0e" text-anchor="middle"><tspan>Potential step: reflection persists even for E > V</tspan><tspan dy="2.88" font-size="12.96">0</tspan></text>
<rect x="78.00" y="62.00" width="570.00" height="268.00" fill="#F5F5F5" stroke="#D4D4D4" stroke-width="0.75"/>
<line x1="78.00" y1="62.00" x2="648.00" y2="62.00" stroke="#D4D4D4" stroke-width="0.75" stroke-dasharray="4 3"/>
<line x1="268.00" y1="62.00" x2="268.00" y2="330.00" stroke="#D4D4D4" stroke-width="0.75" stroke-dasharray="5 4"/>
<path d="M 78.00 330.00 L 78.95 330.00 L 79.90 330.00 L 80.85 330.00 L 81.80 330.00 L 82.75 330.00 L 83.70 330.00 L 84.65 330.00 L 85.60 330.00 L 86.55 330.00 L 87.50 330.00 L 88.45 330.00 L 89.40 330.00 L 90.35 330.00 L 91.30 330.00 L 92.25 330.00 L 93.20 330.00 L 94.15 330.00 L 95.10 330.00 L 96.05 330.00 L 97.00 330.00 L 97.95 330.00 L 98.90 330.00 L 99.85 330.00 L 100.80 330.00 L 101.75 330.00 L 102.70 330.00 L 103.65 330.00 L 104.60 330.00 L 105.55 330.00 L 106.50 330.00 L 107.45 330.00 L 108.40 330.00 L 109.35 330.00 L 110.30 330.00 L 111.25 330.00 L 112.20 330.00 L 113.15 330.00 L 114.10 330.00 L 115.05 330.00 L 116.00 330.00 L 116.95 330.00 L 117.90 330.00 L 118.85 330.00 L 119.80 330.00 L 120.75 330.00 L 121.70 330.00 L 122.65 330.00 L 123.60 330.00 L 124.55 330.00 L 125.50 330.00 L 126.45 330.00 L 127.40 330.00 L 128.35 330.00 L 129.30 330.00 L 130.25 330.00 L 131.20 330.00 L 132.15 330.00 L 133.10 330.00 L 134.05 330.00 L 135.00 330.00 L 135.95 330.00 L 136.90 330.00 L 137.85 330.00 L 138.80 330.00 L 139.75 330.00 L 140.70 330.00 L 141.65 330.00 L 142.60 330.00 L 143.55 330.00 L 144.50 330.00 L 145.45 330.00 L 146.40 330.00 L 147.35 330.00 L 148.30 330.00 L 149.25 330.00 L 150.20 330.00 L 151.15 330.00 L 152.10 330.00 L 153.05 330.00 L 154.00 330.00 L 154.95 330.00 L 155.90 330.00 L 156.85 330.00 L 157.80 330.00 L 158.75 330.00 L 159.70 330.00 L 160.65 330.00 L 161.60 330.00 L 162.55 330.00 L 163.50 330.00 L 164.45 330.00 L 165.40 330.00 L 166.35 330.00 L 167.30 330.00 L 168.25 330.00 L 169.20 330.00 L 170.15 330.00 L 171.10 330.00 L 172.05 330.00 L 173.00 330.00 L 173.95 330.00 L 174.90 330.00 L 175.85 330.00 L 176.80 330.00 L 177.75 330.00 L 178.70 330.00 L 179.65 330.00 L 180.60 330.00 L 181.55 330.00 L 182.50 330.00 L 183.45 330.00 L 184.40 330.00 L 185.35 330.00 L 186.30 330.00 L 187.25 330.00 L 188.20 330.00 L 189.15 330.00 L 190.10 330.00 L 191.05 330.00 L 192.00 330.00 L 192.95 330.00 L 193.90 330.00 L 194.85 330.00 L 195.80 330.00 L 196.75 330.00 L 197.70 330.00 L 198.65 330.00 L 199.60 330.00 L 200.55 330.00 L 201.50 330.00 L 202.45 330.00 L 203.40 330.00 L 204.35 330.00 L 205.30 330.00 L 206.25 330.00 L 207.20 330.00 L 208.15 330.00 L 209.10 330.00 L 210.05 330.00 L 211.00 330.00 L 211.95 330.00 L 212.90 330.00 L 213.85 330.00 L 214.80 330.00 L 215.75 330.00 L 216.70 330.00 L 217.65 330.00 L 218.60 330.00 L 219.55 330.00 L 220.50 330.00 L 221.45 330.00 L 222.40 330.00 L 223.35 330.00 L 224.30 330.00 L 225.25 330.00 L 226.20 330.00 L 227.15 330.00 L 228.10 330.00 L 229.05 330.00 L 230.00 330.00 L 230.95 330.00 L 231.90 330.00 L 232.85 330.00 L 233.80 330.00 L 234.75 330.00 L 235.70 330.00 L 236.65 330.00 L 237.60 330.00 L 238.55 330.00 L 239.50 330.00 L 240.45 330.00 L 241.40 330.00 L 242.35 330.00 L 243.30 330.00 L 244.25 330.00 L 245.20 330.00 L 246.15 330.00 L 247.10 330.00 L 248.05 330.00 L 249.00 330.00 L 249.95 330.00 L 250.90 330.00 L 251.85 330.00 L 252.80 330.00 L 253.75 330.00 L 254.70 330.00 L 255.65 330.00 L 256.60 330.00 L 257.55 330.00 L 258.50 330.00 L 259.45 330.00 L 260.40 330.00 L 261.35 330.00 L 262.30 330.00 L 263.25 330.00 L 264.20 330.00 L 265.15 330.00 L 266.10 330.00 L 267.05 330.00 L 268.00 330.00 L 268.95 264.02 L 269.90 241.77 L 270.85 226.40 L 271.80 214.50 L 272.75 204.76 L 273.70 196.50 L 274.65 189.35 L 275.60 183.05 L 276.55 177.43 L 277.50 172.37 L 278.45 167.77 L 279.40 163.57 L 280.35 159.70 L 281.30 156.13 L 282.25 152.81 L 283.20 149.72 L 284.15 146.84 L 285.10 144.13 L 286.05 141.59 L 287.00 139.19 L 287.95 136.93 L 288.90 134.79 L 289.85 132.76 L 290.80 130.83 L 291.75 129.00 L 292.70 127.26 L 293.65 125.59 L 294.60 124.00 L 295.55 122.49 L 296.50 121.03 L 297.45 119.64 L 298.40 118.31 L 299.35 117.03 L 300.30 115.80 L 301.25 114.61 L 302.20 113.48 L 303.15 112.38 L 304.10 111.32 L 305.05 110.30 L 306.00 109.32 L 306.95 108.37 L 307.90 107.45 L 308.85 106.57 L 309.80 105.71 L 310.75 104.88 L 311.70 104.08 L 312.65 103.30 L 313.60 102.54 L 314.55 101.81 L 315.50 101.10 L 316.45 100.41 L 317.40 99.74 L 318.35 99.09 L 319.30 98.46 L 320.25 97.85 L 321.20 97.25 L 322.15 96.67 L 323.10 96.10 L 324.05 95.55 L 325.00 95.02 L 325.95 94.50 L 326.90 93.99 L 327.85 93.49 L 328.80 93.01 L 329.75 92.54 L 330.70 92.08 L 331.65 91.63 L 332.60 91.19 L 333.55 90.76 L 334.50 90.35 L 335.45 89.94 L 336.40 89.54 L 337.35 89.15 L 338.30 88.77 L 339.25 88.40 L 340.20 88.04 L 341.15 87.68 L 342.10 87.33 L 343.05 86.99 L 344.00 86.66 L 344.95 86.33 L 345.90 86.01 L 346.85 85.70 L 347.80 85.40 L 348.75 85.10 L 349.70 84.80 L 350.65 84.51 L 351.60 84.23 L 352.55 83.96 L 353.50 83.68 L 354.45 83.42 L 355.40 83.16 L 356.35 82.90 L 357.30 82.65 L 358.25 82.41 L 359.20 82.16 L 360.15 81.93 L 361.10 81.69 L 362.05 81.47 L 363.00 81.24 L 363.95 81.02 L 364.90 80.81 L 365.85 80.59 L 366.80 80.38 L 367.75 80.18 L 368.70 79.98 L 369.65 79.78 L 370.60 79.59 L 371.55 79.39 L 372.50 79.21 L 373.45 79.02 L 374.40 78.84 L 375.35 78.66 L 376.30 78.49 L 377.25 78.31 L 378.20 78.14 L 379.15 77.98 L 380.10 77.81 L 381.05 77.65 L 382.00 77.49 L 382.95 77.33 L 383.90 77.18 L 384.85 77.03 L 385.80 76.88 L 386.75 76.73 L 387.70 76.58 L 388.65 76.44 L 389.60 76.30 L 390.55 76.16 L 391.50 76.03 L 392.45 75.89 L 393.40 75.76 L 394.35 75.63 L 395.30 75.50 L 396.25 75.37 L 397.20 75.25 L 398.15 75.13 L 399.10 75.00 L 400.05 74.88 L 401.00 74.77 L 401.95 74.65 L 402.90 74.54 L 403.85 74.42 L 404.80 74.31 L 405.75 74.20 L 406.70 74.09 L 407.65 73.99 L 408.60 73.88 L 409.55 73.78 L 410.50 73.67 L 411.45 73.57 L 412.40 73.47 L 413.35 73.37 L 414.30 73.28 L 415.25 73.18 L 416.20 73.09 L 417.15 72.99 L 418.10 72.90 L 419.05 72.81 L 420.00 72.72 L 420.95 72.63 L 421.90 72.54 L 422.85 72.46 L 423.80 72.37 L 424.75 72.29 L 425.70 72.20 L 426.65 72.12 L 427.60 72.04 L 428.55 71.96 L 429.50 71.88 L 430.45 71.80 L 431.40 71.73 L 432.35 71.65 L 433.30 71.57 L 434.25 71.50 L 435.20 71.42 L 436.15 71.35 L 437.10 71.28 L 438.05 71.21 L 439.00 71.14 L 439.95 71.07 L 440.90 71.00 L 441.85 70.93 L 442.80 70.87 L 443.75 70.80 L 444.70 70.73 L 445.65 70.67 L 446.60 70.60 L 447.55 70.54 L 448.50 70.48 L 449.45 70.42 L 450.40 70.36 L 451.35 70.29 L 452.30 70.24 L 453.25 70.18 L 454.20 70.12 L 455.15 70.06 L 456.10 70.00 L 457.05 69.95 L 458.00 69.89 L 458.95 69.83 L 459.90 69.78 L 460.85 69.72 L 461.80 69.67 L 462.75 69.62 L 463.70 69.57 L 464.65 69.51 L 465.60 69.46 L 466.55 69.41 L 467.50 69.36 L 468.45 69.31 L 469.40 69.26 L 470.35 69.21 L 471.30 69.16 L 472.25 69.12 L 473.20 69.07 L 474.15 69.02 L 475.10 68.97 L 476.05 68.93 L 477.00 68.88 L 477.95 68.84 L 478.90 68.79 L 479.85 68.75 L 480.80 68.71 L 481.75 68.66 L 482.70 68.62 L 483.65 68.58 L 484.60 68.54 L 485.55 68.49 L 486.50 68.45 L 487.45 68.41 L 488.40 68.37 L 489.35 68.33 L 490.30 68.29 L 491.25 68.25 L 492.20 68.21 L 493.15 68.17 L 494.10 68.14 L 495.05 68.10 L 496.00 68.06 L 496.95 68.02 L 497.90 67.99 L 498.85 67.95 L 499.80 67.91 L 500.75 67.88 L 501.70 67.84 L 502.65 67.81 L 503.60 67.77 L 504.55 67.74 L 505.50 67.70 L 506.45 67.67 L 507.40 67.64 L 508.35 67.60 L 509.30 67.57 L 510.25 67.54 L 511.20 67.51 L 512.15 67.47 L 513.10 67.44 L 514.05 67.41 L 515.00 67.38 L 515.95 67.35 L 516.90 67.32 L 517.85 67.29 L 518.80 67.26 L 519.75 67.23 L 520.70 67.20 L 521.65 67.17 L 522.60 67.14 L 523.55 67.11 L 524.50 67.08 L 525.45 67.05 L 526.40 67.02 L 527.35 67.00 L 528.30 66.97 L 529.25 66.94 L 530.20 66.91 L 531.15 66.89 L 532.10 66.86 L 533.05 66.83 L 534.00 66.81 L 534.95 66.78 L 535.90 66.76 L 536.85 66.73 L 537.80 66.70 L 538.75 66.68 L 539.70 66.65 L 540.65 66.63 L 541.60 66.60 L 542.55 66.58 L 543.50 66.56 L 544.45 66.53 L 545.40 66.51 L 546.35 66.48 L 547.30 66.46 L 548.25 66.44 L 549.20 66.41 L 550.15 66.39 L 551.10 66.37 L 552.05 66.35 L 553.00 66.32 L 553.95 66.30 L 554.90 66.28 L 555.85 66.26 L 556.80 66.24 L 557.75 66.21 L 558.70 66.19 L 559.65 66.17 L 560.60 66.15 L 561.55 66.13 L 562.50 66.11 L 563.45 66.09 L 564.40 66.07 L 565.35 66.05 L 566.30 66.03 L 567.25 66.01 L 568.20 65.99 L 569.15 65.97 L 570.10 65.95 L 571.05 65.93 L 572.00 65.91 L 572.95 65.89 L 573.90 65.87 L 574.85 65.85 L 575.80 65.83 L 576.75 65.82 L 577.70 65.80 L 578.65 65.78 L 579.60 65.76 L 580.55 65.74 L 581.50 65.73 L 582.45 65.71 L 583.40 65.69 L 584.35 65.67 L 585.30 65.65 L 586.25 65.64 L 587.20 65.62 L 588.15 65.60 L 589.10 65.59 L 590.05 65.57 L 591.00 65.55 L 591.95 65.54 L 592.90 65.52 L 593.85 65.50 L 594.80 65.49 L 595.75 65.47 L 596.70 65.46 L 597.65 65.44 L 598.60 65.42 L 599.55 65.41 L 600.50 65.39 L 601.45 65.38 L 602.40 65.36 L 603.35 65.35 L 604.30 65.33 L 605.25 65.32 L 606.20 65.30 L 607.15 65.29 L 608.10 65.27 L 609.05 65.26 L 610.00 65.24 L 610.95 65.23 L 611.90 65.21 L 612.85 65.20 L 613.80 65.19 L 614.75 65.17 L 615.70 65.16 L 616.65 65.14 L 617.60 65.13 L 618.55 65.12 L 619.50 65.10 L 620.45 65.09 L 621.40 65.08 L 622.35 65.06 L 623.30 65.05 L 624.25 65.04 L 625.20 65.02 L 626.15 65.01 L 627.10 65.00 L 628.05 64.99 L 629.00 64.97 L 629.95 64.96 L 630.90 64.95 L 631.85 64.94 L 632.80 64.92 L 633.75 64.91 L 634.70 64.90 L 635.65 64.89 L 636.60 64.87 L 637.55 64.86 L 638.50 64.85 L 639.45 64.84 L 640.40 64.83 L 641.35 64.81 L 642.30 64.80 L 643.25 64.79 L 644.20 64.78 L 645.15 64.77 L 646.10 64.76 L 647.05 64.75 L 648.00 64.73" fill="none" stroke="#0072B2" stroke-width="2.4"/>
<path d="M 78.00 62.00 L 78.95 62.00 L 79.90 62.00 L 80.85 62.00 L 81.80 62.00 L 82.75 62.00 L 83.70 62.00 L 84.65 62.00 L 85.60 62.00 L 86.55 62.00 L 87.50 62.00 L 88.45 62.00 L 89.40 62.00 L 90.35 62.00 L 91.30 62.00 L 92.25 62.00 L 93.20 62.00 L 94.15 62.00 L 95.10 62.00 L 96.05 62.00 L 97.00 62.00 L 97.95 62.00 L 98.90 62.00 L 99.85 62.00 L 100.80 62.00 L 101.75 62.00 L 102.70 62.00 L 103.65 62.00 L 104.60 62.00 L 105.55 62.00 L 106.50 62.00 L 107.45 62.00 L 108.40 62.00 L 109.35 62.00 L 110.30 62.00 L 111.25 62.00 L 112.20 62.00 L 113.15 62.00 L 114.10 62.00 L 115.05 62.00 L 116.00 62.00 L 116.95 62.00 L 117.90 62.00 L 118.85 62.00 L 119.80 62.00 L 120.75 62.00 L 121.70 62.00 L 122.65 62.00 L 123.60 62.00 L 124.55 62.00 L 125.50 62.00 L 126.45 62.00 L 127.40 62.00 L 128.35 62.00 L 129.30 62.00 L 130.25 62.00 L 131.20 62.00 L 132.15 62.00 L 133.10 62.00 L 134.05 62.00 L 135.00 62.00 L 135.95 62.00 L 136.90 62.00 L 137.85 62.00 L 138.80 62.00 L 139.75 62.00 L 140.70 62.00 L 141.65 62.00 L 142.60 62.00 L 143.55 62.00 L 144.50 62.00 L 145.45 62.00 L 146.40 62.00 L 147.35 62.00 L 148.30 62.00 L 149.25 62.00 L 150.20 62.00 L 151.15 62.00 L 152.10 62.00 L 153.05 62.00 L 154.00 62.00 L 154.95 62.00 L 155.90 62.00 L 156.85 62.00 L 157.80 62.00 L 158.75 62.00 L 159.70 62.00 L 160.65 62.00 L 161.60 62.00 L 162.55 62.00 L 163.50 62.00 L 164.45 62.00 L 165.40 62.00 L 166.35 62.00 L 167.30 62.00 L 168.25 62.00 L 169.20 62.00 L 170.15 62.00 L 171.10 62.00 L 172.05 62.00 L 173.00 62.00 L 173.95 62.00 L 174.90 62.00 L 175.85 62.00 L 176.80 62.00 L 177.75 62.00 L 178.70 62.00 L 179.65 62.00 L 180.60 62.00 L 181.55 62.00 L 182.50 62.00 L 183.45 62.00 L 184.40 62.00 L 185.35 62.00 L 186.30 62.00 L 187.25 62.00 L 188.20 62.00 L 189.15 62.00 L 190.10 62.00 L 191.05 62.00 L 192.00 62.00 L 192.95 62.00 L 193.90 62.00 L 194.85 62.00 L 195.80 62.00 L 196.75 62.00 L 197.70 62.00 L 198.65 62.00 L 199.60 62.00 L 200.55 62.00 L 201.50 62.00 L 202.45 62.00 L 203.40 62.00 L 204.35 62.00 L 205.30 62.00 L 206.25 62.00 L 207.20 62.00 L 208.15 62.00 L 209.10 62.00 L 210.05 62.00 L 211.00 62.00 L 211.95 62.00 L 212.90 62.00 L 213.85 62.00 L 214.80 62.00 L 215.75 62.00 L 216.70 62.00 L 217.65 62.00 L 218.60 62.00 L 219.55 62.00 L 220.50 62.00 L 221.45 62.00 L 222.40 62.00 L 223.35 62.00 L 224.30 62.00 L 225.25 62.00 L 226.20 62.00 L 227.15 62.00 L 228.10 62.00 L 229.05 62.00 L 230.00 62.00 L 230.95 62.00 L 231.90 62.00 L 232.85 62.00 L 233.80 62.00 L 234.75 62.00 L 235.70 62.00 L 236.65 62.00 L 237.60 62.00 L 238.55 62.00 L 239.50 62.00 L 240.45 62.00 L 241.40 62.00 L 242.35 62.00 L 243.30 62.00 L 244.25 62.00 L 245.20 62.00 L 246.15 62.00 L 247.10 62.00 L 248.05 62.00 L 249.00 62.00 L 249.95 62.00 L 250.90 62.00 L 251.85 62.00 L 252.80 62.00 L 253.75 62.00 L 254.70 62.00 L 255.65 62.00 L 256.60 62.00 L 257.55 62.00 L 258.50 62.00 L 259.45 62.00 L 260.40 62.00 L 261.35 62.00 L 262.30 62.00 L 263.25 62.00 L 264.20 62.00 L 265.15 62.00 L 266.10 62.00 L 267.05 62.00 L 268.00 62.00 L 268.95 127.98 L 269.90 150.23 L 270.85 165.60 L 271.80 177.50 L 272.75 187.24 L 273.70 195.50 L 274.65 202.65 L 275.60 208.95 L 276.55 214.57 L 277.50 219.63 L 278.45 224.23 L 279.40 228.43 L 280.35 232.30 L 281.30 235.87 L 282.25 239.19 L 283.20 242.28 L 284.15 245.16 L 285.10 247.87 L 286.05 250.41 L 287.00 252.81 L 287.95 255.07 L 288.90 257.21 L 289.85 259.24 L 290.80 261.17 L 291.75 263.00 L 292.70 264.74 L 293.65 266.41 L 294.60 268.00 L 295.55 269.51 L 296.50 270.97 L 297.45 272.36 L 298.40 273.69 L 299.35 274.97 L 300.30 276.20 L 301.25 277.39 L 302.20 278.52 L 303.15 279.62 L 304.10 280.68 L 305.05 281.70 L 306.00 282.68 L 306.95 283.63 L 307.90 284.55 L 308.85 285.43 L 309.80 286.29 L 310.75 287.12 L 311.70 287.92 L 312.65 288.70 L 313.60 289.46 L 314.55 290.19 L 315.50 290.90 L 316.45 291.59 L 317.40 292.26 L 318.35 292.91 L 319.30 293.54 L 320.25 294.15 L 321.20 294.75 L 322.15 295.33 L 323.10 295.90 L 324.05 296.45 L 325.00 296.98 L 325.95 297.50 L 326.90 298.01 L 327.85 298.51 L 328.80 298.99 L 329.75 299.46 L 330.70 299.92 L 331.65 300.37 L 332.60 300.81 L 333.55 301.24 L 334.50 301.65 L 335.45 302.06 L 336.40 302.46 L 337.35 302.85 L 338.30 303.23 L 339.25 303.60 L 340.20 303.96 L 341.15 304.32 L 342.10 304.67 L 343.05 305.01 L 344.00 305.34 L 344.95 305.67 L 345.90 305.99 L 346.85 306.30 L 347.80 306.60 L 348.75 306.90 L 349.70 307.20 L 350.65 307.49 L 351.60 307.77 L 352.55 308.04 L 353.50 308.32 L 354.45 308.58 L 355.40 308.84 L 356.35 309.10 L 357.30 309.35 L 358.25 309.59 L 359.20 309.84 L 360.15 310.07 L 361.10 310.31 L 362.05 310.53 L 363.00 310.76 L 363.95 310.98 L 364.90 311.19 L 365.85 311.41 L 366.80 311.62 L 367.75 311.82 L 368.70 312.02 L 369.65 312.22 L 370.60 312.41 L 371.55 312.61 L 372.50 312.79 L 373.45 312.98 L 374.40 313.16 L 375.35 313.34 L 376.30 313.51 L 377.25 313.69 L 378.20 313.86 L 379.15 314.02 L 380.10 314.19 L 381.05 314.35 L 382.00 314.51 L 382.95 314.67 L 383.90 314.82 L 384.85 314.97 L 385.80 315.12 L 386.75 315.27 L 387.70 315.42 L 388.65 315.56 L 389.60 315.70 L 390.55 315.84 L 391.50 315.97 L 392.45 316.11 L 393.40 316.24 L 394.35 316.37 L 395.30 316.50 L 396.25 316.63 L 397.20 316.75 L 398.15 316.87 L 399.10 317.00 L 400.05 317.12 L 401.00 317.23 L 401.95 317.35 L 402.90 317.46 L 403.85 317.58 L 404.80 317.69 L 405.75 317.80 L 406.70 317.91 L 407.65 318.01 L 408.60 318.12 L 409.55 318.22 L 410.50 318.33 L 411.45 318.43 L 412.40 318.53 L 413.35 318.63 L 414.30 318.72 L 415.25 318.82 L 416.20 318.91 L 417.15 319.01 L 418.10 319.10 L 419.05 319.19 L 420.00 319.28 L 420.95 319.37 L 421.90 319.46 L 422.85 319.54 L 423.80 319.63 L 424.75 319.71 L 425.70 319.80 L 426.65 319.88 L 427.60 319.96 L 428.55 320.04 L 429.50 320.12 L 430.45 320.20 L 431.40 320.27 L 432.35 320.35 L 433.30 320.43 L 434.25 320.50 L 435.20 320.58 L 436.15 320.65 L 437.10 320.72 L 438.05 320.79 L 439.00 320.86 L 439.95 320.93 L 440.90 321.00 L 441.85 321.07 L 442.80 321.13 L 443.75 321.20 L 444.70 321.27 L 445.65 321.33 L 446.60 321.40 L 447.55 321.46 L 448.50 321.52 L 449.45 321.58 L 450.40 321.64 L 451.35 321.71 L 452.30 321.76 L 453.25 321.82 L 454.20 321.88 L 455.15 321.94 L 456.10 322.00 L 457.05 322.05 L 458.00 322.11 L 458.95 322.17 L 459.90 322.22 L 460.85 322.28 L 461.80 322.33 L 462.75 322.38 L 463.70 322.43 L 464.65 322.49 L 465.60 322.54 L 466.55 322.59 L 467.50 322.64 L 468.45 322.69 L 469.40 322.74 L 470.35 322.79 L 471.30 322.84 L 472.25 322.88 L 473.20 322.93 L 474.15 322.98 L 475.10 323.03 L 476.05 323.07 L 477.00 323.12 L 477.95 323.16 L 478.90 323.21 L 479.85 323.25 L 480.80 323.29 L 481.75 323.34 L 482.70 323.38 L 483.65 323.42 L 484.60 323.46 L 485.55 323.51 L 486.50 323.55 L 487.45 323.59 L 488.40 323.63 L 489.35 323.67 L 490.30 323.71 L 491.25 323.75 L 492.20 323.79 L 493.15 323.83 L 494.10 323.86 L 495.05 323.90 L 496.00 323.94 L 496.95 323.98 L 497.90 324.01 L 498.85 324.05 L 499.80 324.09 L 500.75 324.12 L 501.70 324.16 L 502.65 324.19 L 503.60 324.23 L 504.55 324.26 L 505.50 324.30 L 506.45 324.33 L 507.40 324.36 L 508.35 324.40 L 509.30 324.43 L 510.25 324.46 L 511.20 324.49 L 512.15 324.53 L 513.10 324.56 L 514.05 324.59 L 515.00 324.62 L 515.95 324.65 L 516.90 324.68 L 517.85 324.71 L 518.80 324.74 L 519.75 324.77 L 520.70 324.80 L 521.65 324.83 L 522.60 324.86 L 523.55 324.89 L 524.50 324.92 L 525.45 324.95 L 526.40 324.98 L 527.35 325.00 L 528.30 325.03 L 529.25 325.06 L 530.20 325.09 L 531.15 325.11 L 532.10 325.14 L 533.05 325.17 L 534.00 325.19 L 534.95 325.22 L 535.90 325.24 L 536.85 325.27 L 537.80 325.30 L 538.75 325.32 L 539.70 325.35 L 540.65 325.37 L 541.60 325.40 L 542.55 325.42 L 543.50 325.44 L 544.45 325.47 L 545.40 325.49 L 546.35 325.52 L 547.30 325.54 L 548.25 325.56 L 549.20 325.59 L 550.15 325.61 L 551.10 325.63 L 552.05 325.65 L 553.00 325.68 L 553.95 325.70 L 554.90 325.72 L 555.85 325.74 L 556.80 325.76 L 557.75 325.79 L 558.70 325.81 L 559.65 325.83 L 560.60 325.85 L 561.55 325.87 L 562.50 325.89 L 563.45 325.91 L 564.40 325.93 L 565.35 325.95 L 566.30 325.97 L 567.25 325.99 L 568.20 326.01 L 569.15 326.03 L 570.10 326.05 L 571.05 326.07 L 572.00 326.09 L 572.95 326.11 L 573.90 326.13 L 574.85 326.15 L 575.80 326.17 L 576.75 326.18 L 577.70 326.20 L 578.65 326.22 L 579.60 326.24 L 580.55 326.26 L 581.50 326.27 L 582.45 326.29 L 583.40 326.31 L 584.35 326.33 L 585.30 326.35 L 586.25 326.36 L 587.20 326.38 L 588.15 326.40 L 589.10 326.41 L 590.05 326.43 L 591.00 326.45 L 591.95 326.46 L 592.90 326.48 L 593.85 326.50 L 594.80 326.51 L 595.75 326.53 L 596.70 326.54 L 597.65 326.56 L 598.60 326.58 L 599.55 326.59 L 600.50 326.61 L 601.45 326.62 L 602.40 326.64 L 603.35 326.65 L 604.30 326.67 L 605.25 326.68 L 606.20 326.70 L 607.15 326.71 L 608.10 326.73 L 609.05 326.74 L 610.00 326.76 L 610.95 326.77 L 611.90 326.79 L 612.85 326.80 L 613.80 326.81 L 614.75 326.83 L 615.70 326.84 L 616.65 326.86 L 617.60 326.87 L 618.55 326.88 L 619.50 326.90 L 620.45 326.91 L 621.40 326.92 L 622.35 326.94 L 623.30 326.95 L 624.25 326.96 L 625.20 326.98 L 626.15 326.99 L 627.10 327.00 L 628.05 327.01 L 629.00 327.03 L 629.95 327.04 L 630.90 327.05 L 631.85 327.06 L 632.80 327.08 L 633.75 327.09 L 634.70 327.10 L 635.65 327.11 L 636.60 327.13 L 637.55 327.14 L 638.50 327.15 L 639.45 327.16 L 640.40 327.17 L 641.35 327.19 L 642.30 327.20 L 643.25 327.21 L 644.20 327.22 L 645.15 327.23 L 646.10 327.24 L 647.05 327.25 L 648.00 327.27" fill="none" stroke="#D55E00" stroke-width="2.4"/>
<text x="70" y="334" font-family="'JetBrains Mono','Fira Code','Courier New',monospace" font-size="12" fill="#545454" text-anchor="end"><tspan>0.0</tspan></text>
<text x="70" y="280.4" font-family="'JetBrains Mono','Fira Code','Courier New',monospace" font-size="12" fill="#545454" text-anchor="end"><tspan>0.2</tspan></text>
<text x="70" y="226.8" font-family="'JetBrains Mono','Fira Code','Courier New',monospace" font-size="12" fill="#545454" text-anchor="end"><tspan>0.4</tspan></text>
<text x="70" y="173.20000000000002" font-family="'JetBrains Mono','Fira Code','Courier New',monospace" font-size="12" fill="#545454" text-anchor="end"><tspan>0.6</tspan></text>
<text x="70" y="119.6" font-family="'JetBrains Mono','Fira Code','Courier New',monospace" font-size="12" fill="#545454" text-anchor="end"><tspan>0.8</tspan></text>
<text x="70" y="66.0" font-family="'JetBrains Mono','Fira Code','Courier New',monospace" font-size="12" fill="#545454" text-anchor="end"><tspan>1.0</tspan></text>
<text x="78.0" y="348" font-family="'JetBrains Mono','Fira Code','Courier New',monospace" font-size="12" fill="#545454" text-anchor="middle"><tspan>0.0</tspan></text>
<text x="173.0" y="348" font-family="'JetBrains Mono','Fira Code','Courier New',monospace" font-size="12" fill="#545454" text-anchor="middle"><tspan>0.5</tspan></text>
<text x="268.0" y="348" font-family="'JetBrains Mono','Fira Code','Courier New',monospace" font-size="12" fill="#545454" text-anchor="middle"><tspan>1.0</tspan></text>
<text x="363.0" y="348" font-family="'JetBrains Mono','Fira Code','Courier New',monospace" font-size="12" fill="#545454" text-anchor="middle"><tspan>1.5</tspan></text>
<text x="458.0" y="348" font-family="'JetBrains Mono','Fira Code','Courier New',monospace" font-size="12" fill="#545454" text-anchor="middle"><tspan>2.0</tspan></text>
<text x="553.0" y="348" font-family="'JetBrains Mono','Fira Code','Courier New',monospace" font-size="12" fill="#545454" text-anchor="middle"><tspan>2.5</tspan></text>
<text x="648.0" y="348" font-family="'JetBrains Mono','Fira Code','Courier New',monospace" font-size="12" fill="#545454" text-anchor="middle"><tspan>3.0</tspan></text>
<text x="363.0" y="368" font-family="'Inter',-apple-system,'Helvetica Neue',sans-serif" font-size="14" fill="#2a1a0e" text-anchor="middle"><tspan>E / V</tspan><tspan dy="2.24" font-size="10.08">0</tspan></text>
<text x="40" y="196.0" font-family="'Inter',-apple-system,'Helvetica Neue',sans-serif" font-size="14" fill="#2a1a0e" text-anchor="middle" transform="rotate(-90, 40, 196.0)"><tspan>probability</tspan></text>
<text x="274.0" y="76" font-family="'Inter',-apple-system,'Helvetica Neue',sans-serif" font-size="12" fill="#545454" text-anchor="start"><tspan>E = V</tspan><tspan dy="1.92" font-size="8.64">0</tspan></text>
<line x1="401.00" y1="92.00" x2="423.00" y2="92.00" stroke="#D55E00" stroke-width="2.4"/>
<text x="429.0" y="96" font-family="'Inter',-apple-system,'Helvetica Neue',sans-serif" font-size="13" fill="#2a1a0e" text-anchor="start"><tspan>R(E) — reflection</tspan></text>
<line x1="401.00" y1="112.00" x2="423.00" y2="112.00" stroke="#0072B2" stroke-width="2.4"/>
<text x="429.0" y="116" font-family="'Inter',-apple-system,'Helvetica Neue',sans-serif" font-size="13" fill="#2a1a0e" text-anchor="start"><tspan>T(E) — transmission</tspan></text>
</svg>
