<!-- CAJAL SVG Figure
     Book-slug: quantum-mechanics-vol1
     Chapter: 06-finite-wells-steps-and-barriers
     Figure: 01 — Graphical solution for finite-well bound states
     Type: plot  Author: Humanitarians AI Incorporated  Date-generated: 2026-06-22
-->
<svg viewBox="0 0 700 380" xmlns="http://www.w3.org/2000/svg" role="img" aria-labelledby="ttl-0601">
<title id="ttl-0601">Graphical solution for the finite square well bound states</title>
<desc>Two panels. A quarter-circle of radius z0 is intersected by the z·tan z branches (even states) and the −z·cot z branches (odd states). For z0 = 3π/4 there are two crossings (two bound states); for z0 = 3π/2 there are four. Each crossing is one bound state, labelled E1, E2, … in order of increasing energy.</desc>
<defs><marker id="arr" markerWidth="9" markerHeight="7" refX="7" refY="3.5" orient="auto"><polygon points="0 0, 9 3.5, 0 7" fill="#2a1a0e"/></marker></defs>
<metadata><cajal:figure xmlns:cajal="https://bearbrown.ai/cajal/1.0" book-slug="quantum-mechanics-vol1" chapter="06-finite-wells-steps-and-barriers" figure-number="01" figure-title="Graphical solution for finite-well bound states" figure-slug="finite-well-graphical-solution" figure-type="plot" priority="Important" author="Humanitarians AI Incorporated" date-generated="2026-06-22" source-file="pantry/06-finite-wells-steps-and-barriers-cajal.md"/></metadata>
<text x="350" y="28" font-family="'EB Garamond','Garamond',Georgia,serif" font-size="18" fill="#2a1a0e" text-anchor="middle"><tspan>Graphical solution for finite-well bound states</tspan></text>
<rect x="64.00" y="66.00" width="268.00" height="234.00" fill="#F5F5F5" stroke="#D4D4D4" stroke-width="0.75"/>
<text x="198.0" y="56" font-family="'Inter',-apple-system,'Helvetica Neue',sans-serif" font-size="14" fill="#2a1a0e" text-anchor="middle"><tspan>z₀ = 3π/4: two bound states</tspan></text>
<path d="M 64.00 75.00 L 65.11 75.00 L 66.21 75.01 L 67.32 75.03 L 68.42 75.05 L 69.53 75.07 L 70.63 75.10 L 71.74 75.14 L 72.84 75.18 L 73.95 75.23 L 75.05 75.28 L 76.16 75.34 L 77.27 75.41 L 78.37 75.48 L 79.48 75.55 L 80.58 75.63 L 81.69 75.72 L 82.79 75.81 L 83.90 75.91 L 85.00 76.02 L 86.11 76.13 L 87.21 76.24 L 88.32 76.37 L 89.42 76.49 L 90.53 76.63 L 91.64 76.76 L 92.74 76.91 L 93.85 77.06 L 94.95 77.22 L 96.06 77.38 L 97.16 77.55 L 98.27 77.72 L 99.37 77.90 L 100.48 78.08 L 101.58 78.28 L 102.69 78.47 L 103.80 78.68 L 104.90 78.88 L 106.01 79.10 L 107.11 79.32 L 108.22 79.55 L 109.32 79.78 L 110.43 80.02 L 111.53 80.26 L 112.64 80.51 L 113.74 80.77 L 114.85 81.03 L 115.95 81.30 L 117.06 81.58 L 118.17 81.86 L 119.27 82.14 L 120.38 82.44 L 121.48 82.74 L 122.59 83.04 L 123.69 83.36 L 124.80 83.68 L 125.90 84.00 L 127.01 84.33 L 128.11 84.67 L 129.22 85.01 L 130.33 85.36 L 131.43 85.72 L 132.54 86.08 L 133.64 86.45 L 134.75 86.83 L 135.85 87.21 L 136.96 87.60 L 138.06 88.00 L 139.17 88.40 L 140.27 88.81 L 141.38 89.23 L 142.48 89.66 L 143.59 90.09 L 144.70 90.52 L 145.80 90.97 L 146.91 91.42 L 148.01 91.88 L 149.12 92.34 L 150.22 92.82 L 151.33 93.30 L 152.43 93.78 L 153.54 94.28 L 154.64 94.78 L 155.75 95.29 L 156.86 95.81 L 157.96 96.33 L 159.07 96.86 L 160.17 97.40 L 161.28 97.95 L 162.38 98.51 L 163.49 99.07 L 164.59 99.64 L 165.70 100.22 L 166.80 100.81 L 167.91 101.40 L 169.02 102.00 L 170.12 102.61 L 171.23 103.23 L 172.33 103.86 L 173.44 104.50 L 174.54 105.14 L 175.65 105.80 L 176.75 106.46 L 177.86 107.13 L 178.96 107.81 L 180.07 108.50 L 181.17 109.20 L 182.28 109.91 L 183.39 110.63 L 184.49 111.35 L 185.60 112.09 L 186.70 112.83 L 187.81 113.59 L 188.91 114.35 L 190.02 115.13 L 191.12 115.92 L 192.23 116.71 L 193.33 117.52 L 194.44 118.33 L 195.55 119.16 L 196.65 120.00 L 197.76 120.85 L 198.86 121.71 L 199.97 122.58 L 201.07 123.46 L 202.18 124.36 L 203.28 125.27 L 204.39 126.18 L 205.49 127.12 L 206.60 128.06 L 207.70 129.01 L 208.81 129.98 L 209.92 130.97 L 211.02 131.96 L 212.13 132.97 L 213.23 133.99 L 214.34 135.03 L 215.44 136.08 L 216.55 137.14 L 217.65 138.22 L 218.76 139.32 L 219.86 140.43 L 220.97 141.55 L 222.08 142.70 L 223.18 143.86 L 224.29 145.03 L 225.39 146.22 L 226.50 147.43 L 227.60 148.66 L 228.71 149.91 L 229.81 151.18 L 230.92 152.46 L 232.02 153.77 L 233.13 155.09 L 234.24 156.44 L 235.34 157.81 L 236.45 159.20 L 237.55 160.61 L 238.66 162.05 L 239.76 163.51 L 240.87 165.00 L 241.97 166.51 L 243.08 168.05 L 244.18 169.62 L 245.29 171.22 L 246.39 172.85 L 247.50 174.50 L 248.61 176.19 L 249.71 177.92 L 250.82 179.68 L 251.92 181.47 L 253.03 183.31 L 254.13 185.18 L 255.24 187.10 L 256.34 189.06 L 257.45 191.07 L 258.55 193.13 L 259.66 195.24 L 260.77 197.41 L 261.87 199.64 L 262.98 201.92 L 264.08 204.28 L 265.19 206.71 L 266.29 209.22 L 267.40 211.82 L 268.50 214.51 L 269.61 217.30 L 270.71 220.20 L 271.82 223.24 L 272.92 226.41 L 274.03 229.74 L 275.14 233.26 L 276.24 237.00 L 277.35 240.99 L 278.45 245.30 L 279.56 250.00 L 280.66 255.23 L 281.77 261.18 L 282.87 268.26 L 283.98 277.53 L 285.08 300.00" fill="none" stroke="#0072B2" stroke-width="2.4"/>
<path d="M 64.01 300.00 L 65.24 299.98 L 66.46 299.93 L 67.69 299.85 L 68.92 299.74 L 70.15 299.59 L 71.37 299.41 L 72.60 299.20 L 73.83 298.95 L 75.06 298.67 L 76.28 298.35 L 77.51 298.01 L 78.74 297.62 L 79.97 297.21 L 81.19 296.76 L 82.42 296.27 L 83.65 295.75 L 84.87 295.19 L 86.10 294.60 L 87.33 293.97 L 88.56 293.31 L 89.78 292.60 L 91.01 291.86 L 92.24 291.08 L 93.47 290.26 L 94.69 289.40 L 95.92 288.50 L 97.15 287.56 L 98.38 286.58 L 99.60 285.55 L 100.83 284.48 L 102.06 283.37 L 103.29 282.21 L 104.51 281.00 L 105.74 279.75 L 106.97 278.45 L 108.20 277.10 L 109.42 275.69 L 110.65 274.24 L 111.88 272.73 L 113.10 271.16 L 114.33 269.54 L 115.56 267.87 L 116.79 266.13 L 118.01 264.33 L 119.24 262.46 L 120.47 260.53 L 121.70 258.53 L 122.92 256.46 L 124.15 254.32 L 125.38 252.10 L 126.61 249.81 L 127.83 247.43 L 129.06 244.97 L 130.29 242.43 L 131.52 239.79 L 132.74 237.06 L 133.97 234.23 L 135.20 231.30 L 136.43 228.26 L 137.65 225.11 L 138.88 221.84 L 140.11 218.46 L 141.33 214.94 L 142.56 211.29 L 143.79 207.50 L 145.02 203.56 L 146.24 199.47 L 147.47 195.21 L 148.70 190.78 L 149.93 186.16 L 151.15 181.36 L 152.38 176.34 L 153.61 171.12 L 154.84 165.66 L 156.06 159.96 L 157.29 153.99 L 158.52 147.75 L 159.75 141.21 L 160.97 134.35 L 162.20 127.15 L 163.43 119.59 L 164.66 111.63 L 165.88 103.24 L 167.11 94.39 L 168.34 85.05 L 169.56 75.16" fill="none" stroke="#D55E00" stroke-width="2.0"/>
<path d="M 211.48 299.85 L 212.49 298.23 L 213.49 296.59 L 214.50 294.93 L 215.50 293.24 L 216.50 291.53 L 217.51 289.80 L 218.51 288.04 L 219.52 286.26 L 220.52 284.45 L 221.53 282.61 L 222.53 280.75 L 223.54 278.87 L 224.54 276.95 L 225.54 275.01 L 226.55 273.04 L 227.55 271.04 L 228.56 269.01 L 229.56 266.96 L 230.57 264.87 L 231.57 262.75 L 232.57 260.60 L 233.58 258.41 L 234.58 256.19 L 235.59 253.94 L 236.59 251.66 L 237.60 249.33 L 238.60 246.98 L 239.60 244.58 L 240.61 242.15 L 241.61 239.68 L 242.62 237.17 L 243.62 234.61 L 244.63 232.02 L 245.63 229.38 L 246.63 226.70 L 247.64 223.98 L 248.64 221.21 L 249.65 218.39 L 250.65 215.53 L 251.66 212.61 L 252.66 209.65 L 253.66 206.63 L 254.67 203.56 L 255.67 200.43 L 256.68 197.25 L 257.68 194.01 L 258.69 190.71 L 259.69 187.35 L 260.69 183.93 L 261.70 180.44 L 262.70 176.89 L 263.71 173.26 L 264.71 169.57 L 265.72 165.80 L 266.72 161.96 L 267.72 158.04 L 268.73 154.04 L 269.73 149.96 L 270.74 145.79 L 271.74 141.53 L 272.75 137.19 L 273.75 132.75 L 274.75 128.21 L 275.76 123.57 L 276.76 118.83 L 277.77 113.98 L 278.77 109.02 L 279.78 103.94 L 280.78 98.74 L 281.78 93.42 L 282.79 87.97 L 283.79 82.39 L 284.80 76.66 L 285.80 70.79" fill="none" stroke="#BF7400" stroke-width="2.0"/>
<circle cx="166.27" cy="100.52" r="4.5" fill="#2a1a0e"/>
<text x="172.26700181942329" y="93.518866841864" font-family="'Inter',-apple-system,'Helvetica Neue',sans-serif" font-size="12" fill="#2a1a0e" text-anchor="start"><tspan>E</tspan><tspan dy="1.92" font-size="8.64">1</tspan></text>
<circle cx="258.17" cy="192.41" r="4.5" fill="#2a1a0e"/>
<text x="264.17110550966106" y="185.41152996814378" font-family="'Inter',-apple-system,'Helvetica Neue',sans-serif" font-size="12" fill="#2a1a0e" text-anchor="start"><tspan>E</tspan><tspan dy="1.92" font-size="8.64">2</tspan></text>
<text x="64.0" y="318" font-family="'JetBrains Mono','Fira Code','Courier New',monospace" font-size="12" fill="#545454" text-anchor="middle"><tspan>0</tspan></text>
<text x="157.831145224971" y="318" font-family="'JetBrains Mono','Fira Code','Courier New',monospace" font-size="12" fill="#545454" text-anchor="middle"><tspan>1</tspan></text>
<text x="251.66229044994205" y="318" font-family="'JetBrains Mono','Fira Code','Courier New',monospace" font-size="12" fill="#545454" text-anchor="middle"><tspan>2</tspan></text>
<text x="198.0" y="336" font-family="'Inter',-apple-system,'Helvetica Neue',sans-serif" font-size="14" fill="#2a1a0e" text-anchor="middle"><tspan>z = kL/2</tspan></text>
<rect x="380.00" y="66.00" width="268.00" height="234.00" fill="#F5F5F5" stroke="#D4D4D4" stroke-width="0.75"/>
<text x="514.0" y="56" font-family="'Inter',-apple-system,'Helvetica Neue',sans-serif" font-size="14" fill="#2a1a0e" text-anchor="middle"><tspan>z₀ = 7π/4: four bound states</tspan></text>
<path d="M 380.00 75.00 L 381.23 75.00 L 382.46 75.01 L 383.68 75.03 L 384.91 75.05 L 386.14 75.07 L 387.37 75.10 L 388.60 75.14 L 389.83 75.18 L 391.05 75.23 L 392.28 75.28 L 393.51 75.34 L 394.74 75.41 L 395.97 75.48 L 397.20 75.55 L 398.42 75.63 L 399.65 75.72 L 400.88 75.81 L 402.11 75.91 L 403.34 76.02 L 404.57 76.13 L 405.79 76.24 L 407.02 76.37 L 408.25 76.49 L 409.48 76.63 L 410.71 76.76 L 411.94 76.91 L 413.16 77.06 L 414.39 77.22 L 415.62 77.38 L 416.85 77.55 L 418.08 77.72 L 419.31 77.90 L 420.53 78.08 L 421.76 78.28 L 422.99 78.47 L 424.22 78.68 L 425.45 78.88 L 426.68 79.10 L 427.90 79.32 L 429.13 79.55 L 430.36 79.78 L 431.59 80.02 L 432.82 80.26 L 434.04 80.51 L 435.27 80.77 L 436.50 81.03 L 437.73 81.30 L 438.96 81.58 L 440.19 81.86 L 441.41 82.14 L 442.64 82.44 L 443.87 82.74 L 445.10 83.04 L 446.33 83.36 L 447.56 83.68 L 448.78 84.00 L 450.01 84.33 L 451.24 84.67 L 452.47 85.01 L 453.70 85.36 L 454.93 85.72 L 456.15 86.08 L 457.38 86.45 L 458.61 86.83 L 459.84 87.21 L 461.07 87.60 L 462.30 88.00 L 463.52 88.40 L 464.75 88.81 L 465.98 89.23 L 467.21 89.66 L 468.44 90.09 L 469.67 90.52 L 470.89 90.97 L 472.12 91.42 L 473.35 91.88 L 474.58 92.34 L 475.81 92.82 L 477.04 93.30 L 478.26 93.78 L 479.49 94.28 L 480.72 94.78 L 481.95 95.29 L 483.18 95.81 L 484.40 96.33 L 485.63 96.86 L 486.86 97.40 L 488.09 97.95 L 489.32 98.51 L 490.55 99.07 L 491.77 99.64 L 493.00 100.22 L 494.23 100.81 L 495.46 101.40 L 496.69 102.00 L 497.92 102.61 L 499.14 103.23 L 500.37 103.86 L 501.60 104.50 L 502.83 105.14 L 504.06 105.80 L 505.29 106.46 L 506.51 107.13 L 507.74 107.81 L 508.97 108.50 L 510.20 109.20 L 511.43 109.91 L 512.66 110.63 L 513.88 111.35 L 515.11 112.09 L 516.34 112.83 L 517.57 113.59 L 518.80 114.35 L 520.03 115.13 L 521.25 115.92 L 522.48 116.71 L 523.71 117.52 L 524.94 118.33 L 526.17 119.16 L 527.40 120.00 L 528.62 120.85 L 529.85 121.71 L 531.08 122.58 L 532.31 123.46 L 533.54 124.36 L 534.76 125.27 L 535.99 126.18 L 537.22 127.12 L 538.45 128.06 L 539.68 129.01 L 540.91 129.98 L 542.13 130.97 L 543.36 131.96 L 544.59 132.97 L 545.82 133.99 L 547.05 135.03 L 548.28 136.08 L 549.50 137.14 L 550.73 138.22 L 551.96 139.32 L 553.19 140.43 L 554.42 141.55 L 555.65 142.70 L 556.87 143.86 L 558.10 145.03 L 559.33 146.22 L 560.56 147.43 L 561.79 148.66 L 563.02 149.91 L 564.24 151.18 L 565.47 152.46 L 566.70 153.77 L 567.93 155.09 L 569.16 156.44 L 570.39 157.81 L 571.61 159.20 L 572.84 160.61 L 574.07 162.05 L 575.30 163.51 L 576.53 165.00 L 577.76 166.51 L 578.98 168.05 L 580.21 169.62 L 581.44 171.22 L 582.67 172.85 L 583.90 174.50 L 585.12 176.19 L 586.35 177.92 L 587.58 179.68 L 588.81 181.47 L 590.04 183.31 L 591.27 185.18 L 592.49 187.10 L 593.72 189.06 L 594.95 191.07 L 596.18 193.13 L 597.41 195.24 L 598.64 197.41 L 599.86 199.64 L 601.09 201.92 L 602.32 204.28 L 603.55 206.71 L 604.78 209.22 L 606.01 211.82 L 607.23 214.51 L 608.46 217.30 L 609.69 220.20 L 610.92 223.24 L 612.15 226.41 L 613.38 229.74 L 614.60 233.26 L 615.83 237.00 L 617.06 240.99 L 618.29 245.30 L 619.52 250.00 L 620.75 255.23 L 621.97 261.18 L 623.20 268.26 L 624.43 277.53 L 625.66 300.00" fill="none" stroke="#0072B2" stroke-width="2.4"/>
<path d="M 380.00 300.00 L 380.59 299.99 L 381.17 299.97 L 381.76 299.94 L 382.34 299.89 L 382.93 299.82 L 383.51 299.75 L 384.10 299.66 L 384.68 299.55 L 385.26 299.43 L 385.85 299.29 L 386.43 299.15 L 387.02 298.98 L 387.60 298.80 L 388.19 298.61 L 388.77 298.40 L 389.36 298.18 L 389.94 297.94 L 390.53 297.69 L 391.11 297.42 L 391.69 297.13 L 392.28 296.83 L 392.86 296.51 L 393.45 296.18 L 394.03 295.83 L 394.62 295.46 L 395.20 295.07 L 395.79 294.67 L 396.37 294.25 L 396.95 293.81 L 397.54 293.35 L 398.12 292.87 L 398.71 292.38 L 399.29 291.86 L 399.88 291.32 L 400.46 290.76 L 401.05 290.18 L 401.63 289.58 L 402.22 288.96 L 402.80 288.31 L 403.38 287.64 L 403.97 286.95 L 404.55 286.23 L 405.14 285.48 L 405.72 284.71 L 406.31 283.91 L 406.89 283.08 L 407.48 282.23 L 408.06 281.34 L 408.64 280.42 L 409.23 279.47 L 409.81 278.49 L 410.40 277.47 L 410.98 276.42 L 411.57 275.33 L 412.15 274.20 L 412.74 273.03 L 413.32 271.81 L 413.90 270.56 L 414.49 269.25 L 415.07 267.90 L 415.66 266.50 L 416.24 265.05 L 416.83 263.55 L 417.41 261.98 L 418.00 260.36 L 418.58 258.67 L 419.17 256.91 L 419.75 255.09 L 420.33 253.19 L 420.92 251.21 L 421.50 249.15 L 422.09 247.00 L 422.67 244.76 L 423.26 242.43 L 423.84 239.98 L 424.43 237.42 L 425.01 234.75 L 425.59 231.95 L 426.18 229.01 L 426.76 225.92 L 427.35 222.68 L 427.93 219.27 L 428.52 215.67 L 429.10 211.88 L 429.69 207.88 L 430.27 203.64 L 430.86 199.15 L 431.44 194.38 L 432.02 189.31 L 432.61 183.91 L 433.19 178.14 L 433.78 171.97 L 434.36 165.35 L 434.95 158.23 L 435.53 150.55 L 436.12 142.24 L 436.70 133.22 L 437.28 123.39 L 437.87 112.65 L 438.45 100.84 L 439.04 87.82 L 439.62 73.37" fill="none" stroke="#D55E00" stroke-width="2.0"/>
<path d="M 520.38 299.99 L 520.97 298.30 L 521.55 296.59 L 522.13 294.88 L 522.72 293.14 L 523.30 291.39 L 523.89 289.62 L 524.47 287.84 L 525.06 286.03 L 525.64 284.21 L 526.23 282.37 L 526.81 280.50 L 527.39 278.62 L 527.98 276.71 L 528.56 274.78 L 529.15 272.83 L 529.73 270.86 L 530.32 268.86 L 530.90 266.83 L 531.49 264.77 L 532.07 262.69 L 532.66 260.58 L 533.24 258.44 L 533.82 256.27 L 534.41 254.07 L 534.99 251.83 L 535.58 249.56 L 536.16 247.26 L 536.75 244.92 L 537.33 242.54 L 537.92 240.12 L 538.50 237.66 L 539.08 235.16 L 539.67 232.62 L 540.25 230.03 L 540.84 227.39 L 541.42 224.71 L 542.01 221.98 L 542.59 219.19 L 543.18 216.35 L 543.76 213.46 L 544.34 210.50 L 544.93 207.49 L 545.51 204.41 L 546.10 201.27 L 546.68 198.06 L 547.27 194.78 L 547.85 191.43 L 548.44 188.00 L 549.02 184.48 L 549.61 180.89 L 550.19 177.21 L 550.77 173.44 L 551.36 169.57 L 551.94 165.60 L 552.53 161.53 L 553.11 157.36 L 553.70 153.06 L 554.28 148.65 L 554.87 144.12 L 555.45 139.45 L 556.03 134.64 L 556.62 129.69 L 557.20 124.59 L 557.79 119.33 L 558.37 113.90 L 558.96 108.28 L 559.54 102.49 L 560.13 96.49 L 560.71 90.28 L 561.30 83.84 L 561.88 77.17 L 562.46 70.25" fill="none" stroke="#D55E00" stroke-width="2.0"/>
<path d="M 450.23 299.94 L 450.82 299.09 L 451.40 298.22 L 451.99 297.35 L 452.57 296.45 L 453.16 295.54 L 453.74 294.62 L 454.32 293.68 L 454.91 292.72 L 455.49 291.75 L 456.08 290.76 L 456.66 289.75 L 457.25 288.73 L 457.83 287.69 L 458.42 286.62 L 459.00 285.54 L 459.58 284.44 L 460.17 283.32 L 460.75 282.18 L 461.34 281.01 L 461.92 279.83 L 462.51 278.62 L 463.09 277.39 L 463.68 276.14 L 464.26 274.86 L 464.85 273.55 L 465.43 272.22 L 466.01 270.87 L 466.60 269.49 L 467.18 268.07 L 467.77 266.63 L 468.35 265.16 L 468.94 263.66 L 469.52 262.13 L 470.11 260.57 L 470.69 258.97 L 471.27 257.33 L 471.86 255.66 L 472.44 253.96 L 473.03 252.21 L 473.61 250.43 L 474.20 248.60 L 474.78 246.73 L 475.37 244.81 L 475.95 242.85 L 476.53 240.85 L 477.12 238.79 L 477.70 236.68 L 478.29 234.52 L 478.87 232.30 L 479.46 230.02 L 480.04 227.69 L 480.63 225.29 L 481.21 222.82 L 481.80 220.29 L 482.38 217.68 L 482.96 215.00 L 483.55 212.25 L 484.13 209.41 L 484.72 206.48 L 485.30 203.47 L 485.89 200.36 L 486.47 197.15 L 487.06 193.84 L 487.64 190.42 L 488.22 186.88 L 488.81 183.22 L 489.39 179.43 L 489.98 175.51 L 490.56 171.45 L 491.15 167.23 L 491.73 162.86 L 492.32 158.31 L 492.90 153.58 L 493.49 148.66 L 494.07 143.53 L 494.65 138.19 L 495.24 132.61 L 495.82 126.78 L 496.41 120.68 L 496.99 114.29 L 497.58 107.59 L 498.16 100.56 L 498.75 93.16 L 499.33 85.37 L 499.91 77.16 L 500.50 68.49" fill="none" stroke="#BF7400" stroke-width="2.0"/>
<path d="M 590.61 299.81 L 591.09 297.74 L 591.57 295.66 L 592.04 293.57 L 592.52 291.47 L 593.00 289.35 L 593.48 287.23 L 593.96 285.09 L 594.44 282.94 L 594.91 280.78 L 595.39 278.60 L 595.87 276.41 L 596.35 274.21 L 596.83 271.98 L 597.30 269.75 L 597.78 267.49 L 598.26 265.22 L 598.74 262.93 L 599.22 260.62 L 599.70 258.30 L 600.17 255.95 L 600.65 253.58 L 601.13 251.19 L 601.61 248.78 L 602.09 246.35 L 602.57 243.89 L 603.04 241.41 L 603.52 238.91 L 604.00 236.38 L 604.48 233.82 L 604.96 231.24 L 605.44 228.63 L 605.91 225.99 L 606.39 223.32 L 606.87 220.62 L 607.35 217.89 L 607.83 215.12 L 608.30 212.32 L 608.78 209.49 L 609.26 206.62 L 609.74 203.72 L 610.22 200.77 L 610.70 197.79 L 611.17 194.77 L 611.65 191.70 L 612.13 188.60 L 612.61 185.44 L 613.09 182.25 L 613.57 179.00 L 614.04 175.70 L 614.52 172.36 L 615.00 168.96 L 615.48 165.51 L 615.96 162.00 L 616.43 158.44 L 616.91 154.81 L 617.39 151.13 L 617.87 147.38 L 618.35 143.56 L 618.83 139.67 L 619.30 135.72 L 619.78 131.69 L 620.26 127.58 L 620.74 123.40 L 621.22 119.13 L 621.70 114.78 L 622.17 110.34 L 622.65 105.81 L 623.13 101.19 L 623.61 96.46 L 624.09 91.63 L 624.57 86.70 L 625.04 81.66 L 625.52 76.50 L 626.00 71.21" fill="none" stroke="#BF7400" stroke-width="2.0"/>
<circle cx="439.30" cy="81.65" r="4.5" fill="#2a1a0e"/>
<text x="445.29525558018815" y="74.6526935688862" font-family="'Inter',-apple-system,'Helvetica Neue',sans-serif" font-size="12" fill="#2a1a0e" text-anchor="start"><tspan>E</tspan><tspan dy="1.92" font-size="8.64">1</tspan></text>
<circle cx="497.99" cy="102.65" r="4.5" fill="#2a1a0e"/>
<text x="503.99006712487767" y="95.65170087414509" font-family="'Inter',-apple-system,'Helvetica Neue',sans-serif" font-size="12" fill="#2a1a0e" text-anchor="start"><tspan>E</tspan><tspan dy="1.92" font-size="8.64">2</tspan></text>
<circle cx="555.11" cy="142.20" r="4.5" fill="#2a1a0e"/>
<text x="561.108305299257" y="135.19511884259853" font-family="'Inter',-apple-system,'Helvetica Neue',sans-serif" font-size="12" fill="#2a1a0e" text-anchor="start"><tspan>E</tspan><tspan dy="1.92" font-size="8.64">3</tspan></text>
<circle cx="607.74" cy="215.64" r="4.5" fill="#2a1a0e"/>
<text x="613.7374944093915" y="208.63867169056" font-family="'Inter',-apple-system,'Helvetica Neue',sans-serif" font-size="12" fill="#2a1a0e" text-anchor="start"><tspan>E</tspan><tspan dy="1.92" font-size="8.64">4</tspan></text>
<text x="380.0" y="318" font-family="'JetBrains Mono','Fira Code','Courier New',monospace" font-size="12" fill="#545454" text-anchor="middle"><tspan>0</tspan></text>
<text x="424.6831462296613" y="318" font-family="'JetBrains Mono','Fira Code','Courier New',monospace" font-size="12" fill="#545454" text-anchor="middle"><tspan>1</tspan></text>
<text x="469.36629245932266" y="318" font-family="'JetBrains Mono','Fira Code','Courier New',monospace" font-size="12" fill="#545454" text-anchor="middle"><tspan>2</tspan></text>
<text x="514.049438688984" y="318" font-family="'JetBrains Mono','Fira Code','Courier New',monospace" font-size="12" fill="#545454" text-anchor="middle"><tspan>3</tspan></text>
<text x="558.7325849186453" y="318" font-family="'JetBrains Mono','Fira Code','Courier New',monospace" font-size="12" fill="#545454" text-anchor="middle"><tspan>4</tspan></text>
<text x="603.4157311483066" y="318" font-family="'JetBrains Mono','Fira Code','Courier New',monospace" font-size="12" fill="#545454" text-anchor="middle"><tspan>5</tspan></text>
<text x="514.0" y="336" font-family="'Inter',-apple-system,'Helvetica Neue',sans-serif" font-size="14" fill="#2a1a0e" text-anchor="middle"><tspan>z = kL/2</tspan></text>
<line x1="300.00" y1="352.00" x2="320.00" y2="352.00" stroke="#0072B2" stroke-width="2.4"/>
<text x="325" y="356" font-family="'Inter',-apple-system,'Helvetica Neue',sans-serif" font-size="12" fill="#2a1a0e" text-anchor="start"><tspan>√(z₀²−z²)</tspan></text>
<line x1="410.00" y1="352.00" x2="430.00" y2="352.00" stroke="#D55E00" stroke-width="2.0"/>
<text x="435" y="356" font-family="'Inter',-apple-system,'Helvetica Neue',sans-serif" font-size="12" fill="#2a1a0e" text-anchor="start"><tspan>z·tan z (even)</tspan></text>
<line x1="540.00" y1="352.00" x2="560.00" y2="352.00" stroke="#BF7400" stroke-width="2.0"/>
<text x="565" y="356" font-family="'Inter',-apple-system,'Helvetica Neue',sans-serif" font-size="12" fill="#2a1a0e" text-anchor="start"><tspan>−z·cot z (odd)</tspan></text>
</svg>
