<!-- CAJAL SVG Figure
     Book-slug: quantum-mechanics-vol1
     Chapter: 06-finite-wells-steps-and-barriers
     Figure: 04 — Barrier tunneling exact T versus WKB
     Type: plot  Author: Humanitarians AI Incorporated  Date-generated: 2026-06-22
-->
<svg viewBox="0 0 700 440" xmlns="http://www.w3.org/2000/svg" role="img" aria-labelledby="ttl-0604">
<title id="ttl-0604">Barrier transmission: exact versus the WKB estimate</title>
<desc>Transmission T through a rectangular barrier on a logarithmic scale versus E/V0, for an electron, V0=5 eV, L=5 Å. Below the barrier T is exponentially small; the WKB estimate (dashed) tracks the exact curve, missing only a smooth prefactor. Above the barrier T approaches 1 with resonance oscillations.</desc>
<defs><marker id="arr" markerWidth="9" markerHeight="7" refX="7" refY="3.5" orient="auto"><polygon points="0 0, 9 3.5, 0 7" fill="#2a1a0e"/></marker></defs>
<metadata><cajal:figure xmlns:cajal="https://bearbrown.ai/cajal/1.0" book-slug="quantum-mechanics-vol1" chapter="06-finite-wells-steps-and-barriers" figure-number="04" figure-title="Barrier tunneling exact T versus WKB" figure-slug="barrier-transmission-exact-wkb" figure-type="plot" priority="Important" author="Humanitarians AI Incorporated" date-generated="2026-06-22" source-file="pantry/06-finite-wells-steps-and-barriers-cajal.md"/></metadata>
<text x="350" y="30" font-family="'EB Garamond','Garamond',Georgia,serif" font-size="18" fill="#2a1a0e" text-anchor="middle"><tspan>Barrier tunneling: exact T and the WKB estimate</tspan></text>
<rect x="80.00" y="60.00" width="568.00" height="270.00" fill="#F5F5F5" stroke="#D4D4D4" stroke-width="0.75"/>
<line x1="80.00" y1="330.00" x2="648.00" y2="330.00" stroke="#D4D4D4" stroke-width="0.5" stroke-dasharray="3 3"/>
<text x="72" y="334.0" font-family="'JetBrains Mono','Fira Code','Courier New',monospace" font-size="11" fill="#545454" text-anchor="end"><tspan>10</tspan><tspan dy="-4.62" font-size="7.92">-12</tspan></text>
<line x1="80.00" y1="285.00" x2="648.00" y2="285.00" stroke="#D4D4D4" stroke-width="0.5" stroke-dasharray="3 3"/>
<text x="72" y="289.0" font-family="'JetBrains Mono','Fira Code','Courier New',monospace" font-size="11" fill="#545454" text-anchor="end"><tspan>10</tspan><tspan dy="-4.62" font-size="7.92">-10</tspan></text>
<line x1="80.00" y1="240.00" x2="648.00" y2="240.00" stroke="#D4D4D4" stroke-width="0.5" stroke-dasharray="3 3"/>
<text x="72" y="244.0" font-family="'JetBrains Mono','Fira Code','Courier New',monospace" font-size="11" fill="#545454" text-anchor="end"><tspan>10</tspan><tspan dy="-4.62" font-size="7.92">-8</tspan></text>
<line x1="80.00" y1="195.00" x2="648.00" y2="195.00" stroke="#D4D4D4" stroke-width="0.5" stroke-dasharray="3 3"/>
<text x="72" y="199.0" font-family="'JetBrains Mono','Fira Code','Courier New',monospace" font-size="11" fill="#545454" text-anchor="end"><tspan>10</tspan><tspan dy="-4.62" font-size="7.92">-6</tspan></text>
<line x1="80.00" y1="150.00" x2="648.00" y2="150.00" stroke="#D4D4D4" stroke-width="0.5" stroke-dasharray="3 3"/>
<text x="72" y="154.0" font-family="'JetBrains Mono','Fira Code','Courier New',monospace" font-size="11" fill="#545454" text-anchor="end"><tspan>10</tspan><tspan dy="-4.62" font-size="7.92">-4</tspan></text>
<line x1="80.00" y1="105.00" x2="648.00" y2="105.00" stroke="#D4D4D4" stroke-width="0.5" stroke-dasharray="3 3"/>
<text x="72" y="109.0" font-family="'JetBrains Mono','Fira Code','Courier New',monospace" font-size="11" fill="#545454" text-anchor="end"><tspan>10</tspan><tspan dy="-4.62" font-size="7.92">-2</tspan></text>
<line x1="80.00" y1="60.00" x2="648.00" y2="60.00" stroke="#D4D4D4" stroke-width="0.5" stroke-dasharray="3 3"/>
<text x="72" y="64.0" font-family="'JetBrains Mono','Fira Code','Courier New',monospace" font-size="11" fill="#545454" text-anchor="end"><tspan>10</tspan><tspan dy="-4.62" font-size="7.92">0</tspan></text>
<line x1="269.33" y1="60.00" x2="269.33" y2="330.00" stroke="#D4D4D4" stroke-width="0.75" stroke-dasharray="5 4"/>
<path d="M 80.95 196.38 L 81.89 189.38 L 82.84 185.18 L 83.79 182.14 L 84.73 179.73 L 85.68 177.71 L 86.63 175.97 L 87.57 174.43 L 88.52 173.05 L 89.47 171.78 L 90.41 170.61 L 91.36 169.53 L 92.31 168.51 L 93.25 167.55 L 94.20 166.63 L 95.15 165.76 L 96.09 164.93 L 97.04 164.14 L 97.99 163.37 L 98.93 162.63 L 99.88 161.91 L 100.83 161.21 L 101.77 160.54 L 102.72 159.88 L 103.67 159.24 L 104.61 158.61 L 105.56 158.00 L 106.51 157.40 L 107.45 156.81 L 108.40 156.23 L 109.35 155.66 L 110.29 155.11 L 111.24 154.56 L 112.19 154.02 L 113.13 153.49 L 114.08 152.96 L 115.03 152.44 L 115.97 151.93 L 116.92 151.43 L 117.87 150.93 L 118.81 150.44 L 119.76 149.95 L 120.71 149.47 L 121.65 148.99 L 122.60 148.51 L 123.55 148.04 L 124.49 147.58 L 125.44 147.12 L 126.39 146.66 L 127.33 146.20 L 128.28 145.75 L 129.23 145.30 L 130.17 144.86 L 131.12 144.41 L 132.07 143.97 L 133.01 143.54 L 133.96 143.10 L 134.91 142.67 L 135.85 142.24 L 136.80 141.81 L 137.75 141.38 L 138.69 140.96 L 139.64 140.53 L 140.59 140.11 L 141.53 139.69 L 142.48 139.28 L 143.43 138.86 L 144.37 138.45 L 145.32 138.03 L 146.27 137.62 L 147.21 137.21 L 148.16 136.80 L 149.11 136.39 L 150.05 135.98 L 151.00 135.58 L 151.95 135.17 L 152.89 134.77 L 153.84 134.36 L 154.79 133.96 L 155.73 133.56 L 156.68 133.16 L 157.63 132.76 L 158.57 132.36 L 159.52 131.96 L 160.47 131.56 L 161.41 131.16 L 162.36 130.76 L 163.31 130.36 L 164.25 129.96 L 165.20 129.57 L 166.15 129.17 L 167.09 128.77 L 168.04 128.38 L 168.99 127.98 L 169.93 127.59 L 170.88 127.19 L 171.83 126.79 L 172.77 126.40 L 173.72 126.00 L 174.67 125.61 L 175.61 125.21 L 176.56 124.82 L 177.51 124.42 L 178.45 124.03 L 179.40 123.63 L 180.35 123.23 L 181.29 122.84 L 182.24 122.44 L 183.19 122.04 L 184.13 121.65 L 185.08 121.25 L 186.03 120.85 L 186.97 120.45 L 187.92 120.06 L 188.87 119.66 L 189.81 119.26 L 190.76 118.86 L 191.71 118.46 L 192.65 118.06 L 193.60 117.66 L 194.55 117.26 L 195.49 116.85 L 196.44 116.45 L 197.39 116.05 L 198.33 115.64 L 199.28 115.24 L 200.23 114.83 L 201.17 114.43 L 202.12 114.02 L 203.07 113.61 L 204.01 113.21 L 204.96 112.80 L 205.91 112.39 L 206.85 111.98 L 207.80 111.56 L 208.75 111.15 L 209.69 110.74 L 210.64 110.32 L 211.59 109.91 L 212.53 109.49 L 213.48 109.07 L 214.43 108.65 L 215.37 108.23 L 216.32 107.81 L 217.27 107.39 L 218.21 106.97 L 219.16 106.54 L 220.11 106.12 L 221.05 105.69 L 222.00 105.26 L 222.95 104.83 L 223.89 104.40 L 224.84 103.97 L 225.79 103.54 L 226.73 103.10 L 227.68 102.67 L 228.63 102.23 L 229.57 101.79 L 230.52 101.35 L 231.47 100.91 L 232.41 100.46 L 233.36 100.02 L 234.31 99.57 L 235.25 99.12 L 236.20 98.67 L 237.15 98.22 L 238.09 97.76 L 239.04 97.31 L 239.99 96.85 L 240.93 96.39 L 241.88 95.93 L 242.83 95.47 L 243.77 95.00 L 244.72 94.53 L 245.67 94.07 L 246.61 93.60 L 247.56 93.12 L 248.51 92.65 L 249.45 92.17 L 250.40 91.69 L 251.35 91.21 L 252.29 90.73 L 253.24 90.24 L 254.19 89.76 L 255.13 89.27 L 256.08 88.78 L 257.03 88.28 L 257.97 87.79 L 258.92 87.29 L 259.87 86.79 L 260.81 86.29 L 261.76 85.79 L 262.71 85.28 L 263.65 84.77 L 264.60 84.26 L 265.55 83.75 L 266.49 83.24 L 267.44 82.72 L 268.39 82.21 L 269.33 81.69 L 270.28 81.17 L 271.23 80.64 L 272.17 80.12 L 273.12 79.60 L 274.07 79.07 L 275.01 78.54 L 275.96 78.01 L 276.91 77.49 L 277.85 76.96 L 278.80 76.43 L 279.75 75.90 L 280.69 75.37 L 281.64 74.84 L 282.59 74.32 L 283.53 73.79 L 284.48 73.27 L 285.43 72.74 L 286.37 72.22 L 287.32 71.71 L 288.27 71.19 L 289.21 70.68 L 290.16 70.18 L 291.11 69.68 L 292.05 69.19 L 293.00 68.70 L 293.95 68.22 L 294.89 67.75 L 295.84 67.28 L 296.79 66.83 L 297.73 66.38 L 298.68 65.95 L 299.63 65.53 L 300.57 65.12 L 301.52 64.72 L 302.47 64.34 L 303.41 63.98 L 304.36 63.62 L 305.31 63.29 L 306.25 62.97 L 307.20 62.66 L 308.15 62.37 L 309.09 62.10 L 310.04 61.85 L 310.99 61.62 L 311.93 61.40 L 312.88 61.20 L 313.83 61.02 L 314.77 60.85 L 315.72 60.70 L 316.67 60.57 L 317.61 60.45 L 318.56 60.35 L 319.51 60.27 L 320.45 60.19 L 321.40 60.13 L 322.35 60.08 L 323.29 60.05 L 324.24 60.02 L 325.19 60.01 L 326.13 60.00 L 327.08 60.00 L 328.03 60.01 L 328.97 60.03 L 329.92 60.06 L 330.87 60.09 L 331.81 60.12 L 332.76 60.16 L 333.71 60.21 L 334.65 60.25 L 335.60 60.30 L 336.55 60.36 L 337.49 60.41 L 338.44 60.47 L 339.39 60.53 L 340.33 60.59 L 341.28 60.65 L 342.23 60.71 L 343.17 60.77 L 344.12 60.83 L 345.07 60.89 L 346.01 60.95 L 346.96 61.01 L 347.91 61.07 L 348.85 61.13 L 349.80 61.18 L 350.75 61.24 L 351.69 61.29 L 352.64 61.34 L 353.59 61.39 L 354.53 61.44 L 355.48 61.49 L 356.43 61.54 L 357.37 61.58 L 358.32 61.62 L 359.27 61.66 L 360.21 61.70 L 361.16 61.74 L 362.11 61.78 L 363.05 61.81 L 364.00 61.84 L 364.95 61.87 L 365.89 61.90 L 366.84 61.92 L 367.79 61.95 L 368.73 61.97 L 369.68 61.99 L 370.63 62.01 L 371.57 62.03 L 372.52 62.04 L 373.47 62.06 L 374.41 62.07 L 375.36 62.08 L 376.31 62.09 L 377.25 62.10 L 378.20 62.10 L 379.15 62.11 L 380.09 62.11 L 381.04 62.11 L 381.99 62.11 L 382.93 62.11 L 383.88 62.11 L 384.83 62.10 L 385.77 62.10 L 386.72 62.09 L 387.67 62.09 L 388.61 62.08 L 389.56 62.07 L 390.51 62.06 L 391.45 62.04 L 392.40 62.03 L 393.35 62.02 L 394.29 62.00 L 395.24 61.99 L 396.19 61.97 L 397.13 61.95 L 398.08 61.93 L 399.03 61.91 L 399.97 61.89 L 400.92 61.87 L 401.87 61.85 L 402.81 61.83 L 403.76 61.81 L 404.71 61.78 L 405.65 61.76 L 406.60 61.74 L 407.55 61.71 L 408.49 61.69 L 409.44 61.66 L 410.39 61.64 L 411.33 61.61 L 412.28 61.58 L 413.23 61.56 L 414.17 61.53 L 415.12 61.50 L 416.07 61.47 L 417.01 61.44 L 417.96 61.42 L 418.91 61.39 L 419.85 61.36 L 420.80 61.33 L 421.75 61.30 L 422.69 61.27 L 423.64 61.25 L 424.59 61.22 L 425.53 61.19 L 426.48 61.16 L 427.43 61.13 L 428.37 61.10 L 429.32 61.07 L 430.27 61.05 L 431.21 61.02 L 432.16 60.99 L 433.11 60.96 L 434.05 60.93 L 435.00 60.91 L 435.95 60.88 L 436.89 60.85 L 437.84 60.83 L 438.79 60.80 L 439.73 60.77 L 440.68 60.75 L 441.63 60.72 L 442.57 60.70 L 443.52 60.67 L 444.47 60.65 L 445.41 60.63 L 446.36 60.60 L 447.31 60.58 L 448.25 60.56 L 449.20 60.53 L 450.15 60.51 L 451.09 60.49 L 452.04 60.47 L 452.99 60.45 L 453.93 60.43 L 454.88 60.41 L 455.83 60.39 L 456.77 60.37 L 457.72 60.35 L 458.67 60.33 L 459.61 60.32 L 460.56 60.30 L 461.51 60.28 L 462.45 60.27 L 463.40 60.25 L 464.35 60.24 L 465.29 60.22 L 466.24 60.21 L 467.19 60.20 L 468.13 60.18 L 469.08 60.17 L 470.03 60.16 L 470.97 60.15 L 471.92 60.13 L 472.87 60.12 L 473.81 60.11 L 474.76 60.10 L 475.71 60.10 L 476.65 60.09 L 477.60 60.08 L 478.55 60.07 L 479.49 60.06 L 480.44 60.06 L 481.39 60.05 L 482.33 60.04 L 483.28 60.04 L 484.23 60.03 L 485.17 60.03 L 486.12 60.02 L 487.07 60.02 L 488.01 60.02 L 488.96 60.01 L 489.91 60.01 L 490.85 60.01 L 491.80 60.01 L 492.75 60.00 L 493.69 60.00 L 494.64 60.00 L 495.59 60.00 L 496.53 60.00 L 497.48 60.00 L 498.43 60.00 L 499.37 60.00 L 500.32 60.00 L 501.27 60.00 L 502.21 60.00 L 503.16 60.01 L 504.11 60.01 L 505.05 60.01 L 506.00 60.01 L 506.95 60.02 L 507.89 60.02 L 508.84 60.02 L 509.79 60.02 L 510.73 60.03 L 511.68 60.03 L 512.63 60.04 L 513.57 60.04 L 514.52 60.04 L 515.47 60.05 L 516.41 60.05 L 517.36 60.06 L 518.31 60.06 L 519.25 60.07 L 520.20 60.07 L 521.15 60.08 L 522.09 60.08 L 523.04 60.09 L 523.99 60.10 L 524.93 60.10 L 525.88 60.11 L 526.83 60.11 L 527.77 60.12 L 528.72 60.12 L 529.67 60.13 L 530.61 60.14 L 531.56 60.14 L 532.51 60.15 L 533.45 60.16 L 534.40 60.16 L 535.35 60.17 L 536.29 60.17 L 537.24 60.18 L 538.19 60.19 L 539.13 60.19 L 540.08 60.20 L 541.03 60.21 L 541.97 60.21 L 542.92 60.22 L 543.87 60.23 L 544.81 60.23 L 545.76 60.24 L 546.71 60.24 L 547.65 60.25 L 548.60 60.26 L 549.55 60.26 L 550.49 60.27 L 551.44 60.27 L 552.39 60.28 L 553.33 60.29 L 554.28 60.29 L 555.23 60.30 L 556.17 60.30 L 557.12 60.31 L 558.07 60.31 L 559.01 60.32 L 559.96 60.33 L 560.91 60.33 L 561.85 60.34 L 562.80 60.34 L 563.75 60.35 L 564.69 60.35 L 565.64 60.36 L 566.59 60.36 L 567.53 60.37 L 568.48 60.37 L 569.43 60.37 L 570.37 60.38 L 571.32 60.38 L 572.27 60.39 L 573.21 60.39 L 574.16 60.40 L 575.11 60.40 L 576.05 60.40 L 577.00 60.41 L 577.95 60.41 L 578.89 60.41 L 579.84 60.42 L 580.79 60.42 L 581.73 60.42 L 582.68 60.43 L 583.63 60.43 L 584.57 60.43 L 585.52 60.43 L 586.47 60.44 L 587.41 60.44 L 588.36 60.44 L 589.31 60.44 L 590.25 60.44 L 591.20 60.45 L 592.15 60.45 L 593.09 60.45 L 594.04 60.45 L 594.99 60.45 L 595.93 60.45 L 596.88 60.46 L 597.83 60.46 L 598.77 60.46 L 599.72 60.46 L 600.67 60.46 L 601.61 60.46 L 602.56 60.46 L 603.51 60.46 L 604.45 60.46 L 605.40 60.46 L 606.35 60.46 L 607.29 60.46 L 608.24 60.46 L 609.19 60.46 L 610.13 60.46 L 611.08 60.46 L 612.03 60.46 L 612.97 60.46 L 613.92 60.46 L 614.87 60.46 L 615.81 60.46 L 616.76 60.45 L 617.71 60.45 L 618.65 60.45 L 619.60 60.45 L 620.55 60.45 L 621.49 60.45 L 622.44 60.45 L 623.39 60.44 L 624.33 60.44 L 625.28 60.44 L 626.23 60.44 L 627.17 60.44 L 628.12 60.44 L 629.07 60.43 L 630.01 60.43 L 630.96 60.43 L 631.91 60.43 L 632.85 60.42 L 633.80 60.42 L 634.75 60.42 L 635.69 60.42 L 636.64 60.41 L 637.59 60.41 L 638.53 60.41 L 639.48 60.40 L 640.43 60.40 L 641.37 60.40 L 642.32 60.40 L 643.27 60.39 L 644.21 60.39 L 645.16 60.39 L 646.11 60.38 L 647.05 60.38 L 648.00 60.38" fill="none" stroke="#0072B2" stroke-width="2.4"/>
<path d="M 83.79 170.81 L 84.71 170.53 L 85.64 170.25 L 86.57 169.97 L 87.50 169.69 L 88.43 169.41 L 89.35 169.13 L 90.28 168.85 L 91.21 168.57 L 92.14 168.29 L 93.06 168.00 L 93.99 167.72 L 94.92 167.43 L 95.85 167.15 L 96.77 166.86 L 97.70 166.57 L 98.63 166.28 L 99.56 165.99 L 100.49 165.70 L 101.41 165.41 L 102.34 165.12 L 103.27 164.83 L 104.20 164.54 L 105.12 164.24 L 106.05 163.95 L 106.98 163.65 L 107.91 163.35 L 108.84 163.06 L 109.76 162.76 L 110.69 162.46 L 111.62 162.16 L 112.55 161.86 L 113.47 161.56 L 114.40 161.25 L 115.33 160.95 L 116.26 160.65 L 117.19 160.34 L 118.11 160.03 L 119.04 159.73 L 119.97 159.42 L 120.90 159.11 L 121.82 158.80 L 122.75 158.49 L 123.68 158.18 L 124.61 157.86 L 125.53 157.55 L 126.46 157.23 L 127.39 156.92 L 128.32 156.60 L 129.25 156.28 L 130.17 155.96 L 131.10 155.64 L 132.03 155.32 L 132.96 155.00 L 133.88 154.67 L 134.81 154.35 L 135.74 154.02 L 136.67 153.70 L 137.60 153.37 L 138.52 153.04 L 139.45 152.71 L 140.38 152.38 L 141.31 152.04 L 142.23 151.71 L 143.16 151.37 L 144.09 151.04 L 145.02 150.70 L 145.94 150.36 L 146.87 150.02 L 147.80 149.68 L 148.73 149.34 L 149.66 148.99 L 150.58 148.65 L 151.51 148.30 L 152.44 147.95 L 153.37 147.60 L 154.29 147.25 L 155.22 146.90 L 156.15 146.54 L 157.08 146.19 L 158.01 145.83 L 158.93 145.47 L 159.86 145.11 L 160.79 144.75 L 161.72 144.39 L 162.64 144.02 L 163.57 143.66 L 164.50 143.29 L 165.43 142.92 L 166.35 142.55 L 167.28 142.18 L 168.21 141.80 L 169.14 141.43 L 170.07 141.05 L 170.99 140.67 L 171.92 140.29 L 172.85 139.90 L 173.78 139.52 L 174.70 139.13 L 175.63 138.74 L 176.56 138.35 L 177.49 137.96 L 178.42 137.57 L 179.34 137.17 L 180.27 136.77 L 181.20 136.37 L 182.13 135.97 L 183.05 135.56 L 183.98 135.15 L 184.91 134.74 L 185.84 134.33 L 186.77 133.92 L 187.69 133.50 L 188.62 133.08 L 189.55 132.66 L 190.48 132.24 L 191.40 131.81 L 192.33 131.38 L 193.26 130.95 L 194.19 130.52 L 195.11 130.08 L 196.04 129.64 L 196.97 129.20 L 197.90 128.75 L 198.83 128.31 L 199.75 127.86 L 200.68 127.40 L 201.61 126.94 L 202.54 126.48 L 203.46 126.02 L 204.39 125.55 L 205.32 125.08 L 206.25 124.61 L 207.18 124.13 L 208.10 123.65 L 209.03 123.17 L 209.96 122.68 L 210.89 122.19 L 211.81 121.70 L 212.74 121.20 L 213.67 120.69 L 214.60 120.18 L 215.52 119.67 L 216.45 119.16 L 217.38 118.63 L 218.31 118.11 L 219.24 117.58 L 220.16 117.04 L 221.09 116.50 L 222.02 115.96 L 222.95 115.40 L 223.87 114.85 L 224.80 114.28 L 225.73 113.72 L 226.66 113.14 L 227.59 112.56 L 228.51 111.97 L 229.44 111.38 L 230.37 110.78 L 231.30 110.17 L 232.22 109.55 L 233.15 108.93 L 234.08 108.30 L 235.01 107.66 L 235.93 107.01 L 236.86 106.35 L 237.79 105.69 L 238.72 105.01 L 239.65 104.32 L 240.57 103.63 L 241.50 102.92 L 242.43 102.19 L 243.36 101.46 L 244.28 100.71 L 245.21 99.95 L 246.14 99.18 L 247.07 98.38 L 248.00 97.58 L 248.92 96.75 L 249.85 95.91 L 250.78 95.04 L 251.71 94.15 L 252.63 93.24 L 253.56 92.31 L 254.49 91.34 L 255.42 90.35 L 256.35 89.32 L 257.27 88.25 L 258.20 87.14 L 259.13 85.99 L 260.06 84.78 L 260.98 83.51 L 261.91 82.16 L 262.84 80.73 L 263.77 79.19 L 264.69 77.52 L 265.62 75.67 L 266.55 73.57 L 267.48 71.08 L 268.41 67.84 L 269.33 60.00" fill="none" stroke="#BF7400" stroke-width="2.0"/>
<text x="80.0" y="348" font-family="'JetBrains Mono','Fira Code','Courier New',monospace" font-size="12" fill="#545454" text-anchor="middle"><tspan>0.0</tspan></text>
<text x="174.66666666666666" y="348" font-family="'JetBrains Mono','Fira Code','Courier New',monospace" font-size="12" fill="#545454" text-anchor="middle"><tspan>0.5</tspan></text>
<text x="269.3333333333333" y="348" font-family="'JetBrains Mono','Fira Code','Courier New',monospace" font-size="12" fill="#545454" text-anchor="middle"><tspan>1.0</tspan></text>
<text x="364.0" y="348" font-family="'JetBrains Mono','Fira Code','Courier New',monospace" font-size="12" fill="#545454" text-anchor="middle"><tspan>1.5</tspan></text>
<text x="458.66666666666663" y="348" font-family="'JetBrains Mono','Fira Code','Courier New',monospace" font-size="12" fill="#545454" text-anchor="middle"><tspan>2.0</tspan></text>
<text x="553.3333333333334" y="348" font-family="'JetBrains Mono','Fira Code','Courier New',monospace" font-size="12" fill="#545454" text-anchor="middle"><tspan>2.5</tspan></text>
<text x="648.0" y="348" font-family="'JetBrains Mono','Fira Code','Courier New',monospace" font-size="12" fill="#545454" text-anchor="middle"><tspan>3.0</tspan></text>
<text x="345" y="368" font-family="'Inter',-apple-system,'Helvetica Neue',sans-serif" font-size="14" fill="#2a1a0e" text-anchor="start"><tspan>E / V</tspan><tspan dy="2.24" font-size="10.08">0</tspan></text>
<text x="34" y="195.0" font-family="'Inter',-apple-system,'Helvetica Neue',sans-serif" font-size="14" fill="#2a1a0e" text-anchor="middle" transform="rotate(-90, 34, 195.0)"><tspan>transmission T  (log scale)</tspan></text>
<text x="274" y="108" font-family="'Inter',-apple-system,'Helvetica Neue',sans-serif" font-size="12" fill="#545454" text-anchor="start"><tspan>E = V</tspan><tspan dy="1.92" font-size="8.64">0</tspan></text>
<line x1="100.00" y1="290.00" x2="122.00" y2="290.00" stroke="#0072B2" stroke-width="2.4"/>
<text x="128" y="294" font-family="'Inter',-apple-system,'Helvetica Neue',sans-serif" font-size="13" fill="#2a1a0e" text-anchor="start"><tspan>T</tspan><tspan dy="2.08" font-size="9.36">exact</tspan></text>
<line x1="100.00" y1="310.00" x2="122.00" y2="310.00" stroke="#BF7400" stroke-width="2.0"/>
<text x="128" y="314" font-family="'Inter',-apple-system,'Helvetica Neue',sans-serif" font-size="13" fill="#2a1a0e" text-anchor="start"><tspan>T</tspan><tspan dy="2.08" font-size="9.36">WKB</tspan><tspan dy="-2.08">  (below barrier)</tspan></text>
<text x="284" y="388" font-family="'Inter',-apple-system,'Helvetica Neue',sans-serif" font-size="12" fill="#545454" text-anchor="start"><tspan>electron, V</tspan><tspan dy="1.92" font-size="8.64">0</tspan><tspan dy="-1.92"> = 5 eV, L = 5 Å</tspan></text>
</svg>
