<!-- CAJAL SVG Figure
     Book-slug: quantum-mechanics-vol1  Chapter: 04-the-free-particle-and-wave-packets
     Figure: 02 — Position spreads, momentum stays frozen   Type: chart
     Author: Humanitarians AI Incorporated  Date-generated: 2026-06-19
-->
<svg viewBox="0 0 700 360" xmlns="http://www.w3.org/2000/svg" role="img" aria-labelledby="ttl-4-02">
  <title id="ttl-4-02">A free Gaussian wave packet spreads in position while its momentum distribution stays fixed</title>
  <desc>Left: the position probability density spreads and its centre moves between t=0 and a later time T. Right: the momentum probability density at t=0 and t=T lie exactly on top of each other — free propagation never changes the momentum distribution.</desc>
  <metadata><cajal:figure xmlns:cajal="https://bearbrown.ai/cajal/1.0" book-slug="quantum-mechanics-vol1" chapter="04-the-free-particle-and-wave-packets" figure-number="02" figure-title="Position spreads, momentum stays frozen" figure-slug="packet-spreads-momentum-frozen" figure-type="chart" author="Humanitarians AI Incorporated" date-generated="2026-06-19"/></metadata>
<text x="350.0" y="30" font-family="'EB Garamond','Garamond',Georgia,serif" font-size="18" fill="#2a1a0e" text-anchor="middle">Position spreads, momentum stays frozen</text>
<rect x="56" y="64" width="284" height="232" fill="#FFFFFF" stroke="#D9D9D9" stroke-width="1"/>
<text x="198.0" y="88" font-family="'EB Garamond','Garamond',Georgia,serif" font-size="15" fill="#2a1a0e" text-anchor="middle">Position  |Ψ(x,t)|²</text>
<line x1="66" y1="284" x2="330" y2="284" stroke="#2a1a0e" stroke-width="1.2"/>
<rect x="384" y="64" width="284" height="232" fill="#FFFFFF" stroke="#D9D9D9" stroke-width="1"/>
<text x="526.0" y="88" font-family="'EB Garamond','Garamond',Georgia,serif" font-size="15" fill="#2a1a0e" text-anchor="middle">Momentum  |φ(k)|²</text>
<line x1="394" y1="284" x2="658" y2="284" stroke="#2a1a0e" stroke-width="1.2"/>
<polygon points="56.0,284 56.0,284.0 58.4,284.0 60.7,284.0 63.1,284.0 65.5,284.0 67.8,284.0 70.2,284.0 72.6,284.0 74.9,284.0 77.3,284.0 79.7,284.0 82.0,284.0 84.4,284.0 86.8,284.0 89.1,284.0 91.5,284.0 93.9,284.0 96.2,284.0 98.6,284.0 101.0,284.0 103.3,284.0 105.7,284.0 108.1,284.0 110.4,284.0 112.8,284.0 115.2,284.0 117.5,284.0 119.9,284.0 122.3,284.0 124.6,284.0 127.0,284.0 129.4,284.0 131.7,283.9 134.1,283.9 136.5,283.8 138.8,283.7 141.2,283.5 143.6,283.1 145.9,282.7 148.3,281.9 150.7,280.9 153.0,279.4 155.4,277.4 157.8,274.6 160.1,270.9 162.5,266.2 164.9,260.2 167.2,252.8 169.6,243.9 172.0,233.5 174.3,221.8 176.7,208.7 179.1,194.8 181.4,180.3 183.8,166.0 186.2,152.2 188.5,139.8 190.9,129.4 193.3,121.4 195.6,116.5 198.0,114.8 200.4,116.5 202.7,121.4 205.1,129.4 207.5,139.8 209.8,152.2 212.2,166.0 214.6,180.3 216.9,194.8 219.3,208.7 221.7,221.8 224.0,233.5 226.4,243.9 228.8,252.8 231.1,260.2 233.5,266.2 235.9,270.9 238.2,274.6 240.6,277.4 243.0,279.4 245.3,280.9 247.7,281.9 250.1,282.7 252.4,283.1 254.8,283.5 257.2,283.7 259.5,283.8 261.9,283.9 264.3,283.9 266.6,284.0 269.0,284.0 271.4,284.0 273.7,284.0 276.1,284.0 278.5,284.0 280.8,284.0 283.2,284.0 285.6,284.0 287.9,284.0 290.3,284.0 292.7,284.0 295.0,284.0 297.4,284.0 299.8,284.0 302.1,284.0 304.5,284.0 306.9,284.0 309.2,284.0 311.6,284.0 314.0,284.0 316.3,284.0 318.7,284.0 321.1,284.0 323.4,284.0 325.8,284.0 328.2,284.0 330.5,284.0 332.9,284.0 335.3,284.0 337.6,284.0 340.0,284.0 340.0,284" fill="#CCE5F1"/>
<polygon points="56.0,284 56.0,284.0 58.4,284.0 60.7,284.0 63.1,284.0 65.5,284.0 67.8,284.0 70.2,284.0 72.6,284.0 74.9,284.0 77.3,284.0 79.7,284.0 82.0,284.0 84.4,284.0 86.8,284.0 89.1,284.0 91.5,284.0 93.9,284.0 96.2,284.0 98.6,284.0 101.0,284.0 103.3,284.0 105.7,284.0 108.1,284.0 110.4,284.0 112.8,283.9 115.2,283.9 117.5,283.9 119.9,283.9 122.3,283.8 124.6,283.8 127.0,283.7 129.4,283.7 131.7,283.6 134.1,283.5 136.5,283.3 138.8,283.2 141.2,283.0 143.6,282.7 145.9,282.5 148.3,282.1 150.7,281.7 153.0,281.2 155.4,280.7 157.8,280.0 160.1,279.3 162.5,278.4 164.9,277.5 167.2,276.3 169.6,275.1 172.0,273.7 174.3,272.1 176.7,270.3 179.1,268.4 181.4,266.3 183.8,264.0 186.2,261.5 188.5,258.8 190.9,255.9 193.3,252.9 195.6,249.7 198.0,246.4 200.4,242.9 202.7,239.4 205.1,235.8 207.5,232.2 209.8,228.6 212.2,225.0 214.6,221.5 216.9,218.1 219.3,214.9 221.7,211.9 224.0,209.2 226.4,206.7 228.8,204.5 231.1,202.7 233.5,201.3 235.9,200.2 238.2,199.6 240.6,199.4 243.0,199.6 245.3,200.2 247.7,201.3 250.1,202.7 252.4,204.5 254.8,206.7 257.2,209.2 259.5,211.9 261.9,214.9 264.3,218.1 266.6,221.5 269.0,225.0 271.4,228.6 273.7,232.2 276.1,235.8 278.5,239.4 280.8,242.9 283.2,246.4 285.6,249.7 287.9,252.9 290.3,255.9 292.7,258.8 295.0,261.5 297.4,264.0 299.8,266.3 302.1,268.4 304.5,270.3 306.9,272.1 309.2,273.7 311.6,275.1 314.0,276.3 316.3,277.5 318.7,278.4 321.1,279.3 323.4,280.0 325.8,280.7 328.2,281.2 330.5,281.7 332.9,282.1 335.3,282.5 337.6,282.7 340.0,283.0 340.0,284" fill="#F7DDCC" fill-opacity="0.55"/>
<polyline points="56.0,284.0 58.4,284.0 60.7,284.0 63.1,284.0 65.5,284.0 67.8,284.0 70.2,284.0 72.6,284.0 74.9,284.0 77.3,284.0 79.7,284.0 82.0,284.0 84.4,284.0 86.8,284.0 89.1,284.0 91.5,284.0 93.9,284.0 96.2,284.0 98.6,284.0 101.0,284.0 103.3,284.0 105.7,284.0 108.1,284.0 110.4,284.0 112.8,284.0 115.2,284.0 117.5,284.0 119.9,284.0 122.3,284.0 124.6,284.0 127.0,284.0 129.4,284.0 131.7,283.9 134.1,283.9 136.5,283.8 138.8,283.7 141.2,283.5 143.6,283.1 145.9,282.7 148.3,281.9 150.7,280.9 153.0,279.4 155.4,277.4 157.8,274.6 160.1,270.9 162.5,266.2 164.9,260.2 167.2,252.8 169.6,243.9 172.0,233.5 174.3,221.8 176.7,208.7 179.1,194.8 181.4,180.3 183.8,166.0 186.2,152.2 188.5,139.8 190.9,129.4 193.3,121.4 195.6,116.5 198.0,114.8 200.4,116.5 202.7,121.4 205.1,129.4 207.5,139.8 209.8,152.2 212.2,166.0 214.6,180.3 216.9,194.8 219.3,208.7 221.7,221.8 224.0,233.5 226.4,243.9 228.8,252.8 231.1,260.2 233.5,266.2 235.9,270.9 238.2,274.6 240.6,277.4 243.0,279.4 245.3,280.9 247.7,281.9 250.1,282.7 252.4,283.1 254.8,283.5 257.2,283.7 259.5,283.8 261.9,283.9 264.3,283.9 266.6,284.0 269.0,284.0 271.4,284.0 273.7,284.0 276.1,284.0 278.5,284.0 280.8,284.0 283.2,284.0 285.6,284.0 287.9,284.0 290.3,284.0 292.7,284.0 295.0,284.0 297.4,284.0 299.8,284.0 302.1,284.0 304.5,284.0 306.9,284.0 309.2,284.0 311.6,284.0 314.0,284.0 316.3,284.0 318.7,284.0 321.1,284.0 323.4,284.0 325.8,284.0 328.2,284.0 330.5,284.0 332.9,284.0 335.3,284.0 337.6,284.0 340.0,284.0" fill="none" stroke="#0072B2" stroke-width="2.4"/>
<polyline points="56.0,284.0 58.4,284.0 60.7,284.0 63.1,284.0 65.5,284.0 67.8,284.0 70.2,284.0 72.6,284.0 74.9,284.0 77.3,284.0 79.7,284.0 82.0,284.0 84.4,284.0 86.8,284.0 89.1,284.0 91.5,284.0 93.9,284.0 96.2,284.0 98.6,284.0 101.0,284.0 103.3,284.0 105.7,284.0 108.1,284.0 110.4,284.0 112.8,283.9 115.2,283.9 117.5,283.9 119.9,283.9 122.3,283.8 124.6,283.8 127.0,283.7 129.4,283.7 131.7,283.6 134.1,283.5 136.5,283.3 138.8,283.2 141.2,283.0 143.6,282.7 145.9,282.5 148.3,282.1 150.7,281.7 153.0,281.2 155.4,280.7 157.8,280.0 160.1,279.3 162.5,278.4 164.9,277.5 167.2,276.3 169.6,275.1 172.0,273.7 174.3,272.1 176.7,270.3 179.1,268.4 181.4,266.3 183.8,264.0 186.2,261.5 188.5,258.8 190.9,255.9 193.3,252.9 195.6,249.7 198.0,246.4 200.4,242.9 202.7,239.4 205.1,235.8 207.5,232.2 209.8,228.6 212.2,225.0 214.6,221.5 216.9,218.1 219.3,214.9 221.7,211.9 224.0,209.2 226.4,206.7 228.8,204.5 231.1,202.7 233.5,201.3 235.9,200.2 238.2,199.6 240.6,199.4 243.0,199.6 245.3,200.2 247.7,201.3 250.1,202.7 252.4,204.5 254.8,206.7 257.2,209.2 259.5,211.9 261.9,214.9 264.3,218.1 266.6,221.5 269.0,225.0 271.4,228.6 273.7,232.2 276.1,235.8 278.5,239.4 280.8,242.9 283.2,246.4 285.6,249.7 287.9,252.9 290.3,255.9 292.7,258.8 295.0,261.5 297.4,264.0 299.8,266.3 302.1,268.4 304.5,270.3 306.9,272.1 309.2,273.7 311.6,275.1 314.0,276.3 316.3,277.5 318.7,278.4 321.1,279.3 323.4,280.0 325.8,280.7 328.2,281.2 330.5,281.7 332.9,282.1 335.3,282.5 337.6,282.7 340.0,283.0" fill="none" stroke="#D55E00" stroke-width="2.4"/>
<text x="150" y="135" font-family="'Inter',-apple-system,'Helvetica Neue',sans-serif" font-size="14" fill="#0072B2" text-anchor="middle">t = 0</text>
<text x="302" y="178" font-family="'Inter',-apple-system,'Helvetica Neue',sans-serif" font-size="14" fill="#D55E00" text-anchor="middle">t = T</text>
<text x="198" y="310" font-family="'Inter',-apple-system,'Helvetica Neue',sans-serif" font-size="13" fill="#545454" text-anchor="middle" font-style="italic">moves and spreads</text>
<text x="330" y="300" font-family="'EB Garamond','Garamond',Georgia,serif" font-size="14" fill="#2a1a0e" text-anchor="end" font-style="italic">x</text>
<polygon points="384.0,284 384.0,284.0 386.4,284.0 388.7,284.0 391.1,284.0 393.5,284.0 395.8,284.0 398.2,284.0 400.6,284.0 402.9,284.0 405.3,284.0 407.7,284.0 410.0,284.0 412.4,284.0 414.8,284.0 417.1,284.0 419.5,284.0 421.9,284.0 424.2,284.0 426.6,284.0 429.0,284.0 431.3,284.0 433.7,283.9 436.1,283.9 438.4,283.9 440.8,283.8 443.2,283.8 445.5,283.7 447.9,283.5 450.3,283.4 452.6,283.1 455.0,282.8 457.4,282.4 459.7,281.8 462.1,281.1 464.5,280.2 466.8,279.1 469.2,277.6 471.6,275.9 473.9,273.8 476.3,271.4 478.7,268.4 481.0,265.0 483.4,261.0 485.8,256.5 488.1,251.5 490.5,245.9 492.9,239.9 495.2,233.3 497.6,226.4 500.0,219.3 502.3,212.0 504.7,204.6 507.1,197.4 509.4,190.5 511.8,184.1 514.2,178.4 516.5,173.4 518.9,169.4 521.3,166.4 523.6,164.6 526.0,164.0 528.4,164.6 530.7,166.4 533.1,169.4 535.5,173.4 537.8,178.4 540.2,184.1 542.6,190.5 544.9,197.4 547.3,204.6 549.7,212.0 552.0,219.3 554.4,226.4 556.8,233.3 559.1,239.9 561.5,245.9 563.9,251.5 566.2,256.5 568.6,261.0 571.0,265.0 573.3,268.4 575.7,271.4 578.1,273.8 580.4,275.9 582.8,277.6 585.2,279.1 587.5,280.2 589.9,281.1 592.3,281.8 594.6,282.4 597.0,282.8 599.4,283.1 601.7,283.4 604.1,283.5 606.5,283.7 608.8,283.8 611.2,283.8 613.6,283.9 615.9,283.9 618.3,283.9 620.7,284.0 623.0,284.0 625.4,284.0 627.8,284.0 630.1,284.0 632.5,284.0 634.9,284.0 637.2,284.0 639.6,284.0 642.0,284.0 644.3,284.0 646.7,284.0 649.1,284.0 651.4,284.0 653.8,284.0 656.2,284.0 658.5,284.0 660.9,284.0 663.3,284.0 665.6,284.0 668.0,284.0 668.0,284" fill="#CCE5F1"/>
<polyline points="384.0,284.0 386.4,284.0 388.7,284.0 391.1,284.0 393.5,284.0 395.8,284.0 398.2,284.0 400.6,284.0 402.9,284.0 405.3,284.0 407.7,284.0 410.0,284.0 412.4,284.0 414.8,284.0 417.1,284.0 419.5,284.0 421.9,284.0 424.2,284.0 426.6,284.0 429.0,284.0 431.3,284.0 433.7,283.9 436.1,283.9 438.4,283.9 440.8,283.8 443.2,283.8 445.5,283.7 447.9,283.5 450.3,283.4 452.6,283.1 455.0,282.8 457.4,282.4 459.7,281.8 462.1,281.1 464.5,280.2 466.8,279.1 469.2,277.6 471.6,275.9 473.9,273.8 476.3,271.4 478.7,268.4 481.0,265.0 483.4,261.0 485.8,256.5 488.1,251.5 490.5,245.9 492.9,239.9 495.2,233.3 497.6,226.4 500.0,219.3 502.3,212.0 504.7,204.6 507.1,197.4 509.4,190.5 511.8,184.1 514.2,178.4 516.5,173.4 518.9,169.4 521.3,166.4 523.6,164.6 526.0,164.0 528.4,164.6 530.7,166.4 533.1,169.4 535.5,173.4 537.8,178.4 540.2,184.1 542.6,190.5 544.9,197.4 547.3,204.6 549.7,212.0 552.0,219.3 554.4,226.4 556.8,233.3 559.1,239.9 561.5,245.9 563.9,251.5 566.2,256.5 568.6,261.0 571.0,265.0 573.3,268.4 575.7,271.4 578.1,273.8 580.4,275.9 582.8,277.6 585.2,279.1 587.5,280.2 589.9,281.1 592.3,281.8 594.6,282.4 597.0,282.8 599.4,283.1 601.7,283.4 604.1,283.5 606.5,283.7 608.8,283.8 611.2,283.8 613.6,283.9 615.9,283.9 618.3,283.9 620.7,284.0 623.0,284.0 625.4,284.0 627.8,284.0 630.1,284.0 632.5,284.0 634.9,284.0 637.2,284.0 639.6,284.0 642.0,284.0 644.3,284.0 646.7,284.0 649.1,284.0 651.4,284.0 653.8,284.0 656.2,284.0 658.5,284.0 660.9,284.0 663.3,284.0 665.6,284.0 668.0,284.0" fill="none" stroke="#0072B2" stroke-width="2.4"/>
<polyline points="384.0,284.0 386.4,284.0 388.7,284.0 391.1,284.0 393.5,284.0 395.8,284.0 398.2,284.0 400.6,284.0 402.9,284.0 405.3,284.0 407.7,284.0 410.0,284.0 412.4,284.0 414.8,284.0 417.1,284.0 419.5,284.0 421.9,284.0 424.2,284.0 426.6,284.0 429.0,284.0 431.3,284.0 433.7,283.9 436.1,283.9 438.4,283.9 440.8,283.8 443.2,283.8 445.5,283.7 447.9,283.5 450.3,283.4 452.6,283.1 455.0,282.8 457.4,282.4 459.7,281.8 462.1,281.1 464.5,280.2 466.8,279.1 469.2,277.6 471.6,275.9 473.9,273.8 476.3,271.4 478.7,268.4 481.0,265.0 483.4,261.0 485.8,256.5 488.1,251.5 490.5,245.9 492.9,239.9 495.2,233.3 497.6,226.4 500.0,219.3 502.3,212.0 504.7,204.6 507.1,197.4 509.4,190.5 511.8,184.1 514.2,178.4 516.5,173.4 518.9,169.4 521.3,166.4 523.6,164.6 526.0,164.0 528.4,164.6 530.7,166.4 533.1,169.4 535.5,173.4 537.8,178.4 540.2,184.1 542.6,190.5 544.9,197.4 547.3,204.6 549.7,212.0 552.0,219.3 554.4,226.4 556.8,233.3 559.1,239.9 561.5,245.9 563.9,251.5 566.2,256.5 568.6,261.0 571.0,265.0 573.3,268.4 575.7,271.4 578.1,273.8 580.4,275.9 582.8,277.6 585.2,279.1 587.5,280.2 589.9,281.1 592.3,281.8 594.6,282.4 597.0,282.8 599.4,283.1 601.7,283.4 604.1,283.5 606.5,283.7 608.8,283.8 611.2,283.8 613.6,283.9 615.9,283.9 618.3,283.9 620.7,284.0 623.0,284.0 625.4,284.0 627.8,284.0 630.1,284.0 632.5,284.0 634.9,284.0 637.2,284.0 639.6,284.0 642.0,284.0 644.3,284.0 646.7,284.0 649.1,284.0 651.4,284.0 653.8,284.0 656.2,284.0 658.5,284.0 660.9,284.0 663.3,284.0 665.6,284.0 668.0,284.0" fill="none" stroke="#D55E00" stroke-width="2.4" stroke-dasharray="6 5"/>
<text x="526" y="135" font-family="'Inter',-apple-system,'Helvetica Neue',sans-serif" font-size="14" fill="#2a1a0e" text-anchor="middle">t = 0 and t = T</text>
<text x="526" y="152" font-family="'Inter',-apple-system,'Helvetica Neue',sans-serif" font-size="14" fill="#2a1a0e" text-anchor="middle">coincide</text>
<text x="526" y="310" font-family="'Inter',-apple-system,'Helvetica Neue',sans-serif" font-size="13" fill="#545454" text-anchor="middle" font-style="italic">momentum frozen</text>
<text x="658" y="300" font-family="'EB Garamond','Garamond',Georgia,serif" font-size="14" fill="#2a1a0e" text-anchor="end" font-style="italic">k</text>
<line x1="452" y1="172" x2="476" y2="172" stroke="#0072B2" stroke-width="2.4"/>
<text x="480" y="176" font-family="'Inter',-apple-system,'Helvetica Neue',sans-serif" font-size="12" fill="#545454" text-anchor="start">t = 0</text>
<line x1="556" y1="172" x2="580" y2="172" stroke="#D55E00" stroke-width="2.4" stroke-dasharray="6 5"/>
<text x="584" y="176" font-family="'Inter',-apple-system,'Helvetica Neue',sans-serif" font-size="12" fill="#545454" text-anchor="start">t = T</text>
</svg>
